<svg width="169" height="24" viewBox="0 0 169 24" fill="none" xmlns="http://www.w3.org/2000/svg">
<path d="M169 24H0V0H169V24Z" stroke="#E5E7EB"/>
<path d="M18.2656 22H4.26562V2H18.2656V22Z" stroke="#E5E7EB"/>
<g clip-path="url(#clip0_485_10449)">
<path d="M8.49062 4.55313L8.26562 5H5.26562C4.7125 5 4.26562 5.44687 4.26562 6C4.26562 6.55312 4.7125 7 5.26562 7H17.2656C17.8188 7 18.2656 6.55312 18.2656 6C18.2656 5.44687 17.8188 5 17.2656 5H14.2656L14.0406 4.55313C13.8719 4.2125 13.525 4 13.1469 4H9.38438C9.00625 4 8.65937 4.2125 8.49062 4.55313ZM17.2656 8H5.26562L5.92813 18.5938C5.97812 19.3844 6.63438 20 7.425 20H15.1062C15.8969 20 16.5531 19.3844 16.6031 18.5938L17.2656 8Z" fill="#DC2626"/>
</g>
<path d="M42.9219 11V11.625C42.9219 12.4844 42.8099 13.2552 42.5859 13.9375C42.362 14.6198 42.0417 15.2005 41.625 15.6797C41.2135 16.1589 40.7188 16.526 40.1406 16.7812C39.5625 17.0312 38.9219 17.1562 38.2188 17.1562C37.5208 17.1562 36.8828 17.0312 36.3047 16.7812C35.7318 16.526 35.2344 16.1589 34.8125 15.6797C34.3906 15.2005 34.0625 14.6198 33.8281 13.9375C33.599 13.2552 33.4844 12.4844 33.4844 11.625V11C33.4844 10.1406 33.599 9.3724 33.8281 8.69531C34.0573 8.01302 34.3802 7.43229 34.7969 6.95312C35.2188 6.46875 35.7161 6.10156 36.2891 5.85156C36.8672 5.59635 37.5052 5.46875 38.2031 5.46875C38.9062 5.46875 39.5469 5.59635 40.125 5.85156C40.7031 6.10156 41.2005 6.46875 41.6172 6.95312C42.0339 7.43229 42.3542 8.01302 42.5781 8.69531C42.8073 9.3724 42.9219 10.1406 42.9219 11ZM40.9609 11.625V10.9844C40.9609 10.349 40.8984 9.78906 40.7734 9.30469C40.6536 8.8151 40.474 8.40625 40.2344 8.07812C40 7.74479 39.7109 7.49479 39.3672 7.32812C39.0234 7.15625 38.6354 7.07031 38.2031 7.07031C37.7708 7.07031 37.3854 7.15625 37.0469 7.32812C36.7083 7.49479 36.4193 7.74479 36.1797 8.07812C35.9453 8.40625 35.7656 8.8151 35.6406 9.30469C35.5156 9.78906 35.4531 10.349 35.4531 10.9844V11.625C35.4531 12.2604 35.5156 12.8229 35.6406 13.3125C35.7656 13.8021 35.9479 14.2161 36.1875 14.5547C36.4323 14.888 36.724 15.1406 37.0625 15.3125C37.401 15.4792 37.7865 15.5625 38.2188 15.5625C38.6562 15.5625 39.0443 15.4792 39.3828 15.3125C39.7214 15.1406 40.0078 14.888 40.2422 14.5547C40.4766 14.2161 40.6536 13.8021 40.7734 13.3125C40.8984 12.8229 40.9609 12.2604 40.9609 11.625ZM51.4844 8.54688V17H49.6016V8.54688H51.4844ZM50.6875 12.2891V13.7812C50.4583 13.8802 50.2005 13.9714 49.9141 14.0547C49.6328 14.1328 49.3359 14.1979 49.0234 14.25C48.7109 14.2969 48.3958 14.3203 48.0781 14.3203C47.3333 14.3203 46.6901 14.2057 46.1484 13.9766C45.612 13.7474 45.1979 13.3958 44.9062 12.9219C44.6198 12.4427 44.4766 11.8359 44.4766 11.1016V8.53906H46.3516V11.1016C46.3516 11.5234 46.4141 11.8594 46.5391 12.1094C46.6693 12.3594 46.862 12.5391 47.1172 12.6484C47.3724 12.7578 47.6927 12.8125 48.0781 12.8125C48.401 12.8125 48.7057 12.7917 48.9922 12.75C49.2786 12.7031 49.5625 12.6406 49.8438 12.5625C50.125 12.4844 50.4062 12.3932 50.6875 12.2891ZM55.4375 14.25L58.7578 8.54688H60.6406V17H58.7578V11.2891L55.4375 17H53.5547V8.54688H55.4375V14.25ZM66.0859 15.6562C66.3932 15.6562 66.6693 15.5964 66.9141 15.4766C67.1641 15.3516 67.3646 15.1797 67.5156 14.9609C67.6719 14.7422 67.7578 14.4896 67.7734 14.2031H69.5469C69.5365 14.75 69.375 15.2474 69.0625 15.6953C68.75 16.1432 68.3359 16.5 67.8203 16.7656C67.3047 17.026 66.7344 17.1562 66.1094 17.1562C65.4635 17.1562 64.901 17.0469 64.4219 16.8281C63.9427 16.6042 63.5443 16.2969 63.2266 15.9062C62.9089 15.5156 62.6693 15.0651 62.5078 14.5547C62.3516 14.0443 62.2734 13.4974 62.2734 12.9141V12.6406C62.2734 12.0573 62.3516 11.5104 62.5078 11C62.6693 10.4844 62.9089 10.0312 63.2266 9.64062C63.5443 9.25 63.9427 8.94531 64.4219 8.72656C64.901 8.5026 65.4609 8.39062 66.1016 8.39062C66.7786 8.39062 67.3724 8.52604 67.8828 8.79688C68.3932 9.0625 68.7943 9.4349 69.0859 9.91406C69.3828 10.388 69.5365 10.9401 69.5469 11.5703H67.7734C67.7578 11.2578 67.6797 10.9766 67.5391 10.7266C67.4036 10.4714 67.2109 10.2682 66.9609 10.1172C66.7161 9.96615 66.4219 9.89062 66.0781 9.89062C65.6979 9.89062 65.3828 9.96875 65.1328 10.125C64.8828 10.276 64.6875 10.4844 64.5469 10.75C64.4062 11.0104 64.3047 11.3047 64.2422 11.6328C64.1849 11.9557 64.1562 12.2917 64.1562 12.6406V12.9141C64.1562 13.263 64.1849 13.6016 64.2422 13.9297C64.2995 14.2578 64.3984 14.5521 64.5391 14.8125C64.6849 15.0677 64.8828 15.2734 65.1328 15.4297C65.3828 15.5807 65.7005 15.6562 66.0859 15.6562ZM74.9141 8.54688V17H73.0234V8.54688H74.9141ZM77.6875 8.54688V10.0312H70.2969V8.54688H77.6875ZM80.8906 14.25L84.2109 8.54688H86.0938V17H84.2109V11.2891L80.8906 17H79.0078V8.54688H80.8906V14.25ZM92.0078 8.54688V17H90.1172V8.54688H92.0078ZM94.7812 8.54688V10.0312H87.3906V8.54688H94.7812ZM97.4375 11.2344H99.9297C100.659 11.2344 101.279 11.3568 101.789 11.6016C102.299 11.8464 102.688 12.1875 102.953 12.625C103.224 13.0573 103.359 13.5521 103.359 14.1094C103.359 14.5208 103.284 14.9036 103.133 15.2578C102.982 15.6068 102.758 15.9115 102.461 16.1719C102.169 16.4323 101.81 16.6354 101.383 16.7812C100.961 16.9271 100.477 17 99.9297 17H96.1875V8.54688H98.0781V15.5078H99.9297C100.305 15.5078 100.604 15.4427 100.828 15.3125C101.052 15.1823 101.214 15.013 101.312 14.8047C101.417 14.5964 101.469 14.375 101.469 14.1406C101.469 13.901 101.417 13.6745 101.312 13.4609C101.214 13.2474 101.052 13.0729 100.828 12.9375C100.604 12.8021 100.305 12.7344 99.9297 12.7344H97.4375V11.2344ZM110.883 8.54688V17H109V8.54688H110.883ZM116.398 8.54688L112.594 13.6328H110.445L110.195 11.9297H111.766L114.047 8.54688H116.398ZM114.195 17L111.648 13.3125L113.133 12.2422L116.672 17H114.195ZM117.055 12.8672V12.6875C117.055 12.0781 117.143 11.513 117.32 10.9922C117.497 10.4661 117.753 10.0104 118.086 9.625C118.424 9.23438 118.836 8.93229 119.32 8.71875C119.81 8.5 120.362 8.39062 120.977 8.39062C121.596 8.39062 122.148 8.5 122.633 8.71875C123.122 8.93229 123.536 9.23438 123.875 9.625C124.214 10.0104 124.471 10.4661 124.648 10.9922C124.826 11.513 124.914 12.0781 124.914 12.6875V12.8672C124.914 13.4766 124.826 14.0417 124.648 14.5625C124.471 15.0833 124.214 15.5391 123.875 15.9297C123.536 16.3151 123.125 16.6172 122.641 16.8359C122.156 17.0495 121.607 17.1562 120.992 17.1562C120.372 17.1562 119.818 17.0495 119.328 16.8359C118.844 16.6172 118.432 16.3151 118.094 15.9297C117.755 15.5391 117.497 15.0833 117.32 14.5625C117.143 14.0417 117.055 13.4766 117.055 12.8672ZM118.938 12.6875V12.8672C118.938 13.2474 118.977 13.6068 119.055 13.9453C119.133 14.2839 119.255 14.5807 119.422 14.8359C119.589 15.0911 119.802 15.2917 120.062 15.4375C120.323 15.5833 120.633 15.6562 120.992 15.6562C121.341 15.6562 121.643 15.5833 121.898 15.4375C122.159 15.2917 122.372 15.0911 122.539 14.8359C122.706 14.5807 122.828 14.2839 122.906 13.9453C122.99 13.6068 123.031 13.2474 123.031 12.8672V12.6875C123.031 12.3125 122.99 11.9583 122.906 11.625C122.828 11.2865 122.703 10.987 122.531 10.7266C122.365 10.4661 122.151 10.263 121.891 10.1172C121.635 9.96615 121.331 9.89062 120.977 9.89062C120.622 9.89062 120.315 9.96615 120.055 10.1172C119.799 10.263 119.589 10.4661 119.422 10.7266C119.255 10.987 119.133 11.2865 119.055 11.625C118.977 11.9583 118.938 12.3125 118.938 12.6875ZM128.383 10.1719V20.25H126.5V8.54688H128.234L128.383 10.1719ZM133.891 12.6953V12.8594C133.891 13.474 133.818 14.0443 133.672 14.5703C133.531 15.0911 133.32 15.5469 133.039 15.9375C132.763 16.3229 132.422 16.6224 132.016 16.8359C131.609 17.0495 131.141 17.1562 130.609 17.1562C130.083 17.1562 129.622 17.0599 129.227 16.8672C128.836 16.6693 128.505 16.3906 128.234 16.0312C127.964 15.6719 127.745 15.25 127.578 14.7656C127.417 14.276 127.302 13.7396 127.234 13.1562V12.5234C127.302 11.9036 127.417 11.3411 127.578 10.8359C127.745 10.3307 127.964 9.89583 128.234 9.53125C128.505 9.16667 128.836 8.88542 129.227 8.6875C129.617 8.48958 130.073 8.39062 130.594 8.39062C131.125 8.39062 131.596 8.49479 132.008 8.70312C132.419 8.90625 132.766 9.19792 133.047 9.57812C133.328 9.95312 133.539 10.4062 133.68 10.9375C133.82 11.4635 133.891 12.0495 133.891 12.6953ZM132.008 12.8594V12.6953C132.008 12.3047 131.971 11.9427 131.898 11.6094C131.826 11.2708 131.711 10.974 131.555 10.7188C131.398 10.4635 131.198 10.2656 130.953 10.125C130.714 9.97917 130.424 9.90625 130.086 9.90625C129.753 9.90625 129.466 9.96354 129.227 10.0781C128.987 10.1875 128.786 10.3411 128.625 10.5391C128.464 10.737 128.339 10.9688 128.25 11.2344C128.161 11.4948 128.099 11.7786 128.062 12.0859V13.6016C128.125 13.9766 128.232 14.3203 128.383 14.6328C128.534 14.9453 128.747 15.1953 129.023 15.3828C129.305 15.5651 129.664 15.6562 130.102 15.6562C130.44 15.6562 130.729 15.5833 130.969 15.4375C131.208 15.2917 131.404 15.0911 131.555 14.8359C131.711 14.5755 131.826 14.276 131.898 13.9375C131.971 13.599 132.008 13.2396 132.008 12.8594ZM138.992 12.9609H137.367V12.0078H138.68C139.013 12.0078 139.279 11.9635 139.477 11.875C139.68 11.7865 139.823 11.6641 139.906 11.5078C139.995 11.3464 140.039 11.1589 140.039 10.9453C140.039 10.7578 139.995 10.5807 139.906 10.4141C139.823 10.2422 139.68 10.1016 139.477 9.99219C139.273 9.88281 138.997 9.82812 138.648 9.82812C138.362 9.82812 138.104 9.875 137.875 9.96875C137.651 10.0625 137.474 10.1927 137.344 10.3594C137.214 10.526 137.148 10.7188 137.148 10.9375H135.266C135.266 10.4115 135.414 9.95833 135.711 9.57812C136.013 9.19792 136.417 8.90625 136.922 8.70312C137.427 8.5 137.982 8.39844 138.586 8.39844C139.102 8.39844 139.565 8.45312 139.977 8.5625C140.388 8.66667 140.737 8.82292 141.023 9.03125C141.315 9.23438 141.536 9.48958 141.688 9.79688C141.844 10.099 141.922 10.4505 141.922 10.8516C141.922 11.138 141.854 11.4089 141.719 11.6641C141.583 11.9193 141.388 12.1458 141.133 12.3438C140.878 12.5365 140.568 12.6875 140.203 12.7969C139.844 12.9062 139.44 12.9609 138.992 12.9609ZM137.367 12.4141H138.992C139.492 12.4141 139.935 12.4635 140.32 12.5625C140.706 12.6562 141.029 12.7969 141.289 12.9844C141.549 13.1719 141.745 13.4036 141.875 13.6797C142.01 13.9505 142.078 14.263 142.078 14.6172C142.078 15.013 141.992 15.3698 141.82 15.6875C141.654 16 141.414 16.2656 141.102 16.4844C140.794 16.7031 140.427 16.8698 140 16.9844C139.573 17.099 139.102 17.1562 138.586 17.1562C138.023 17.1562 137.477 17.0625 136.945 16.875C136.419 16.6875 135.984 16.3984 135.641 16.0078C135.302 15.612 135.133 15.1094 135.133 14.5H137.016C137.016 14.7135 137.081 14.9141 137.211 15.1016C137.341 15.2891 137.529 15.4427 137.773 15.5625C138.018 15.6771 138.312 15.7344 138.656 15.7344C139.01 15.7344 139.299 15.6797 139.523 15.5703C139.747 15.4557 139.914 15.3073 140.023 15.125C140.133 14.9375 140.188 14.7396 140.188 14.5312C140.188 14.25 140.133 14.0234 140.023 13.8516C139.914 13.6797 139.747 13.5547 139.523 13.4766C139.299 13.3932 139.018 13.3516 138.68 13.3516H137.367V12.4141ZM145.625 14.25L148.945 8.54688H150.828V17H148.945V11.2891L145.625 17H143.742V8.54688H145.625V14.25ZM158.594 12.0781V13.5625H154.219V12.0781H158.594ZM154.766 8.54688V17H152.883V8.54688H154.766ZM159.953 8.54688V17H158.07V8.54688H159.953ZM164.414 16.0781L166.711 8.54688H168.727L165.336 18.2891C165.258 18.4974 165.156 18.724 165.031 18.9688C164.906 19.2135 164.742 19.4453 164.539 19.6641C164.341 19.888 164.094 20.0677 163.797 20.2031C163.5 20.3438 163.141 20.4141 162.719 20.4141C162.552 20.4141 162.391 20.3984 162.234 20.3672C162.083 20.3411 161.94 20.3125 161.805 20.2812L161.797 18.8438C161.849 18.849 161.911 18.8542 161.984 18.8594C162.062 18.8646 162.125 18.8672 162.172 18.8672C162.484 18.8672 162.745 18.8281 162.953 18.75C163.161 18.6771 163.331 18.5573 163.461 18.3906C163.596 18.224 163.711 18 163.805 17.7188L164.414 16.0781ZM163.117 8.54688L165.125 14.875L165.461 16.8594L164.156 17.1953L161.086 8.54688H163.117Z" fill="#DC2626"/>
<defs>
<clipPath id="clip0_485_10449">
<path d="M4.26562 4H18.2656V20H4.26562V4Z" fill="white"/>
</clipPath>
</defs>
</svg>
