<svg width="136" height="44" viewBox="0 0 136 44" fill="none" xmlns="http://www.w3.org/2000/svg">
<path d="M128 0C132.418 0 136 3.58172 136 8V36C136 40.4183 132.418 44 128 44H8C3.58172 44 0 40.4183 0 36V8C0 3.58172 3.58172 0 8 0H128Z" fill="#FF0505"/>
<path d="M128 0C132.418 0 136 3.58172 136 8V36C136 40.4183 132.418 44 128 44H8C3.58172 44 0 40.4183 0 36V8C0 3.58172 3.58172 0 8 0H128Z" stroke="#E5E7EB"/>
<path d="M32 15C32 14.4469 31.5531 14 31 14C30.4469 14 30 14.4469 30 15V22.5844L27.7063 20.2906C27.3156 19.9 26.6813 19.9 26.2906 20.2906C25.9 20.6813 25.9 21.3156 26.2906 21.7063L30.2906 25.7063C30.6813 26.0969 31.3156 26.0969 31.7063 25.7063L35.7063 21.7063C36.0969 21.3156 36.0969 20.6813 35.7063 20.2906C35.3156 19.9 34.6812 19.9 34.2906 20.2906L32 22.5844V15ZM25 25C23.8969 25 23 25.8969 23 27V28C23 29.1031 23.8969 30 25 30H37C38.1031 30 39 29.1031 39 28V27C39 25.8969 38.1031 25 37 25H33.8281L32.4125 26.4156C31.6313 27.1969 30.3656 27.1969 29.5844 26.4156L28.1719 25H25ZM36.5 26.75C36.6989 26.75 36.8897 26.829 37.0303 26.9697C37.171 27.1103 37.25 27.3011 37.25 27.5C37.25 27.6989 37.171 27.8897 37.0303 28.0303C36.8897 28.171 36.6989 28.25 36.5 28.25C36.3011 28.25 36.1103 28.171 35.9697 28.0303C35.829 27.8897 35.75 27.6989 35.75 27.5C35.75 27.3011 35.829 27.1103 35.9697 26.9697C36.1103 26.829 36.3011 26.75 36.5 26.75Z" fill="white"/>
<path d="M56.875 21.2969H58.8281C58.7656 22.0417 58.5573 22.7057 58.2031 23.2891C57.849 23.8672 57.3516 24.3229 56.7109 24.6562C56.0703 24.9896 55.2917 25.1562 54.375 25.1562C53.6719 25.1562 53.0391 25.0312 52.4766 24.7812C51.9141 24.526 51.4323 24.1667 51.0312 23.7031C50.6302 23.2344 50.3229 22.6693 50.1094 22.0078C49.901 21.3464 49.7969 20.6068 49.7969 19.7891V18.8438C49.7969 18.026 49.9036 17.2865 50.1172 16.625C50.3359 15.9635 50.6484 15.3984 51.0547 14.9297C51.4609 14.4557 51.9479 14.0938 52.5156 13.8438C53.0885 13.5938 53.7318 13.4688 54.4453 13.4688C55.3516 13.4688 56.1172 13.6354 56.7422 13.9688C57.3672 14.3021 57.8516 14.763 58.1953 15.3516C58.5443 15.9401 58.7578 16.6146 58.8359 17.375H56.8828C56.8307 16.8854 56.7161 16.4661 56.5391 16.1172C56.3672 15.7682 56.112 15.5026 55.7734 15.3203C55.4349 15.1328 54.9922 15.0391 54.4453 15.0391C53.9974 15.0391 53.6068 15.1224 53.2734 15.2891C52.9401 15.4557 52.6615 15.7005 52.4375 16.0234C52.2135 16.3464 52.0443 16.7448 51.9297 17.2188C51.8203 17.6875 51.7656 18.224 51.7656 18.8281V19.7891C51.7656 20.362 51.8151 20.8828 51.9141 21.3516C52.0182 21.8151 52.1745 22.2135 52.3828 22.5469C52.5964 22.8802 52.8672 23.138 53.1953 23.3203C53.5234 23.5026 53.9167 23.5938 54.375 23.5938C54.9323 23.5938 55.3828 23.5052 55.7266 23.3281C56.0755 23.151 56.3385 22.8932 56.5156 22.5547C56.6979 22.2109 56.8177 21.7917 56.875 21.2969ZM62.4531 16.5469V25H60.5703V16.5469H62.4531ZM67.9688 16.5469L64.1641 21.6328H62.0156L61.7656 19.9297H63.3359L65.6172 16.5469H67.9688ZM65.7656 25L63.2188 21.3125L64.7031 20.2422L68.2422 25H65.7656ZM74.0312 23.3047V19.2734C74.0312 18.9714 73.9766 18.7109 73.8672 18.4922C73.7578 18.2734 73.5911 18.1042 73.3672 17.9844C73.1484 17.8646 72.8724 17.8047 72.5391 17.8047C72.2318 17.8047 71.9661 17.8568 71.7422 17.9609C71.5182 18.0651 71.3438 18.2057 71.2188 18.3828C71.0938 18.5599 71.0312 18.7604 71.0312 18.9844H69.1562C69.1562 18.651 69.237 18.3281 69.3984 18.0156C69.5599 17.7031 69.7943 17.4245 70.1016 17.1797C70.4089 16.9349 70.776 16.7422 71.2031 16.6016C71.6302 16.4609 72.1094 16.3906 72.6406 16.3906C73.276 16.3906 73.8385 16.4974 74.3281 16.7109C74.8229 16.9245 75.2109 17.2474 75.4922 17.6797C75.7786 18.1068 75.9219 18.6432 75.9219 19.2891V23.0469C75.9219 23.4323 75.9479 23.7786 76 24.0859C76.0573 24.388 76.138 24.651 76.2422 24.875V25H74.3125C74.224 24.7969 74.1536 24.5391 74.1016 24.2266C74.0547 23.9089 74.0312 23.6016 74.0312 23.3047ZM74.3047 19.8594L74.3203 21.0234H72.9688C72.6198 21.0234 72.3125 21.0573 72.0469 21.125C71.7812 21.1875 71.5599 21.2812 71.3828 21.4062C71.2057 21.5312 71.0729 21.6823 70.9844 21.8594C70.8958 22.0365 70.8516 22.237 70.8516 22.4609C70.8516 22.6849 70.9036 22.8906 71.0078 23.0781C71.112 23.2604 71.263 23.4036 71.4609 23.5078C71.6641 23.612 71.9089 23.6641 72.1953 23.6641C72.5807 23.6641 72.9167 23.5859 73.2031 23.4297C73.4948 23.2682 73.724 23.0729 73.8906 22.8438C74.0573 22.6094 74.1458 22.388 74.1562 22.1797L74.7656 23.0156C74.7031 23.2292 74.5964 23.4583 74.4453 23.7031C74.2943 23.9479 74.0964 24.1823 73.8516 24.4062C73.612 24.625 73.3229 24.8047 72.9844 24.9453C72.651 25.0859 72.2656 25.1562 71.8281 25.1562C71.276 25.1562 70.7839 25.0469 70.3516 24.8281C69.9193 24.6042 69.5807 24.3047 69.3359 23.9297C69.0911 23.5495 68.9688 23.1198 68.9688 22.6406C68.9688 22.1927 69.0521 21.7969 69.2188 21.4531C69.3906 21.1042 69.6406 20.8125 69.9688 20.5781C70.3021 20.3438 70.7083 20.1667 71.1875 20.0469C71.6667 19.9219 72.2135 19.8594 72.8281 19.8594H74.3047ZM84.6797 16.5469V25H82.7969V16.5469H84.6797ZM83.8828 20.2891V21.7812C83.6536 21.8802 83.3958 21.9714 83.1094 22.0547C82.8281 22.1328 82.5312 22.1979 82.2188 22.25C81.9062 22.2969 81.5911 22.3203 81.2734 22.3203C80.5286 22.3203 79.8854 22.2057 79.3438 21.9766C78.8073 21.7474 78.3932 21.3958 78.1016 20.9219C77.8151 20.4427 77.6719 19.8359 77.6719 19.1016V16.5391H79.5469V19.1016C79.5469 19.5234 79.6094 19.8594 79.7344 20.1094C79.8646 20.3594 80.0573 20.5391 80.3125 20.6484C80.5677 20.7578 80.888 20.8125 81.2734 20.8125C81.5964 20.8125 81.901 20.7917 82.1875 20.75C82.474 20.7031 82.7578 20.6406 83.0391 20.5625C83.3203 20.4844 83.6016 20.3932 83.8828 20.2891ZM91.4531 23.3047V19.2734C91.4531 18.9714 91.3984 18.7109 91.2891 18.4922C91.1797 18.2734 91.013 18.1042 90.7891 17.9844C90.5703 17.8646 90.2943 17.8047 89.9609 17.8047C89.6536 17.8047 89.388 17.8568 89.1641 17.9609C88.9401 18.0651 88.7656 18.2057 88.6406 18.3828C88.5156 18.5599 88.4531 18.7604 88.4531 18.9844H86.5781C86.5781 18.651 86.6589 18.3281 86.8203 18.0156C86.9818 17.7031 87.2161 17.4245 87.5234 17.1797C87.8307 16.9349 88.1979 16.7422 88.625 16.6016C89.0521 16.4609 89.5312 16.3906 90.0625 16.3906C90.6979 16.3906 91.2604 16.4974 91.75 16.7109C92.2448 16.9245 92.6328 17.2474 92.9141 17.6797C93.2005 18.1068 93.3438 18.6432 93.3438 19.2891V23.0469C93.3438 23.4323 93.3698 23.7786 93.4219 24.0859C93.4792 24.388 93.5599 24.651 93.6641 24.875V25H91.7344C91.6458 24.7969 91.5755 24.5391 91.5234 24.2266C91.4766 23.9089 91.4531 23.6016 91.4531 23.3047ZM91.7266 19.8594L91.7422 21.0234H90.3906C90.0417 21.0234 89.7344 21.0573 89.4688 21.125C89.2031 21.1875 88.9818 21.2812 88.8047 21.4062C88.6276 21.5312 88.4948 21.6823 88.4062 21.8594C88.3177 22.0365 88.2734 22.237 88.2734 22.4609C88.2734 22.6849 88.3255 22.8906 88.4297 23.0781C88.5339 23.2604 88.6849 23.4036 88.8828 23.5078C89.0859 23.612 89.3307 23.6641 89.6172 23.6641C90.0026 23.6641 90.3385 23.5859 90.625 23.4297C90.9167 23.2682 91.1458 23.0729 91.3125 22.8438C91.4792 22.6094 91.5677 22.388 91.5781 22.1797L92.1875 23.0156C92.125 23.2292 92.0182 23.4583 91.8672 23.7031C91.7161 23.9479 91.5182 24.1823 91.2734 24.4062C91.0339 24.625 90.7448 24.8047 90.4062 24.9453C90.0729 25.0859 89.6875 25.1562 89.25 25.1562C88.6979 25.1562 88.2057 25.0469 87.7734 24.8281C87.3411 24.6042 87.0026 24.3047 86.7578 23.9297C86.513 23.5495 86.3906 23.1198 86.3906 22.6406C86.3906 22.1927 86.474 21.7969 86.6406 21.4531C86.8125 21.1042 87.0625 20.8125 87.3906 20.5781C87.724 20.3438 88.1302 20.1667 88.6094 20.0469C89.0885 19.9219 89.6354 19.8594 90.25 19.8594H91.7266ZM99.1094 16.5469V25H97.2188V16.5469H99.1094ZM101.883 16.5469V18.0312H94.4922V16.5469H101.883ZM104.539 19.2344H107.031C107.76 19.2344 108.38 19.3568 108.891 19.6016C109.401 19.8464 109.789 20.1875 110.055 20.625C110.326 21.0573 110.461 21.5521 110.461 22.1094C110.461 22.5208 110.385 22.9036 110.234 23.2578C110.083 23.6068 109.859 23.9115 109.562 24.1719C109.271 24.4323 108.911 24.6354 108.484 24.7812C108.062 24.9271 107.578 25 107.031 25H103.289V16.5469H105.18V23.5078H107.031C107.406 23.5078 107.706 23.4427 107.93 23.3125C108.154 23.1823 108.315 23.013 108.414 22.8047C108.518 22.5964 108.57 22.375 108.57 22.1406C108.57 21.901 108.518 21.6745 108.414 21.4609C108.315 21.2474 108.154 21.0729 107.93 20.9375C107.706 20.8021 107.406 20.7344 107.031 20.7344H104.539V19.2344Z" fill="white"/>
</svg>
