<svg width="342" height="55" viewBox="0 0 342 55" fill="none" xmlns="http://www.w3.org/2000/svg">
<path d="M330 0C336.627 0 342 5.37258 342 12V43C342 49.6274 336.627 55 330 55H12C5.37258 55 0 49.6274 0 43V12C0 5.37258 5.37258 0 12 0H330Z" fill="#FF0505"/>
<path d="M330 0C336.627 0 342 5.37258 342 12V43C342 49.6274 336.627 55 330 55H12C5.37258 55 0 49.6274 0 43V12C0 5.37258 5.37258 0 12 0H330Z" stroke="#E5E7EB"/>
<path d="M76 21.75C76 21.3344 76.3372 21 76.7564 21H78.1905C78.8838 21 79.4984 21.4 79.7852 22H92.7388C93.5677 22 94.1729 22.7812 93.9554 23.575L92.6632 28.3344C92.3953 29.3156 91.497 30 90.4727 30H81.38L81.5502 30.8906C81.6195 31.2437 81.9315 31.5 82.294 31.5H91.3804C91.7996 31.5 92.1368 31.8344 92.1368 32.25C92.1368 32.6656 91.7996 33 91.3804 33H82.294C81.2035 33 80.2674 32.2312 80.0657 31.1719L78.4394 22.7031C78.4174 22.5844 78.3134 22.5 78.1905 22.5H76.7564C76.3372 22.5 76 22.1656 76 21.75ZM80.0342 35.5C80.0342 35.303 80.0733 35.108 80.1494 34.926C80.2254 34.744 80.3368 34.5786 80.4773 34.4393C80.6178 34.3001 80.7846 34.1896 80.9681 34.1142C81.1516 34.0388 81.3484 34 81.547 34C81.7457 34 81.9424 34.0388 82.126 34.1142C82.3095 34.1896 82.4763 34.3001 82.6168 34.4393C82.7572 34.5786 82.8687 34.744 82.9447 34.926C83.0207 35.108 83.0599 35.303 83.0599 35.5C83.0599 35.697 83.0207 35.892 82.9447 36.074C82.8687 36.256 82.7572 36.4214 82.6168 36.5607C82.4763 36.6999 82.3095 36.8104 82.126 36.8858C81.9424 36.9612 81.7457 37 81.547 37C81.3484 37 81.1516 36.9612 80.9681 36.8858C80.7846 36.8104 80.6178 36.6999 80.4773 36.5607C80.3368 36.4214 80.2254 36.256 80.1494 36.074C80.0733 35.892 80.0342 35.697 80.0342 35.5ZM90.624 34C91.0252 34 91.41 34.158 91.6937 34.4393C91.9775 34.7206 92.1368 35.1022 92.1368 35.5C92.1368 35.8978 91.9775 36.2794 91.6937 36.5607C91.41 36.842 91.0252 37 90.624 37C90.2228 37 89.838 36.842 89.5543 36.5607C89.2706 36.2794 89.1112 35.8978 89.1112 35.5C89.1112 35.1022 89.2706 34.7206 89.5543 34.4393C89.838 34.158 90.2228 34 90.624 34Z" fill="white"/>
<path d="M117.172 31.3125V33H108.883V31.3125H117.172ZM109.469 31.3125V35.7891H107.43L107.328 31.3125H109.469ZM118.773 31.3125L118.609 35.7969H116.617V31.3125H118.773ZM115.836 21.625V23.3203H110.477V21.625H115.836ZM117.422 21.625V33H115.281V21.625H117.422ZM110.133 21.625H112.281L111.992 26.25C111.951 26.9948 111.872 27.6589 111.758 28.2422C111.648 28.8255 111.513 29.3438 111.352 29.7969C111.19 30.25 111.01 30.6484 110.812 30.9922C110.62 31.3307 110.414 31.625 110.195 31.875C109.982 32.125 109.76 32.3411 109.531 32.5234C109.307 32.7005 109.086 32.8594 108.867 33H107.672V31.3125H108.188C108.339 31.1823 108.497 31 108.664 30.7656C108.836 30.5312 109 30.2214 109.156 29.8359C109.318 29.4505 109.458 28.9635 109.578 28.375C109.698 27.7865 109.784 27.0781 109.836 26.25L110.133 21.625ZM119.594 28.8594V28.6953C119.594 28.0755 119.682 27.5052 119.859 26.9844C120.036 26.4583 120.294 26.0026 120.633 25.6172C120.971 25.2318 121.385 24.9323 121.875 24.7188C122.365 24.5 122.922 24.3906 123.547 24.3906C124.182 24.3906 124.745 24.5 125.234 24.7188C125.729 24.9323 126.146 25.2318 126.484 25.6172C126.823 26.0026 127.081 26.4583 127.258 26.9844C127.435 27.5052 127.523 28.0755 127.523 28.6953V28.8594C127.523 29.474 127.435 30.0443 127.258 30.5703C127.081 31.0911 126.823 31.5469 126.484 31.9375C126.146 32.3229 125.732 32.6224 125.242 32.8359C124.753 33.0495 124.193 33.1562 123.562 33.1562C122.938 33.1562 122.378 33.0495 121.883 32.8359C121.388 32.6224 120.971 32.3229 120.633 31.9375C120.294 31.5469 120.036 31.0911 119.859 30.5703C119.682 30.0443 119.594 29.474 119.594 28.8594ZM121.656 28.6953V28.8594C121.656 29.2292 121.693 29.5755 121.766 29.8984C121.839 30.2214 121.951 30.5052 122.102 30.75C122.253 30.9948 122.448 31.1875 122.688 31.3281C122.932 31.4635 123.224 31.5312 123.562 31.5312C123.896 31.5312 124.182 31.4635 124.422 31.3281C124.661 31.1875 124.857 30.9948 125.008 30.75C125.164 30.5052 125.279 30.2214 125.352 29.8984C125.424 29.5755 125.461 29.2292 125.461 28.8594V28.6953C125.461 28.3307 125.424 27.9896 125.352 27.6719C125.279 27.349 125.164 27.0651 125.008 26.8203C124.857 26.5703 124.659 26.375 124.414 26.2344C124.174 26.0885 123.885 26.0156 123.547 26.0156C123.214 26.0156 122.927 26.0885 122.688 26.2344C122.448 26.375 122.253 26.5703 122.102 26.8203C121.951 27.0651 121.839 27.349 121.766 27.6719C121.693 27.9896 121.656 28.3307 121.656 28.6953ZM134.258 20.8359H135.93C135.93 21.2786 135.872 21.651 135.758 21.9531C135.643 22.25 135.466 22.5 135.227 22.7031C134.987 22.901 134.68 23.0651 134.305 23.1953C133.93 23.3255 133.482 23.4401 132.961 23.5391C132.523 23.6276 132.138 23.7734 131.805 23.9766C131.471 24.1797 131.193 24.4583 130.969 24.8125C130.75 25.1667 130.591 25.6172 130.492 26.1641C130.393 26.7109 130.362 27.3698 130.398 28.1406V28.5938L128.781 28.7812V28.3281C128.781 27.3229 128.872 26.4479 129.055 25.7031C129.237 24.9531 129.495 24.3229 129.828 23.8125C130.161 23.2969 130.56 22.888 131.023 22.5859C131.492 22.2786 132.016 22.0625 132.594 21.9375C132.979 21.8594 133.294 21.7786 133.539 21.6953C133.789 21.612 133.971 21.5052 134.086 21.375C134.201 21.2396 134.258 21.0599 134.258 20.8359ZM133.102 25.0234C133.669 25.0234 134.172 25.1224 134.609 25.3203C135.052 25.513 135.424 25.7865 135.727 26.1406C136.029 26.4896 136.258 26.9036 136.414 27.3828C136.576 27.8568 136.656 28.375 136.656 28.9375V29.1016C136.656 29.6849 136.568 30.224 136.391 30.7188C136.219 31.2135 135.966 31.6432 135.633 32.0078C135.299 32.3724 134.888 32.6562 134.398 32.8594C133.909 33.0625 133.349 33.1641 132.719 33.1641C132.094 33.1641 131.536 33.0573 131.047 32.8438C130.557 32.625 130.143 32.3229 129.805 31.9375C129.466 31.5521 129.211 31.099 129.039 30.5781C128.867 30.0521 128.781 29.4792 128.781 28.8594V28.6953C128.776 28.5911 128.81 28.4922 128.883 28.3984C128.956 28.3047 129.042 28.2005 129.141 28.0859C129.245 27.9714 129.339 27.8333 129.422 27.6719C129.708 27.1198 130.031 26.6458 130.391 26.25C130.755 25.8542 131.161 25.5521 131.609 25.3438C132.057 25.1302 132.555 25.0234 133.102 25.0234ZM132.703 26.6484C132.26 26.6484 131.901 26.7552 131.625 26.9688C131.354 27.1771 131.156 27.4557 131.031 27.8047C130.906 28.1484 130.844 28.526 130.844 28.9375V29.1016C130.844 29.4349 130.878 29.75 130.945 30.0469C131.018 30.3385 131.128 30.5964 131.273 30.8203C131.419 31.0443 131.612 31.2214 131.852 31.3516C132.091 31.4766 132.38 31.5391 132.719 31.5391C133.057 31.5391 133.344 31.4766 133.578 31.3516C133.818 31.2214 134.01 31.0443 134.156 30.8203C134.302 30.5964 134.409 30.3385 134.477 30.0469C134.549 29.75 134.586 29.4349 134.586 29.1016V28.9375C134.586 28.6302 134.549 28.3385 134.477 28.0625C134.409 27.7865 134.302 27.5443 134.156 27.3359C134.01 27.1224 133.815 26.9557 133.57 26.8359C133.331 26.7109 133.042 26.6484 132.703 26.6484ZM142.742 31.2031V27.3047C142.742 27.0182 142.693 26.7708 142.594 26.5625C142.495 26.3542 142.344 26.1927 142.141 26.0781C141.938 25.9635 141.68 25.9062 141.367 25.9062C141.091 25.9062 140.849 25.9531 140.641 26.0469C140.438 26.1406 140.281 26.2734 140.172 26.4453C140.062 26.612 140.008 26.8047 140.008 27.0234H137.938C137.938 26.6745 138.021 26.3438 138.188 26.0312C138.354 25.7135 138.591 25.4323 138.898 25.1875C139.211 24.9375 139.583 24.7422 140.016 24.6016C140.453 24.4609 140.943 24.3906 141.484 24.3906C142.125 24.3906 142.695 24.5 143.195 24.7188C143.701 24.9323 144.096 25.2552 144.383 25.6875C144.674 26.1198 144.82 26.6641 144.82 27.3203V31.0078C144.82 31.4297 144.846 31.7917 144.898 32.0938C144.956 32.3906 145.039 32.6484 145.148 32.8672V33H143.047C142.948 32.7865 142.872 32.5156 142.82 32.1875C142.768 31.8542 142.742 31.526 142.742 31.2031ZM143.031 27.8516L143.047 29.0781H141.742C141.419 29.0781 141.135 29.112 140.891 29.1797C140.646 29.2422 140.445 29.3359 140.289 29.4609C140.133 29.5807 140.016 29.7266 139.938 29.8984C139.859 30.0651 139.82 30.2552 139.82 30.4688C139.82 30.6771 139.867 30.8646 139.961 31.0312C140.06 31.1979 140.201 31.3307 140.383 31.4297C140.57 31.5234 140.789 31.5703 141.039 31.5703C141.404 31.5703 141.721 31.4974 141.992 31.3516C142.263 31.2005 142.474 31.0182 142.625 30.8047C142.776 30.5911 142.857 30.388 142.867 30.1953L143.461 31.0859C143.388 31.2995 143.279 31.526 143.133 31.7656C142.987 32.0052 142.799 32.2292 142.57 32.4375C142.341 32.6458 142.065 32.8177 141.742 32.9531C141.419 33.0885 141.044 33.1562 140.617 33.1562C140.07 33.1562 139.581 33.0469 139.148 32.8281C138.716 32.6094 138.375 32.3099 138.125 31.9297C137.875 31.5495 137.75 31.1172 137.75 30.6328C137.75 30.1849 137.833 29.7891 138 29.4453C138.167 29.1016 138.414 28.8125 138.742 28.5781C139.07 28.3385 139.477 28.1589 139.961 28.0391C140.451 27.9141 141.01 27.8516 141.641 27.8516H143.031ZM150.836 29.4219H148.156L148.141 28.0234H150.344C150.672 28.0234 150.94 27.9896 151.148 27.9219C151.357 27.8542 151.51 27.7526 151.609 27.6172C151.714 27.4818 151.766 27.3177 151.766 27.125C151.766 26.9583 151.734 26.8151 151.672 26.6953C151.609 26.5703 151.516 26.4688 151.391 26.3906C151.271 26.3125 151.117 26.2552 150.93 26.2188C150.747 26.1771 150.534 26.1562 150.289 26.1562H148.891V33H146.82V24.5469H150.289C150.836 24.5469 151.328 24.5964 151.766 24.6953C152.203 24.7891 152.576 24.9323 152.883 25.125C153.19 25.3177 153.424 25.5625 153.586 25.8594C153.753 26.151 153.836 26.4948 153.836 26.8906C153.836 27.151 153.779 27.3958 153.664 27.625C153.549 27.8542 153.38 28.0573 153.156 28.2344C152.932 28.4115 152.656 28.5573 152.328 28.6719C152 28.7812 151.625 28.849 151.203 28.875L150.836 29.4219ZM150.836 33H147.602L148.367 31.3906H150.836C151.138 31.3906 151.388 31.3542 151.586 31.2812C151.784 31.2031 151.93 31.0911 152.023 30.9453C152.122 30.7995 152.172 30.6224 152.172 30.4141C152.172 30.2109 152.125 30.0365 152.031 29.8906C151.943 29.7396 151.799 29.625 151.602 29.5469C151.409 29.4635 151.154 29.4219 150.836 29.4219H148.703L148.719 28.0234H151.195L151.742 28.5781C152.305 28.6146 152.771 28.7292 153.141 28.9219C153.51 29.1094 153.786 29.349 153.969 29.6406C154.151 29.9271 154.242 30.2422 154.242 30.5859C154.242 30.987 154.167 31.3385 154.016 31.6406C153.865 31.9427 153.643 32.1953 153.352 32.3984C153.06 32.5964 152.703 32.7474 152.281 32.8516C151.859 32.9505 151.378 33 150.836 33ZM157.828 30.0547L160.906 24.5469H162.977V33H160.906V27.4844L157.828 33H155.758V24.5469H157.828V30.0547ZM168.953 24.5469V33H166.883V24.5469H168.953ZM171.703 24.5469V26.1562H164.18V24.5469H171.703ZM174.383 27.1484H176.852C177.602 27.1484 178.24 27.2734 178.766 27.5234C179.297 27.7682 179.701 28.112 179.977 28.5547C180.258 28.9922 180.398 29.5 180.398 30.0781C180.398 30.4948 180.318 30.8828 180.156 31.2422C180 31.5964 179.771 31.9062 179.469 32.1719C179.167 32.4323 178.794 32.6354 178.352 32.7812C177.914 32.9271 177.414 33 176.852 33H173.055V24.5469H175.125V31.3828H176.852C177.211 31.3828 177.497 31.3229 177.711 31.2031C177.93 31.0781 178.086 30.9193 178.18 30.7266C178.279 30.5286 178.328 30.3177 178.328 30.0938C178.328 29.8646 178.279 29.651 178.18 29.4531C178.086 29.25 177.93 29.0859 177.711 28.9609C177.497 28.8359 177.211 28.7734 176.852 28.7734H174.383V27.1484ZM189.93 29.4219H187.25L187.234 28.0234H189.438C189.766 28.0234 190.034 27.9896 190.242 27.9219C190.451 27.8542 190.604 27.7526 190.703 27.6172C190.807 27.4818 190.859 27.3177 190.859 27.125C190.859 26.9583 190.828 26.8151 190.766 26.6953C190.703 26.5703 190.609 26.4688 190.484 26.3906C190.365 26.3125 190.211 26.2552 190.023 26.2188C189.841 26.1771 189.628 26.1562 189.383 26.1562H187.984V33H185.914V24.5469H189.383C189.93 24.5469 190.422 24.5964 190.859 24.6953C191.297 24.7891 191.669 24.9323 191.977 25.125C192.284 25.3177 192.518 25.5625 192.68 25.8594C192.846 26.151 192.93 26.4948 192.93 26.8906C192.93 27.151 192.872 27.3958 192.758 27.625C192.643 27.8542 192.474 28.0573 192.25 28.2344C192.026 28.4115 191.75 28.5573 191.422 28.6719C191.094 28.7812 190.719 28.849 190.297 28.875L189.93 29.4219ZM189.93 33H186.695L187.461 31.3906H189.93C190.232 31.3906 190.482 31.3542 190.68 31.2812C190.878 31.2031 191.023 31.0911 191.117 30.9453C191.216 30.7995 191.266 30.6224 191.266 30.4141C191.266 30.2109 191.219 30.0365 191.125 29.8906C191.036 29.7396 190.893 29.625 190.695 29.5469C190.503 29.4635 190.247 29.4219 189.93 29.4219H187.797L187.812 28.0234H190.289L190.836 28.5781C191.398 28.6146 191.865 28.7292 192.234 28.9219C192.604 29.1094 192.88 29.349 193.062 29.6406C193.245 29.9271 193.336 30.2422 193.336 30.5859C193.336 30.987 193.26 31.3385 193.109 31.6406C192.958 31.9427 192.737 32.1953 192.445 32.3984C192.154 32.5964 191.797 32.7474 191.375 32.8516C190.953 32.9505 190.471 33 189.93 33ZM201.023 24.5469V33H198.961V24.5469H201.023ZM206.531 24.5469L202.805 29.7344H200.609L200.352 27.8438H201.875L203.93 24.5469H206.531ZM204.055 33L201.742 29.375L203.461 28.2969L206.797 33H204.055ZM207.062 28.8594V28.6953C207.062 28.0755 207.151 27.5052 207.328 26.9844C207.505 26.4583 207.763 26.0026 208.102 25.6172C208.44 25.2318 208.854 24.9323 209.344 24.7188C209.833 24.5 210.391 24.3906 211.016 24.3906C211.651 24.3906 212.214 24.5 212.703 24.7188C213.198 24.9323 213.615 25.2318 213.953 25.6172C214.292 26.0026 214.549 26.4583 214.727 26.9844C214.904 27.5052 214.992 28.0755 214.992 28.6953V28.8594C214.992 29.474 214.904 30.0443 214.727 30.5703C214.549 31.0911 214.292 31.5469 213.953 31.9375C213.615 32.3229 213.201 32.6224 212.711 32.8359C212.221 33.0495 211.661 33.1562 211.031 33.1562C210.406 33.1562 209.846 33.0495 209.352 32.8359C208.857 32.6224 208.44 32.3229 208.102 31.9375C207.763 31.5469 207.505 31.0911 207.328 30.5703C207.151 30.0443 207.062 29.474 207.062 28.8594ZM209.125 28.6953V28.8594C209.125 29.2292 209.161 29.5755 209.234 29.8984C209.307 30.2214 209.419 30.5052 209.57 30.75C209.721 30.9948 209.917 31.1875 210.156 31.3281C210.401 31.4635 210.693 31.5312 211.031 31.5312C211.365 31.5312 211.651 31.4635 211.891 31.3281C212.13 31.1875 212.326 30.9948 212.477 30.75C212.633 30.5052 212.747 30.2214 212.82 29.8984C212.893 29.5755 212.93 29.2292 212.93 28.8594V28.6953C212.93 28.3307 212.893 27.9896 212.82 27.6719C212.747 27.349 212.633 27.0651 212.477 26.8203C212.326 26.5703 212.128 26.375 211.883 26.2344C211.643 26.0885 211.354 26.0156 211.016 26.0156C210.682 26.0156 210.396 26.0885 210.156 26.2344C209.917 26.375 209.721 26.5703 209.57 26.8203C209.419 27.0651 209.307 27.349 209.234 27.6719C209.161 27.9896 209.125 28.3307 209.125 28.6953ZM218.555 26.1719V36.25H216.484V24.5469H218.398L218.555 26.1719ZM223.984 28.6875V28.8516C223.984 29.4661 223.911 30.0365 223.766 30.5625C223.625 31.0833 223.417 31.5391 223.141 31.9297C222.865 32.3151 222.521 32.6172 222.109 32.8359C221.703 33.0495 221.234 33.1562 220.703 33.1562C220.182 33.1562 219.729 33.0573 219.344 32.8594C218.958 32.6562 218.633 32.3698 218.367 32C218.102 31.6302 217.888 31.2005 217.727 30.7109C217.57 30.2161 217.453 29.6771 217.375 29.0938V28.5703C217.453 27.9505 217.57 27.388 217.727 26.8828C217.888 26.3724 218.102 25.9323 218.367 25.5625C218.633 25.1875 218.956 24.8984 219.336 24.6953C219.721 24.4922 220.172 24.3906 220.688 24.3906C221.224 24.3906 221.695 24.4922 222.102 24.6953C222.513 24.8984 222.859 25.1901 223.141 25.5703C223.422 25.9505 223.633 26.4036 223.773 26.9297C223.914 27.4557 223.984 28.0417 223.984 28.6875ZM221.914 28.8516V28.6875C221.914 28.3125 221.88 27.9661 221.812 27.6484C221.745 27.3255 221.641 27.0443 221.5 26.8047C221.359 26.5599 221.177 26.3698 220.953 26.2344C220.729 26.099 220.458 26.0312 220.141 26.0312C219.823 26.0312 219.549 26.0833 219.32 26.1875C219.091 26.2917 218.904 26.4401 218.758 26.6328C218.612 26.8255 218.497 27.0547 218.414 27.3203C218.336 27.5807 218.284 27.8698 218.258 28.1875V29.4844C218.305 29.8698 218.396 30.2161 218.531 30.5234C218.667 30.8307 218.865 31.0755 219.125 31.2578C219.391 31.4401 219.734 31.5312 220.156 31.5312C220.474 31.5312 220.745 31.4609 220.969 31.3203C221.193 31.1797 221.375 30.987 221.516 30.7422C221.656 30.4922 221.758 30.2057 221.82 29.8828C221.883 29.5599 221.914 29.2161 221.914 28.8516ZM229.117 28.9688H227.469V27.9844H228.727C229.034 27.9844 229.279 27.9427 229.461 27.8594C229.648 27.776 229.781 27.6589 229.859 27.5078C229.943 27.3568 229.984 27.1823 229.984 26.9844C229.984 26.8073 229.945 26.6406 229.867 26.4844C229.789 26.3229 229.659 26.1927 229.477 26.0938C229.294 25.9896 229.042 25.9375 228.719 25.9375C228.453 25.9375 228.216 25.9792 228.008 26.0625C227.799 26.1458 227.635 26.263 227.516 26.4141C227.396 26.5651 227.336 26.7448 227.336 26.9531H225.266C225.266 26.4219 225.417 25.9661 225.719 25.5859C226.026 25.2057 226.435 24.9141 226.945 24.7109C227.456 24.5026 228.016 24.3984 228.625 24.3984C229.151 24.3984 229.625 24.4531 230.047 24.5625C230.469 24.6667 230.828 24.8229 231.125 25.0312C231.422 25.2396 231.651 25.4974 231.812 25.8047C231.974 26.1068 232.055 26.4583 232.055 26.8594C232.055 27.1458 231.987 27.4167 231.852 27.6719C231.716 27.9271 231.521 28.1536 231.266 28.3516C231.01 28.5443 230.701 28.6953 230.336 28.8047C229.977 28.9141 229.57 28.9688 229.117 28.9688ZM227.469 28.4062H229.117C229.622 28.4062 230.065 28.4557 230.445 28.5547C230.831 28.6484 231.154 28.7891 231.414 28.9766C231.674 29.1641 231.87 29.3958 232 29.6719C232.135 29.9427 232.203 30.2552 232.203 30.6094C232.203 31.0104 232.115 31.3698 231.938 31.6875C231.766 32 231.521 32.2656 231.203 32.4844C230.885 32.7031 230.508 32.8698 230.07 32.9844C229.633 33.099 229.151 33.1562 228.625 33.1562C228.057 33.1562 227.505 33.0625 226.969 32.875C226.438 32.6875 225.997 32.3984 225.648 32.0078C225.305 31.6172 225.133 31.1146 225.133 30.5H227.203C227.203 30.6979 227.263 30.8828 227.383 31.0547C227.503 31.2266 227.674 31.3646 227.898 31.4688C228.128 31.5677 228.404 31.6172 228.727 31.6172C229.055 31.6172 229.323 31.5651 229.531 31.4609C229.74 31.3568 229.891 31.2188 229.984 31.0469C230.083 30.8698 230.133 30.6849 230.133 30.4922C230.133 30.2266 230.081 30.013 229.977 29.8516C229.878 29.6849 229.721 29.5625 229.508 29.4844C229.299 29.4062 229.039 29.3672 228.727 29.3672H227.469V28.4062ZM235.781 30.0547L238.859 24.5469H240.93V33H238.859V27.4844L235.781 33H233.711V24.5469H235.781V30.0547ZM248.578 28.0156V29.6328H244.242V28.0156H248.578ZM244.891 24.5469V33H242.82V24.5469H244.891ZM250.023 24.5469V33H247.945V24.5469H250.023ZM254.375 32.0625L256.641 24.5469H258.852L255.461 34.2812C255.383 34.4896 255.281 34.7161 255.156 34.9609C255.036 35.2057 254.875 35.4375 254.672 35.6562C254.469 35.8802 254.214 36.0625 253.906 36.2031C253.604 36.3438 253.237 36.4141 252.805 36.4141C252.617 36.4141 252.451 36.401 252.305 36.375C252.159 36.349 252.005 36.3151 251.844 36.2734V34.7266C251.896 34.7318 251.956 34.7344 252.023 34.7344C252.096 34.7396 252.159 34.7422 252.211 34.7422C252.513 34.7422 252.763 34.7057 252.961 34.6328C253.159 34.5651 253.318 34.4531 253.438 34.2969C253.562 34.1458 253.667 33.9479 253.75 33.7031L254.375 32.0625ZM253.258 24.5469L255.172 30.7734L255.508 32.9531L254.086 33.2109L251.031 24.5469H253.258Z" fill="white"/>
</svg>
