<svg width="29" height="11" viewBox="0 0 29 11" fill="none" xmlns="http://www.w3.org/2000/svg">
<path d="M6.86328 8.77734V10.0898H0.191406V8.96191L3.43164 5.42773C3.78711 5.02669 4.06738 4.68034 4.27246 4.38867C4.47754 4.09701 4.62109 3.83496 4.70312 3.60254C4.78971 3.36556 4.83301 3.13542 4.83301 2.91211C4.83301 2.59766 4.77376 2.32194 4.65527 2.08496C4.54134 1.84342 4.37272 1.6543 4.14941 1.51758C3.92611 1.3763 3.65495 1.30566 3.33594 1.30566C2.9668 1.30566 2.6569 1.38542 2.40625 1.54492C2.1556 1.70443 1.96647 1.92546 1.83887 2.20801C1.71126 2.486 1.64746 2.80501 1.64746 3.16504H0C0 2.58626 0.132161 2.05762 0.396484 1.5791C0.660807 1.09603 1.04362 0.713216 1.54492 0.430664C2.04622 0.143555 2.65007 0 3.35645 0C4.02181 0 4.58691 0.111654 5.05176 0.334961C5.5166 0.558268 5.86979 0.875 6.11133 1.28516C6.35742 1.69531 6.48047 2.18066 6.48047 2.74121C6.48047 3.05111 6.43034 3.35872 6.33008 3.66406C6.22982 3.9694 6.08626 4.27474 5.89941 4.58008C5.71712 4.88086 5.50065 5.18392 5.25 5.48926C4.99935 5.79004 4.72363 6.09538 4.42285 6.40527L2.26953 8.77734H6.86328ZM16.0508 5.00391V8.80469C15.9095 8.99154 15.6885 9.19661 15.3877 9.41992C15.0915 9.63867 14.6973 9.8278 14.2051 9.9873C13.7129 10.1468 13.0999 10.2266 12.3662 10.2266C11.7419 10.2266 11.1699 10.1217 10.6504 9.91211C10.1309 9.69792 9.68197 9.38574 9.30371 8.97559C8.93001 8.56543 8.64062 8.06641 8.43555 7.47852C8.23047 6.88607 8.12793 6.21159 8.12793 5.45508V4.76465C8.12793 4.0127 8.22135 3.34277 8.4082 2.75488C8.59961 2.16243 8.87305 1.66113 9.22852 1.25098C9.58398 0.84082 10.0124 0.530924 10.5137 0.321289C11.0195 0.107096 11.5915 0 12.2295 0C13.0452 0 13.7197 0.136719 14.2529 0.410156C14.7907 0.679036 15.2054 1.05273 15.4971 1.53125C15.7887 2.00977 15.9733 2.55664 16.0508 3.17188H14.3691C14.3145 2.82552 14.2074 2.51562 14.0479 2.24219C13.8929 1.96875 13.6696 1.75456 13.3779 1.59961C13.0908 1.4401 12.7171 1.36035 12.2568 1.36035C11.8604 1.36035 11.5117 1.43555 11.2109 1.58594C10.9102 1.73633 10.6595 1.95736 10.459 2.24902C10.263 2.54069 10.1149 2.89616 10.0146 3.31543C9.91439 3.7347 9.86426 4.21322 9.86426 4.75098V5.45508C9.86426 6.00195 9.92122 6.4873 10.0352 6.91113C10.1536 7.33496 10.3223 7.69271 10.541 7.98438C10.7643 8.27604 11.0355 8.49707 11.3545 8.64746C11.6735 8.79329 12.0335 8.86621 12.4346 8.86621C12.8265 8.86621 13.1478 8.83431 13.3984 8.77051C13.6491 8.70215 13.8473 8.6224 13.9932 8.53125C14.1436 8.43555 14.2598 8.3444 14.3418 8.25781V6.28223H12.2705V5.00391H16.0508ZM19.7832 0.136719V10.0898H18.0674V0.136719H19.7832ZM27.1523 7.52637C27.1523 7.32129 27.1204 7.139 27.0566 6.97949C26.9974 6.81999 26.8903 6.67415 26.7354 6.54199C26.5804 6.40983 26.3617 6.28223 26.0791 6.15918C25.8011 6.03158 25.4456 5.90169 25.0127 5.76953C24.5387 5.6237 24.1012 5.46191 23.7002 5.28418C23.3037 5.10189 22.9574 4.89225 22.6611 4.65527C22.3649 4.41374 22.1348 4.13802 21.9707 3.82812C21.8066 3.51367 21.7246 3.15137 21.7246 2.74121C21.7246 2.33561 21.8089 1.96647 21.9775 1.63379C22.1507 1.30111 22.3945 1.014 22.709 0.772461C23.028 0.526367 23.404 0.33724 23.8369 0.205078C24.2699 0.0683594 24.7484 0 25.2725 0C26.0107 0 26.6465 0.136719 27.1797 0.410156C27.7174 0.683594 28.1299 1.05046 28.417 1.51074C28.7087 1.97103 28.8545 2.47917 28.8545 3.03516H27.1523C27.1523 2.70703 27.0817 2.41764 26.9404 2.16699C26.8037 1.91178 26.5941 1.71126 26.3115 1.56543C26.0335 1.4196 25.6803 1.34668 25.252 1.34668C24.8464 1.34668 24.5091 1.4082 24.2402 1.53125C23.9714 1.6543 23.7708 1.82064 23.6387 2.03027C23.5065 2.23991 23.4404 2.47689 23.4404 2.74121C23.4404 2.92806 23.4837 3.09896 23.5703 3.25391C23.6569 3.4043 23.7891 3.54557 23.9668 3.67773C24.1445 3.80534 24.3678 3.92611 24.6367 4.04004C24.9056 4.15397 25.2223 4.26335 25.5869 4.36816C26.1383 4.53223 26.6191 4.71452 27.0293 4.91504C27.4395 5.111 27.7812 5.33431 28.0547 5.58496C28.3281 5.83561 28.5332 6.12044 28.6699 6.43945C28.8066 6.75391 28.875 7.11165 28.875 7.5127C28.875 7.93197 28.7907 8.31022 28.6221 8.64746C28.4535 8.98014 28.2119 9.26497 27.8975 9.50195C27.5876 9.73438 27.2139 9.91439 26.7764 10.042C26.3434 10.165 25.8604 10.2266 25.3271 10.2266C24.8486 10.2266 24.377 10.1628 23.9121 10.0352C23.4518 9.90755 23.0326 9.71387 22.6543 9.4541C22.276 9.18978 21.9753 8.86165 21.752 8.46973C21.5286 8.07324 21.417 7.61068 21.417 7.08203H23.1328C23.1328 7.4056 23.1875 7.68132 23.2969 7.90918C23.4108 8.13704 23.568 8.32389 23.7686 8.46973C23.9691 8.611 24.2015 8.71582 24.4658 8.78418C24.7347 8.85254 25.0218 8.88672 25.3271 8.88672C25.7282 8.88672 26.0632 8.82975 26.332 8.71582C26.6055 8.60189 26.8105 8.44238 26.9473 8.2373C27.084 8.03223 27.1523 7.79525 27.1523 7.52637Z" fill="#FF0505"/>
</svg>
