<svg width="22" height="22" viewBox="0 0 22 22" fill="none" xmlns="http://www.w3.org/2000/svg">
<path d="M7.08523 1.05795C6.75439 0.25877 5.88216 -0.166602 5.04861 0.0611224L1.26752 1.09233C0.519899 1.29857 0 1.97744 0 2.75085C0 13.3808 8.61915 22 19.2492 22C20.0226 22 20.7014 21.4801 20.9077 20.7325L21.9389 16.9514C22.1666 16.1178 21.7412 15.2456 20.942 14.9148L16.8172 13.1961C16.1169 12.9039 15.3048 13.1059 14.8279 13.6945L13.092 15.8128C10.0671 14.382 7.61802 11.9329 6.18723 8.908L8.30549 7.17643C8.89414 6.69521 9.09608 5.88743 8.80391 5.18707L7.08523 1.06225V1.05795Z" fill="#FF0505"/>
</svg>
