<svg width="107" height="33" viewBox="0 0 107 33" fill="none" xmlns="http://www.w3.org/2000/svg">
<path d="M0 4C0 1.79086 1.79086 0 4 0H103C105.209 0 107 1.79086 107 4V29C107 31.2091 105.209 33 103 33H4C1.79086 33 0 31.2091 0 29V4Z" fill="#FF0505"/>
<path d="M28.8136 15.1293H27.2624C27.2028 14.7978 27.0917 14.5062 26.9293 14.2543C26.7669 14.0024 26.5681 13.7886 26.3327 13.6129C26.0974 13.4373 25.8339 13.3047 25.5423 13.2152C25.2539 13.1257 24.9473 13.081 24.6225 13.081C24.0359 13.081 23.5105 13.2285 23.0465 13.5234C22.5858 13.8184 22.2212 14.2509 21.9528 14.821C21.6876 15.3911 21.555 16.0871 21.555 16.9091C21.555 17.7377 21.6876 18.437 21.9528 19.0071C22.2212 19.5772 22.5875 20.008 23.0515 20.2997C23.5155 20.5914 24.0375 20.7372 24.6175 20.7372C24.939 20.7372 25.244 20.6941 25.5323 20.608C25.824 20.5185 26.0875 20.3875 26.3228 20.2152C26.5581 20.0429 26.757 19.8324 26.9194 19.5838C27.0851 19.3319 27.1995 19.0436 27.2624 18.7188L28.8136 18.7237C28.7307 19.2242 28.57 19.6849 28.3313 20.1058C28.096 20.5234 27.7927 20.8847 27.4215 21.1896C27.0536 21.4912 26.6327 21.7249 26.1587 21.8906C25.6848 22.0563 25.1677 22.1392 24.6076 22.1392C23.726 22.1392 22.9405 21.9304 22.2511 21.5128C21.5617 21.0919 21.0181 20.4903 20.6204 19.7081C20.226 18.9259 20.0288 17.9929 20.0288 16.9091C20.0288 15.822 20.2276 14.889 20.6254 14.1101C21.0231 13.3279 21.5666 12.728 22.256 12.3104C22.9454 11.8894 23.7293 11.679 24.6076 11.679C25.1478 11.679 25.6516 11.7569 26.119 11.9126C26.5896 12.0651 27.0122 12.2905 27.3867 12.5888C27.7612 12.8838 28.0711 13.245 28.3164 13.6726C28.5617 14.0968 28.7274 14.5824 28.8136 15.1293ZM34.818 20.1605L37.2839 14.3636H38.5666L35.3699 22H34.2662L31.1341 14.3636H32.4018L34.818 20.1605ZM31.9892 14.3636V22H30.5325V14.3636H31.9892ZM37.6866 22V14.3636H39.1333V22H37.6866ZM44.3311 22.1541C43.6152 22.1541 42.9905 21.9901 42.4569 21.6619C41.9232 21.3338 41.5089 20.8748 41.214 20.2848C40.919 19.6948 40.7715 19.0054 40.7715 18.2166C40.7715 17.4245 40.919 16.7318 41.214 16.1385C41.5089 15.5452 41.9232 15.0845 42.4569 14.7564C42.9905 14.4283 43.6152 14.2642 44.3311 14.2642C45.0471 14.2642 45.6718 14.4283 46.2054 14.7564C46.7391 15.0845 47.1533 15.5452 47.4483 16.1385C47.7433 16.7318 47.8908 17.4245 47.8908 18.2166C47.8908 19.0054 47.7433 19.6948 47.4483 20.2848C47.1533 20.8748 46.7391 21.3338 46.2054 21.6619C45.6718 21.9901 45.0471 22.1541 44.3311 22.1541ZM44.3361 20.9062C44.8001 20.9062 45.1846 20.7836 45.4895 20.5384C45.7944 20.2931 46.0198 19.9666 46.1657 19.5589C46.3148 19.1513 46.3894 18.7022 46.3894 18.2116C46.3894 17.7244 46.3148 17.277 46.1657 16.8693C46.0198 16.4583 45.7944 16.1286 45.4895 15.88C45.1846 15.6314 44.8001 15.5071 44.3361 15.5071C43.8688 15.5071 43.481 15.6314 43.1728 15.88C42.8678 16.1286 42.6408 16.4583 42.4917 16.8693C42.3458 17.277 42.2729 17.7244 42.2729 18.2116C42.2729 18.7022 42.3458 19.1513 42.4917 19.5589C42.6408 19.9666 42.8678 20.2931 43.1728 20.5384C43.481 20.7836 43.8688 20.9062 44.3361 20.9062ZM48.6303 15.6463V14.3636H55.0735V15.6463H52.5827V22H51.131V15.6463H48.6303ZM56.6458 24.8636V14.3636H58.0975V15.6016H58.2218C58.3079 15.4425 58.4322 15.2585 58.5946 15.0497C58.757 14.8409 58.9824 14.6586 59.2708 14.5028C59.5591 14.3438 59.9403 14.2642 60.4142 14.2642C61.0307 14.2642 61.5809 14.42 62.0648 14.7315C62.5487 15.0431 62.9282 15.4922 63.2033 16.0788C63.4817 16.6655 63.6209 17.3714 63.6209 18.1967C63.6209 19.022 63.4834 19.7296 63.2083 20.3196C62.9332 20.9062 62.5553 21.3587 62.0748 21.6768C61.5942 21.9917 61.0456 22.1491 60.4292 22.1491C59.9651 22.1491 59.5856 22.0713 59.2907 21.9155C58.999 21.7597 58.7703 21.5774 58.6046 21.3686C58.4389 21.1598 58.3113 20.9742 58.2218 20.8118H58.1323V24.8636H56.6458ZM58.1025 18.1818C58.1025 18.7187 58.1803 19.1894 58.3361 19.5938C58.4919 19.9981 58.7173 20.3146 59.0123 20.5433C59.3072 20.7687 59.6685 20.8814 60.0961 20.8814C60.5402 20.8814 60.9114 20.7637 61.2097 20.5284C61.508 20.2898 61.7334 19.9666 61.8858 19.5589C62.0416 19.1513 62.1195 18.6922 62.1195 18.1818C62.1195 17.678 62.0433 17.2256 61.8908 16.8246C61.7417 16.4235 61.5163 16.107 61.2147 15.875C60.9164 15.643 60.5435 15.527 60.0961 15.527C59.6652 15.527 59.3006 15.638 59.0023 15.8601C58.7073 16.0821 58.4836 16.392 58.3311 16.7898C58.1787 17.1875 58.1025 17.6515 58.1025 18.1818ZM68.5776 22.1541C67.8252 22.1541 67.1773 21.9934 66.6337 21.6719C66.0935 21.3471 65.6758 20.8913 65.3809 20.3047C65.0892 19.7147 64.9434 19.0237 64.9434 18.2315C64.9434 17.4493 65.0892 16.7599 65.3809 16.1634C65.6758 15.5668 66.0868 15.1011 66.6138 14.7663C67.1441 14.4316 67.7639 14.2642 68.4732 14.2642C68.9041 14.2642 69.3217 14.3355 69.726 14.478C70.1304 14.6205 70.4933 14.8442 70.8148 15.1491C71.1363 15.4541 71.3899 15.8501 71.5755 16.3374C71.7611 16.8213 71.8539 17.4096 71.8539 18.1023V18.6293H65.7836V17.5156H70.3972C70.3972 17.1245 70.3176 16.7782 70.1586 16.4766C69.9995 16.1716 69.7757 15.9313 69.4874 15.7557C69.2024 15.58 68.8676 15.4922 68.4831 15.4922C68.0655 15.4922 67.7009 15.5949 67.3894 15.8004C67.0811 16.0026 66.8425 16.2678 66.6735 16.5959C66.5078 16.9207 66.4249 17.2737 66.4249 17.6548V18.5249C66.4249 19.0353 66.5144 19.4695 66.6934 19.8274C66.8757 20.1854 67.1292 20.4588 67.454 20.6477C67.7788 20.8333 68.1583 20.9261 68.5925 20.9261C68.8742 20.9261 69.1311 20.8864 69.3631 20.8068C69.5951 20.724 69.7956 20.6013 69.9647 20.4389C70.1337 20.2765 70.263 20.076 70.3525 19.8374L71.7594 20.0909C71.6467 20.5052 71.4445 20.8681 71.1529 21.1797C70.8645 21.4879 70.5016 21.7282 70.0641 21.9006C69.6299 22.0696 69.1344 22.1541 68.5776 22.1541ZM72.8295 15.6463V14.3636H79.2727V15.6463H76.782V22H75.3303V15.6463H72.8295ZM81.9636 16.9886H84.1809C85.1156 16.9886 85.8348 17.2206 86.3386 17.6847C86.8424 18.1487 87.0943 18.7469 87.0943 19.4794C87.0943 19.9567 86.9816 20.3859 86.7562 20.767C86.5308 21.1482 86.2011 21.4498 85.7669 21.6719C85.3327 21.8906 84.804 22 84.1809 22H80.845V14.3636H82.3017V20.7173H84.1809C84.6085 20.7173 84.9598 20.6063 85.2349 20.3842C85.51 20.1589 85.6475 19.8722 85.6475 19.5241C85.6475 19.1562 85.51 18.8563 85.2349 18.6243C84.9598 18.389 84.6085 18.2713 84.1809 18.2713H81.9636V16.9886Z" fill="#FAFAFA"/>
</svg>
