<svg width="312" height="48" viewBox="0 0 312 48" fill="none" xmlns="http://www.w3.org/2000/svg">
<rect x="1" y="1" width="310" height="46" rx="9" stroke="#FAFAFA" stroke-width="2"/>
<path d="M25.2344 14.9375V32H22.3047V17.2812H14.7227V32H11.793V14.9375H25.2344ZM40.3281 24.8516V25.5078C40.3281 26.5469 40.1797 27.4766 39.8828 28.2969C39.5859 29.1172 39.1641 29.8203 38.6172 30.4062C38.0781 30.9844 37.4297 31.4258 36.6719 31.7305C35.9141 32.0352 35.0781 32.1875 34.1641 32.1875C33.25 32.1875 32.4141 32.0352 31.6562 31.7305C30.8984 31.4258 30.2422 30.9844 29.6875 30.4062C29.1328 29.8203 28.7031 29.1172 28.3984 28.2969C28.1016 27.4766 27.9531 26.5469 27.9531 25.5078V24.8516C27.9531 23.8125 28.1016 22.8828 28.3984 22.0625C28.7031 21.2422 29.1289 20.5391 29.6758 19.9531C30.2227 19.3672 30.875 18.9219 31.6328 18.6172C32.3906 18.3125 33.2266 18.1602 34.1406 18.1602C35.0625 18.1602 35.8984 18.3125 36.6484 18.6172C37.4062 18.9219 38.0586 19.3672 38.6055 19.9531C39.1602 20.5391 39.5859 21.2422 39.8828 22.0625C40.1797 22.8828 40.3281 23.8125 40.3281 24.8516ZM37.5039 25.5078V24.8281C37.5039 24.1172 37.4297 23.4883 37.2812 22.9414C37.1328 22.3945 36.9102 21.9336 36.6133 21.5586C36.3242 21.1836 35.9727 20.8984 35.5586 20.7031C35.1445 20.5078 34.6719 20.4102 34.1406 20.4102C33.6172 20.4102 33.1445 20.5078 32.7227 20.7031C32.3086 20.8984 31.957 21.1836 31.668 21.5586C31.3867 21.9336 31.168 22.3945 31.0117 22.9414C30.8633 23.4883 30.7891 24.1172 30.7891 24.8281V25.5078C30.7891 26.2109 30.8633 26.8398 31.0117 27.3945C31.168 27.9414 31.3906 28.4062 31.6797 28.7891C31.9766 29.1641 32.332 29.4531 32.7461 29.6562C33.168 29.8516 33.6406 29.9492 34.1641 29.9492C34.6953 29.9492 35.1641 29.8516 35.5703 29.6562C35.9844 29.4531 36.3359 29.1641 36.625 28.7891C36.9141 28.4062 37.1328 27.9414 37.2812 27.3945C37.4297 26.8398 37.5039 26.2109 37.5039 25.5078ZM52.0469 18.3477V20.5977H45.332V18.3477H52.0469ZM54.2734 18.3477V32H51.4375V18.3477H54.2734ZM44.582 18.3477H47.418L47.1719 24.4531C47.125 25.5078 47.0391 26.4453 46.9141 27.2656C46.7969 28.0781 46.6211 28.7852 46.3867 29.3867C46.1523 29.9883 45.8516 30.4805 45.4844 30.8633C45.1172 31.2461 44.668 31.5312 44.1367 31.7188C43.6055 31.9062 42.9844 32 42.2734 32H41.6875V29.6562L42.1328 29.6094C42.4609 29.5703 42.7422 29.4883 42.9766 29.3633C43.2109 29.2383 43.4102 29.0508 43.5742 28.8008C43.7383 28.5508 43.8711 28.2227 43.9727 27.8164C44.0742 27.4102 44.1562 26.9141 44.2188 26.3281C44.2812 25.7344 44.3281 25.0312 44.3594 24.2188L44.582 18.3477ZM62.1719 26.4688L65.3359 18.3477H68.418L63.6602 28.9297C63.3867 29.5312 63.0859 30.0859 62.7578 30.5938C62.4297 31.0938 62.0078 31.4922 61.4922 31.7891C60.9766 32.0859 60.293 32.2344 59.4414 32.2344C59.2539 32.2344 59.0312 32.2266 58.7734 32.2109C58.5234 32.2031 58.3477 32.1914 58.2461 32.1758L58.2695 29.9492C58.3555 29.9648 58.5117 29.9766 58.7383 29.9844C58.9727 29.9922 59.1445 29.9961 59.2539 29.9961C59.6602 29.9961 59.9844 29.918 60.2266 29.7617C60.4766 29.6055 60.6797 29.3984 60.8359 29.1406C61 28.8828 61.1523 28.6016 61.293 28.2969L62.1719 26.4688ZM59.1484 18.3477L62.2539 25.2617L63.332 28.4727L61.3047 29.3164L56.0195 18.3477H59.1484ZM80.8281 18.3477V32H77.9922V18.3477H80.8281ZM79.0352 24.3594V26.5859C78.6992 26.7344 78.3047 26.8711 77.8516 26.9961C77.4062 27.1133 76.9336 27.2109 76.4336 27.2891C75.9414 27.3672 75.457 27.4062 74.9805 27.4062C73.8242 27.4062 72.8203 27.2422 71.9688 26.9141C71.125 26.5781 70.4727 26.043 70.0117 25.3086C69.5586 24.5742 69.332 23.6133 69.332 22.4258V18.3477H72.168V22.4258C72.168 23.0977 72.2695 23.6328 72.4727 24.0312C72.6836 24.4219 72.9961 24.707 73.4102 24.8867C73.832 25.0664 74.3555 25.1562 74.9805 25.1562C75.4648 25.1562 75.9336 25.1211 76.3867 25.0508C76.8477 24.9805 77.2969 24.8867 77.7344 24.7695C78.1797 24.6523 78.6133 24.5156 79.0352 24.3594ZM84.3438 30.8984L92.6523 18.3477L94.7148 19.4492L86.418 32L84.3438 30.8984ZM92.6523 18.3477H95.4883V32H92.6523V18.3477ZM83.5938 18.3477H86.418V32H83.5938V18.3477ZM104.605 18.3477V32H101.781V18.3477H104.605ZM109.152 18.3477V20.5977H97.293V18.3477H109.152ZM116.664 23.0938C117.789 23.0938 118.754 23.2812 119.559 23.6562C120.371 24.0234 120.996 24.5391 121.434 25.2031C121.871 25.8594 122.09 26.6289 122.09 27.5117C122.09 28.3867 121.871 29.1641 121.434 29.8438C120.996 30.5156 120.371 31.043 119.559 31.4258C118.754 31.8086 117.789 32 116.664 32H110.992V18.3477H113.816V29.75H116.664C117.547 29.75 118.199 29.5234 118.621 29.0703C119.051 28.6094 119.266 28.082 119.266 27.4883C119.266 27.0977 119.172 26.7422 118.984 26.4219C118.797 26.1016 118.512 25.8438 118.129 25.6484C117.746 25.4453 117.258 25.3438 116.664 25.3438H112.867V23.0938H116.664ZM133.023 18.3477V32H130.188V18.3477H133.023ZM141.168 18.3477L135.59 26.4688H132.367L131.992 23.9727H134.266L137.863 18.3477H141.168ZM138.051 32L134.008 25.9883L136 24.1953L141.566 32H138.051ZM154.938 24.8516V25.5078C154.938 26.5469 154.789 27.4766 154.492 28.2969C154.195 29.1172 153.773 29.8203 153.227 30.4062C152.688 30.9844 152.039 31.4258 151.281 31.7305C150.523 32.0352 149.688 32.1875 148.773 32.1875C147.859 32.1875 147.023 32.0352 146.266 31.7305C145.508 31.4258 144.852 30.9844 144.297 30.4062C143.742 29.8203 143.312 29.1172 143.008 28.2969C142.711 27.4766 142.562 26.5469 142.562 25.5078V24.8516C142.562 23.8125 142.711 22.8828 143.008 22.0625C143.312 21.2422 143.738 20.5391 144.285 19.9531C144.832 19.3672 145.484 18.9219 146.242 18.6172C147 18.3125 147.836 18.1602 148.75 18.1602C149.672 18.1602 150.508 18.3125 151.258 18.6172C152.016 18.9219 152.668 19.3672 153.215 19.9531C153.77 20.5391 154.195 21.2422 154.492 22.0625C154.789 22.8828 154.938 23.8125 154.938 24.8516ZM152.113 25.5078V24.8281C152.113 24.1172 152.039 23.4883 151.891 22.9414C151.742 22.3945 151.52 21.9336 151.223 21.5586C150.934 21.1836 150.582 20.8984 150.168 20.7031C149.754 20.5078 149.281 20.4102 148.75 20.4102C148.227 20.4102 147.754 20.5078 147.332 20.7031C146.918 20.8984 146.566 21.1836 146.277 21.5586C145.996 21.9336 145.777 22.3945 145.621 22.9414C145.473 23.4883 145.398 24.1172 145.398 24.8281V25.5078C145.398 26.2109 145.473 26.8398 145.621 27.3945C145.777 27.9414 146 28.4062 146.289 28.7891C146.586 29.1641 146.941 29.4531 147.355 29.6562C147.777 29.8516 148.25 29.9492 148.773 29.9492C149.305 29.9492 149.773 29.8516 150.18 29.6562C150.594 29.4531 150.945 29.1641 151.234 28.7891C151.523 28.4062 151.742 27.9414 151.891 27.3945C152.039 26.8398 152.113 26.2109 152.113 25.5078ZM167.02 24.1602V26.4102H159.285V24.1602H167.02ZM160.082 18.3477V32H157.258V18.3477H160.082ZM169.082 18.3477V32H166.258V18.3477H169.082ZM180.414 27.4531H183.25C183.18 28.3828 182.906 29.2031 182.43 29.9141C181.961 30.625 181.305 31.1836 180.461 31.5898C179.617 31.9883 178.598 32.1875 177.402 32.1875C176.473 32.1875 175.637 32.0352 174.895 31.7305C174.16 31.4258 173.531 30.9922 173.008 30.4297C172.492 29.8594 172.094 29.1719 171.812 28.3672C171.539 27.5547 171.402 26.6445 171.402 25.6367V24.7227C171.402 23.7148 171.543 22.8086 171.824 22.0039C172.105 21.1914 172.512 20.5 173.043 19.9297C173.574 19.3516 174.207 18.9141 174.941 18.6172C175.684 18.3125 176.516 18.1602 177.438 18.1602C178.648 18.1602 179.668 18.3672 180.496 18.7812C181.324 19.1875 181.969 19.7539 182.43 20.4805C182.891 21.207 183.168 22.0391 183.262 22.9766H180.438C180.391 22.4688 180.262 22.0234 180.051 21.6406C179.84 21.25 179.523 20.9453 179.102 20.7266C178.68 20.5078 178.125 20.3984 177.438 20.3984C176.906 20.3984 176.441 20.4922 176.043 20.6797C175.645 20.8594 175.309 21.1328 175.035 21.5C174.77 21.8672 174.566 22.3203 174.426 22.8594C174.293 23.3906 174.227 24.0078 174.227 24.7109V25.6367C174.227 26.3242 174.285 26.9375 174.402 27.4766C174.527 28.0078 174.719 28.457 174.977 28.8242C175.234 29.1914 175.562 29.4727 175.961 29.668C176.367 29.8555 176.848 29.9492 177.402 29.9492C178.066 29.9492 178.609 29.8594 179.031 29.6797C179.453 29.4922 179.777 29.2109 180.004 28.8359C180.23 28.4609 180.367 28 180.414 27.4531ZM190.492 26.4688L193.656 18.3477H196.738L191.98 28.9297C191.707 29.5312 191.406 30.0859 191.078 30.5938C190.75 31.0938 190.328 31.4922 189.812 31.7891C189.297 32.0859 188.613 32.2344 187.762 32.2344C187.574 32.2344 187.352 32.2266 187.094 32.2109C186.844 32.2031 186.668 32.1914 186.566 32.1758L186.59 29.9492C186.676 29.9648 186.832 29.9766 187.059 29.9844C187.293 29.9922 187.465 29.9961 187.574 29.9961C187.98 29.9961 188.305 29.918 188.547 29.7617C188.797 29.6055 189 29.3984 189.156 29.1406C189.32 28.8828 189.473 28.6016 189.613 28.2969L190.492 26.4688ZM187.469 18.3477L190.574 25.2617L191.652 28.4727L189.625 29.3164L184.34 18.3477H187.469ZM207.648 18.3477V20.5977H200.934V18.3477H207.648ZM209.875 18.3477V32H207.039V18.3477H209.875ZM200.184 18.3477H203.02L202.773 24.4531C202.727 25.5078 202.641 26.4453 202.516 27.2656C202.398 28.0781 202.223 28.7852 201.988 29.3867C201.754 29.9883 201.453 30.4805 201.086 30.8633C200.719 31.2461 200.27 31.5312 199.738 31.7188C199.207 31.9062 198.586 32 197.875 32H197.289V29.6562L197.734 29.6094C198.062 29.5703 198.344 29.4883 198.578 29.3633C198.812 29.2383 199.012 29.0508 199.176 28.8008C199.34 28.5508 199.473 28.2227 199.574 27.8164C199.676 27.4102 199.758 26.9141 199.82 26.3281C199.883 25.7344 199.93 25.0312 199.961 24.2188L200.184 18.3477ZM218.312 23.0938C219.438 23.0938 220.402 23.2812 221.207 23.6562C222.02 24.0234 222.645 24.5391 223.082 25.2031C223.52 25.8594 223.738 26.6289 223.738 27.5117C223.738 28.3867 223.52 29.1641 223.082 29.8438C222.645 30.5156 222.02 31.043 221.207 31.4258C220.402 31.8086 219.438 32 218.312 32H212.641V18.3477H215.465V29.75H218.312C219.195 29.75 219.848 29.5234 220.27 29.0703C220.699 28.6094 220.914 28.082 220.914 27.4883C220.914 27.0977 220.82 26.7422 220.633 26.4219C220.445 26.1016 220.16 25.8438 219.777 25.6484C219.395 25.4453 218.906 25.3438 218.312 25.3438H214.516V23.0938H218.312ZM232.223 18.3477V32H229.398V18.3477H232.223ZM236.77 18.3477V20.5977H224.91V18.3477H236.77ZM244.281 21.1484L240.18 32H237.32L242.816 18.3477H244.715L244.281 21.1484ZM248.066 32L243.941 21.125L243.508 18.3477H245.441L250.926 32H248.066ZM247.891 26.9375V29.0586H240.086V26.9375H247.891ZM266.465 29.75L266.242 35.9492H263.641V32H262.094V29.75H266.465ZM262.141 29.75V32H254.418V29.75H262.141ZM255.238 18.3477V32H252.414V18.3477H255.238ZM264.191 18.3477V32H261.355V18.3477H264.191ZM269.312 30.8984L277.621 18.3477L279.684 19.4492L271.387 32L269.312 30.8984ZM277.621 18.3477H280.457V32H277.621V18.3477ZM268.562 18.3477H271.387V32H268.562V18.3477ZM289.633 24.0781V26.3281H285.25V24.0781H289.633ZM286.035 18.3477V32H283.211V18.3477H286.035ZM300.578 24.8516V25.5078C300.578 26.5469 300.43 27.4766 300.133 28.2969C299.836 29.1172 299.414 29.8203 298.867 30.4062C298.32 30.9844 297.668 31.4258 296.91 31.7305C296.16 32.0352 295.324 32.1875 294.402 32.1875C293.488 32.1875 292.652 32.0352 291.895 31.7305C291.137 31.4258 290.48 30.9844 289.926 30.4062C289.379 29.8203 288.953 29.1172 288.648 28.2969C288.352 27.4766 288.203 26.5469 288.203 25.5078V24.8516C288.203 23.8125 288.352 22.8828 288.648 22.0625C288.945 21.2422 289.367 20.5391 289.914 19.9531C290.461 19.3672 291.113 18.9219 291.871 18.6172C292.629 18.3125 293.465 18.1602 294.379 18.1602C295.301 18.1602 296.141 18.3125 296.898 18.6172C297.656 18.9219 298.309 19.3672 298.855 19.9531C299.402 20.5391 299.824 21.2422 300.121 22.0625C300.426 22.8828 300.578 23.8125 300.578 24.8516ZM297.754 25.5078V24.8281C297.754 24.1172 297.676 23.4883 297.52 22.9414C297.371 22.3945 297.152 21.9336 296.863 21.5586C296.574 21.1836 296.219 20.8984 295.797 20.7031C295.383 20.5078 294.91 20.4102 294.379 20.4102C293.848 20.4102 293.375 20.5078 292.961 20.7031C292.547 20.8984 292.195 21.1836 291.906 21.5586C291.617 21.9336 291.395 22.3945 291.238 22.9414C291.09 23.4883 291.016 24.1172 291.016 24.8281V25.5078C291.016 26.2109 291.09 26.8398 291.238 27.3945C291.395 27.9414 291.621 28.4062 291.918 28.7891C292.215 29.1641 292.57 29.4531 292.984 29.6562C293.398 29.8516 293.871 29.9492 294.402 29.9492C294.934 29.9492 295.406 29.8516 295.82 29.6562C296.234 29.4531 296.582 29.1641 296.863 28.7891C297.152 28.4062 297.371 27.9414 297.52 27.3945C297.676 26.8398 297.754 26.2109 297.754 25.5078Z" fill="#FAFAFA"/>
</svg>
