<svg width="248" height="72" viewBox="0 0 248 72" fill="none" xmlns="http://www.w3.org/2000/svg">
<path d="M29.9703 0.00786845C30.1298 0.0645157 30.2076 0.131828 30.327 0.249426C30.3693 0.290662 30.4116 0.331899 30.4552 0.374385C30.5009 0.419901 30.5467 0.465417 30.5938 0.512312C30.6425 0.560052 30.6912 0.607791 30.7414 0.656977C30.9028 0.815307 31.0635 0.974296 31.2242 1.13328C31.3363 1.24353 31.4485 1.35373 31.5608 1.46389C31.8568 1.75456 32.1522 2.04576 32.4475 2.33711C32.9191 2.80222 33.3915 3.26654 33.8639 3.73081C34.0285 3.89271 34.1928 4.05486 34.3571 4.21705C34.4589 4.31726 34.5607 4.41746 34.6625 4.51766C34.7077 4.56241 34.7529 4.60715 34.7994 4.65325C35.0557 4.90509 35.319 5.14374 35.596 5.37369C35.7373 5.49802 35.846 5.64234 35.9646 5.78737C36.0424 5.85584 36.1213 5.92298 36.201 5.98922C36.4791 6.22485 36.7401 6.47373 36.9994 6.72879C37.0479 6.77617 37.0963 6.82355 37.1462 6.87236C37.3047 7.02745 37.4629 7.18276 37.6212 7.33807C37.732 7.44662 37.8429 7.55515 37.9537 7.66367C38.2445 7.94837 38.535 8.23325 38.8256 8.51818C39.1211 8.80799 39.4169 9.09762 39.7126 9.38727C40.1901 9.85493 40.6674 10.3227 41.1446 10.7906C41.3239 10.9664 41.5032 11.1422 41.6827 11.3177C41.7723 11.4053 41.8615 11.4933 41.9503 11.5817C41.9901 11.6213 42.03 11.6609 42.071 11.7016C42.1104 11.7409 42.1497 11.7801 42.1903 11.8205C42.3085 11.9314 42.4274 12.0336 42.5524 12.1367C43.0041 12.5227 43.4204 12.9463 43.8435 13.3618C43.9383 13.4546 44.0331 13.5474 44.1279 13.6403C44.3763 13.8835 44.6245 14.1269 44.8726 14.3704C45.125 14.618 45.3776 14.8653 45.6301 15.1127C46.0379 15.5122 46.4455 15.9118 46.853 16.3115C46.9233 16.3805 46.9936 16.4494 47.064 16.5183C47.1554 16.608 47.2464 16.698 47.3374 16.7881C47.4893 16.9386 47.4893 16.9386 47.6811 17.0905C47.8659 17.2412 48.0331 17.4011 48.2019 17.5681C48.2928 17.6573 48.3837 17.7464 48.4747 17.8355C48.5845 17.9431 48.6943 18.0507 48.8042 18.1584C49.4179 18.7598 50.0318 19.3612 50.6458 19.9624C51.0171 20.326 51.3884 20.6896 51.7595 21.0534C52.0841 21.3716 52.4089 21.6897 52.7337 22.0077C52.9053 22.1757 53.0769 22.3437 53.2483 22.5118C53.4397 22.6996 53.6314 22.8871 53.8231 23.0746C53.8791 23.1297 53.9352 23.1848 53.9929 23.2415C54.2744 23.5164 54.5597 23.7812 54.8636 24.0323C55.0264 24.1756 55.1568 24.3448 55.2968 24.5092C55.3698 24.573 55.4441 24.6355 55.5191 24.697C55.8566 24.9828 56.1693 25.2918 56.4834 25.6016C56.5922 25.7088 56.7011 25.8158 56.8101 25.9227C57.0409 26.1492 57.2714 26.3759 57.5018 26.6027C57.7704 26.8669 58.039 27.1311 58.308 27.3949C58.4154 27.5004 58.5225 27.606 58.6297 27.7117C58.6951 27.7759 58.7605 27.8401 58.826 27.9043C58.8831 27.9605 58.9402 28.0168 58.999 28.0747C59.1265 28.2051 59.1265 28.2051 59.2674 28.2663C59.2708 31.166 59.2739 34.0657 59.2757 36.9654C59.2757 37.0084 59.2757 37.0513 59.2758 37.0956C59.2763 38.0291 59.2769 38.9626 59.2774 39.8961C59.2776 40.354 59.2779 40.8118 59.2781 41.2696C59.2782 41.3152 59.2782 41.3608 59.2782 41.4077C59.279 42.8831 59.2805 44.3585 59.2823 45.8339C59.2842 47.3507 59.2854 48.8674 59.2857 50.3842C59.2858 50.5987 59.2859 50.8132 59.2859 51.0276C59.2859 51.0698 59.286 51.112 59.286 51.1555C59.2862 51.8755 59.2873 52.5954 59.2885 53.3153C59.2895 53.956 59.2898 54.5968 59.2896 55.2375C59.2895 55.607 59.2896 55.9765 59.2907 56.346C59.2916 56.6848 59.2917 57.0236 59.291 57.3624C59.2909 57.4844 59.2912 57.6065 59.2918 57.7286C59.3003 59.5264 58.825 61.159 57.5099 62.4623C57.3025 62.6473 57.0872 62.8121 56.859 62.9717C56.8155 63.0047 56.7719 63.0377 56.7271 63.0717C55.9991 63.5939 55.0616 63.8685 54.1903 64.0543C54.0905 64.0758 54.0905 64.0758 53.9886 64.0978C52.5477 64.3511 51.0012 64.2464 49.6339 63.7359C49.5736 63.716 49.5134 63.6962 49.4513 63.6757C49.0185 63.5208 48.6544 63.3007 48.2791 63.0434C48.2332 63.0119 48.1873 62.9805 48.14 62.9481C46.8717 62.0511 46.0445 60.5818 45.7696 59.0856C45.6661 58.4032 45.7017 57.7019 45.704 57.0136C45.7046 56.7756 45.704 56.5375 45.7036 56.2995C45.703 55.8879 45.7031 55.4764 45.7036 55.0649C45.7044 54.4693 45.7038 53.8736 45.7028 53.278C45.7013 52.3106 45.7004 51.3432 45.7001 50.3758C45.7001 50.318 45.7001 50.2602 45.7001 50.2007C45.6999 49.5556 45.6999 48.9105 45.7 48.2654C45.7 48.0311 45.7 47.7968 45.7 47.5625C45.7 47.5047 45.7 47.4468 45.7 47.3873C45.7001 46.4228 45.6991 45.4583 45.6974 44.4938C45.6963 43.8997 45.6962 43.3056 45.6972 42.7114C45.6978 42.3046 45.6975 41.8978 45.6964 41.491C45.6959 41.2564 45.6957 41.0219 45.6967 40.7873C45.6978 40.5328 45.6969 40.2784 45.6958 40.0239C45.6964 39.9501 45.697 39.8764 45.6977 39.8004C45.6925 39.2321 45.5645 38.7404 45.1426 38.3277C44.5654 37.8773 43.8986 37.8589 43.1857 37.8581C43.1191 37.8565 43.0524 37.8549 42.9837 37.8533C42.4546 37.8513 42.0941 37.9799 41.6439 38.2401C40.6249 39.2924 40.8274 41.1783 40.8289 42.5027C40.8286 42.6781 40.8282 42.8536 40.8278 43.029C40.827 43.4048 40.8267 43.7807 40.8267 44.1565C40.8266 44.701 40.8256 45.2455 40.8244 45.79C40.8223 46.6752 40.8208 47.5604 40.8196 48.4456C40.8195 48.4984 40.8195 48.5512 40.8194 48.6056C40.8186 49.195 40.818 49.7844 40.8174 50.3738C40.8172 50.5877 40.817 50.8016 40.8168 51.0154C40.8168 51.0682 40.8167 51.121 40.8167 51.1754C40.8158 52.0576 40.8142 52.9399 40.812 53.8222C40.8107 54.3648 40.81 54.9075 40.8102 55.4502C40.8103 55.8223 40.8096 56.1944 40.8085 56.5665C40.8078 56.7806 40.8076 56.9947 40.808 57.2088C40.8095 58.068 40.8033 58.8876 40.5861 59.7241C40.5636 59.8119 40.5636 59.8119 40.5405 59.9015C40.1492 61.3483 39.168 62.4837 37.8767 63.2662C36.1712 64.2029 33.9456 64.4932 32.0564 63.9861C31.7937 63.9113 31.5355 63.8262 31.2781 63.7359C31.2067 63.7108 31.1352 63.6858 31.0617 63.66C30.3272 63.3813 29.7575 62.9306 29.1951 62.3986C29.1502 62.3563 29.1053 62.3141 29.0591 62.2705C27.8615 61.0525 27.5344 59.4136 27.5488 57.7883C27.5491 57.6654 27.5494 57.5424 27.5496 57.4195C27.5503 57.0989 27.5523 56.7784 27.5544 56.4579C27.5564 56.1296 27.5573 55.8013 27.5583 55.4729C27.5604 54.831 27.5637 54.1891 27.5678 53.5471C27.5051 53.548 27.4423 53.5489 27.3777 53.5498C27.2954 53.5505 27.2132 53.5512 27.1285 53.5519C27.0469 53.5527 26.9654 53.5536 26.8813 53.5545C26.424 53.5395 26.1401 53.3459 25.8104 53.0377C25.4653 52.6037 25.3111 52.1743 25.3275 51.6248C25.3974 51.1651 25.6472 50.7886 26.0056 50.4905C26.0513 50.4459 26.0969 50.4012 26.144 50.3552C26.7796 49.9496 27.5676 50.0176 28.2948 50.0216C28.4151 50.0217 28.5354 50.0216 28.6557 50.0215C28.9067 50.0215 29.1576 50.0222 29.4086 50.0233C29.7292 50.0248 30.0498 50.0248 30.3704 50.0244C30.6184 50.0242 30.8664 50.0246 31.1144 50.0252C31.2326 50.0255 31.3508 50.0256 31.469 50.0254C31.6344 50.0254 31.7998 50.0262 31.9651 50.0273C32.0133 50.0271 32.0614 50.0269 32.111 50.0268C32.7586 50.0332 33.2515 50.2263 33.7353 50.6457C34.0674 51.0158 34.1882 51.263 34.1787 51.7482C34.178 51.7989 34.1774 51.8497 34.1767 51.902C34.1572 52.4334 34.0033 52.8224 33.601 53.1889C33.5224 53.2465 33.4424 53.3023 33.361 53.3561C33.3252 53.3824 33.2895 53.4086 33.2527 53.4357C32.948 53.6248 32.6528 53.6237 32.301 53.6173C32.2526 53.6168 32.2043 53.6163 32.1545 53.6159C32.0359 53.6147 31.9174 53.6128 31.7988 53.6108C31.8043 54.2153 31.8105 54.8198 31.8175 55.4243C31.8207 55.7051 31.8238 55.9858 31.8263 56.2666C31.8287 56.5378 31.8317 56.8091 31.8351 57.0804C31.8363 57.1835 31.8373 57.2867 31.8381 57.3898C31.8341 58.3054 31.8341 58.3054 32.112 59.1708C32.1313 59.21 32.1505 59.2492 32.1703 59.2895C32.4696 59.7027 32.9422 59.8219 33.4261 59.9151C34.2303 59.9951 35.1075 59.9588 35.7902 59.4932C36.1639 59.194 36.3864 58.8209 36.4382 58.3515C36.4455 58.1614 36.4465 57.9723 36.4454 57.7821C36.4457 57.7095 36.446 57.6369 36.4464 57.5621C36.4473 57.3194 36.4468 57.0767 36.4464 56.8339C36.4466 56.6596 36.4472 56.4853 36.4477 56.311C36.4488 55.9358 36.4491 55.5606 36.449 55.1853C36.4489 54.6414 36.4499 54.0975 36.4513 53.5536C36.4534 52.6693 36.4548 51.7849 36.4557 50.9005C36.4558 50.8212 36.4558 50.8212 36.4558 50.7403C36.456 50.526 36.4562 50.3118 36.4564 50.0976C36.457 49.5095 36.4577 48.9215 36.4585 48.3334C36.4586 48.2545 36.4586 48.2545 36.4587 48.174C36.4599 47.2938 36.4616 46.4136 36.4636 45.5333C36.4648 44.9916 36.4655 44.4499 36.4655 43.9082C36.4656 43.536 36.4661 43.1638 36.467 42.7916C36.4675 42.5777 36.4677 42.3637 36.4675 42.1497C36.4651 39.6855 36.6807 37.1675 38.5154 35.291C39.1281 34.7175 39.7804 34.271 40.5861 33.9975C40.6519 33.9741 40.7177 33.9507 40.7855 33.9266C41.5337 33.6698 42.2254 33.5931 43.0148 33.5953C43.168 33.5955 43.3212 33.594 43.4745 33.5924C44.3776 33.5885 45.2069 33.7289 46.0579 34.0373C46.1494 34.0703 46.1494 34.0703 46.2428 34.104C46.7758 34.3041 47.2242 34.554 47.6811 34.889C47.7451 34.9349 47.809 34.9808 47.8749 35.028C49.0022 35.8803 49.7477 37.1586 49.9414 38.5373C50.0078 39.1755 49.9858 39.8226 49.9837 40.4633C49.9831 40.7 49.9837 40.9367 49.9841 41.1734C49.9847 41.5826 49.9846 41.9917 49.9841 42.4009C49.9833 42.9934 49.9839 43.5859 49.9849 44.1783C49.9864 45.141 49.9873 46.1038 49.9876 47.0665C49.9876 47.124 49.9876 47.1814 49.9876 47.2407C49.9878 47.8822 49.9878 48.5238 49.9877 49.1653C49.9877 49.3982 49.9877 49.6311 49.9877 49.864C49.9877 49.9214 49.9877 49.9789 49.9877 50.0381C49.9876 50.9977 49.9886 51.9573 49.9903 52.9169C49.9914 53.5077 49.9915 54.0984 49.9905 54.6892C49.9899 55.094 49.9902 55.4988 49.9913 55.9036C49.9918 56.1367 49.992 56.3699 49.991 56.603C49.9899 56.8565 49.9908 57.1099 49.992 57.3633C49.9913 57.436 49.9907 57.5087 49.99 57.5836C49.9959 58.2303 50.1206 58.922 50.5566 59.4323C50.7835 59.6248 51.0416 59.7065 51.3262 59.7877C51.3695 59.802 51.4127 59.8163 51.4572 59.831C52.3383 60.0783 53.4709 59.9764 54.2716 59.5472C54.6481 59.2899 54.7981 59.0098 54.9063 58.5778C54.9196 58.411 54.9276 58.2506 54.9288 58.0838C54.9297 58.0359 54.9305 57.9879 54.9314 57.9384C54.9341 57.7778 54.9359 57.6172 54.9377 57.4566C54.9394 57.3402 54.9412 57.2238 54.943 57.1073C54.9479 56.7875 54.9519 56.4677 54.9557 56.1478C54.9591 55.8734 54.963 55.599 54.9668 55.3246C55.0028 52.7168 55.0225 50.1089 55.0384 47.501C55.0405 47.1612 55.0426 46.8213 55.0448 46.4814C55.0451 46.4392 55.0454 46.397 55.0456 46.3535C55.0547 44.9464 55.0724 43.5395 55.0941 42.1325C55.1156 40.729 55.1279 39.3257 55.132 37.922C55.1346 37.1349 55.1412 36.3484 55.158 35.5615C55.4474 31.9566 55.4474 31.9566 54.0611 28.7996C53.6406 28.4096 53.1859 28.0813 52.6739 27.8158C52.5683 27.7597 52.4677 27.6947 52.3677 27.6295C52.3677 27.5875 52.3677 27.5454 52.3677 27.5021C52.3133 27.4805 52.3133 27.4805 52.2579 27.4584C52.0676 27.3527 51.9334 27.2081 51.7819 27.0564C51.7087 26.9846 51.6354 26.9129 51.5621 26.8413C50.103 25.4139 48.644 23.9865 47.1849 22.5591C47.147 22.522 47.109 22.4849 47.0699 22.4467C46.9774 22.3561 46.8854 22.2652 46.7934 22.1742C46.6361 22.0222 46.4737 21.878 46.3089 21.7337C45.7729 21.2576 45.2658 20.7524 44.7552 20.2506C44.5725 20.071 44.3896 19.8917 44.2066 19.7124C43.8187 19.3321 43.431 18.9516 43.0434 18.5711C42.6237 18.1591 42.204 17.7472 41.7839 17.3356C41.5735 17.1293 41.3633 16.9228 41.1531 16.7163C41.0425 16.6078 40.9319 16.4994 40.8213 16.391C40.772 16.3425 40.7228 16.294 40.672 16.244C40.4091 15.9867 40.1408 15.741 39.8564 15.5063C39.7305 15.3946 39.6218 15.2752 39.5121 15.1483C39.3733 14.9886 39.2358 14.8477 39.0708 14.7143C38.6685 14.3743 38.2994 14.0006 37.9249 13.6321C37.7843 13.4938 37.6436 13.3557 37.5028 13.2176C37.2041 12.9247 36.9058 12.6316 36.6074 12.3384C36.261 11.998 35.9145 11.6577 35.5677 11.3177C35.4295 11.182 35.2915 11.0462 35.1534 10.9104C35.0683 10.8269 34.9831 10.7433 34.898 10.6598C34.86 10.6224 34.8221 10.5849 34.783 10.5463C34.5574 10.3257 34.3239 10.1241 34.077 9.92655C33.9144 9.77502 33.7664 9.62709 33.6295 9.45293C33.4776 9.27372 33.3116 9.13707 33.126 8.9925C33.0962 8.96451 33.0663 8.93652 33.0355 8.90768C33.0355 8.86565 33.0355 8.82362 33.0355 8.78032C32.9986 8.76491 32.9617 8.7495 32.9236 8.73362C32.746 8.63713 32.626 8.52228 32.4827 8.38129C32.4254 8.32521 32.3681 8.26912 32.309 8.21133C32.2471 8.1501 32.1851 8.08885 32.1232 8.0276C32.0594 7.96494 31.9956 7.9023 31.9317 7.83969C31.7641 7.67519 31.5968 7.51032 31.4296 7.34536C31.2588 7.17695 31.0876 7.0089 30.9165 6.84082C30.581 6.51125 30.2459 6.18128 29.9111 5.85105C29.687 5.95427 29.5462 6.06918 29.3741 6.24507C29.1926 6.42699 29.0107 6.60183 28.8127 6.76645C28.5488 6.98666 28.3076 7.22656 28.0678 7.47137C27.9903 7.54915 27.9095 7.62375 27.8282 7.69776C27.7852 7.69776 27.7423 7.69776 27.698 7.69776C27.698 7.73979 27.698 7.78182 27.698 7.82512C27.607 7.91268 27.607 7.91268 27.4783 8.01616C27.2588 8.19831 27.0538 8.38861 26.8518 8.58928C26.6213 8.81761 26.3848 9.03178 26.1356 9.24025C25.9886 9.36825 25.8509 9.50298 25.7127 9.63999C25.5365 9.81479 25.3585 9.98213 25.1676 10.1415C24.9482 10.3253 24.7438 10.5215 24.5411 10.7225C24.3023 10.9593 24.0574 11.1834 23.7986 11.3991C23.6272 11.5493 23.4659 11.7086 23.3043 11.8688C23.0656 12.1056 22.8206 12.3296 22.5619 12.5454C22.3576 12.7243 22.1671 12.9164 21.9746 13.1073C21.7634 13.3156 21.5445 13.5098 21.3165 13.7001C21.1177 13.8729 20.9339 14.0599 20.7472 14.2451C20.6176 14.3701 20.485 14.4873 20.3468 14.603C20.1402 14.7762 19.948 14.959 19.7569 15.1483C19.5684 15.3349 19.3792 15.5153 19.1751 15.6856C18.9234 15.896 18.6922 16.1243 18.4599 16.3546C18.2459 16.5658 18.024 16.7632 17.7929 16.9562C17.672 17.0603 17.559 17.1691 17.4461 17.2816C17.2944 17.4326 17.1388 17.5739 16.9742 17.7114C16.7523 17.8982 16.545 18.0967 16.3396 18.3004C16.0966 18.5414 15.8473 18.77 15.5841 18.9897C15.4505 19.1053 15.3256 19.2268 15.2005 19.3511C15.0365 19.5141 14.8697 19.6684 14.6919 19.8168C14.4713 20.0021 14.2654 20.1995 14.0614 20.4019C13.8217 20.6395 13.5762 20.8649 13.3161 21.0809C13.089 21.2798 12.8798 21.4963 12.6685 21.711C12.5317 21.8347 12.5317 21.8347 12.4015 21.8347C12.4015 21.8767 12.4015 21.9187 12.4015 21.962C12.3128 22.0473 12.3128 22.0473 12.1859 22.1491C11.9195 22.37 11.6749 22.6071 11.4298 22.8503C11.22 23.0572 11.0025 23.2499 10.776 23.4388C10.6171 23.5775 10.4683 23.7242 10.3186 23.8724C10.1301 24.0591 9.9409 24.2395 9.73684 24.4097C9.48507 24.6202 9.25375 24.8486 9.02139 25.079C8.81019 25.2874 8.59132 25.4816 8.3633 25.6719C8.21703 25.799 8.08016 25.9331 7.94275 26.0694C7.7678 26.2428 7.59138 26.4089 7.40168 26.5669C7.13221 26.7926 6.88568 27.038 6.6366 27.2847C6.41405 27.5041 6.18461 27.7109 5.94398 27.9113C5.82374 28.0146 5.71157 28.1228 5.59946 28.2345C5.44908 28.3842 5.29497 28.5242 5.13161 28.6603C4.90002 28.855 4.6862 29.0641 4.47256 29.2772C3.47624 30.2609 3.47624 30.2609 2.76798 30.4314C2.72501 30.4524 2.68205 30.4734 2.63779 30.4951C2.07396 30.5457 1.50083 30.5066 1.02754 30.1817C0.550681 29.7808 0.140811 29.3018 0.0750683 28.6715C0.0523279 27.9455 0.192938 27.4973 0.685047 26.937C0.993159 26.6169 1.32374 26.3216 1.65633 26.0263C1.82153 25.8792 1.98081 25.7278 2.1374 25.5719C2.29457 25.4155 2.45523 25.2686 2.62559 25.1261C2.84621 24.9408 3.05207 24.7434 3.25616 24.541C3.45491 24.344 3.65473 24.1514 3.87046 23.9719C4.13768 23.7491 4.38123 23.5058 4.62772 23.2617C4.84737 23.0451 5.07383 22.8416 5.31138 22.6438C5.50959 22.4719 5.69243 22.2855 5.87838 22.1011C6.00801 21.976 6.14056 21.8588 6.27885 21.7431C6.48537 21.57 6.67759 21.3871 6.86874 21.1979C7.09793 20.9709 7.33296 20.7583 7.58068 20.5511C7.74027 20.4115 7.88995 20.2643 8.04039 20.1153C8.26958 19.8883 8.50461 19.6757 8.75233 19.4686C8.91191 19.329 9.0616 19.1817 9.21204 19.0327C9.44123 18.8058 9.67626 18.5932 9.92397 18.386C10.0836 18.2464 10.2332 18.0992 10.3837 17.9502C10.5722 17.7635 10.7614 17.5831 10.9654 17.4129C11.2172 17.2025 11.4484 16.9741 11.6807 16.7437C11.8934 16.5339 12.1137 16.3382 12.3433 16.1465C12.5231 15.9909 12.689 15.8228 12.8574 15.6555C13.0222 15.4968 13.1964 15.351 13.372 15.204C13.5821 15.0197 13.7762 14.8204 13.9713 14.6212C14.0939 14.5115 14.0939 14.5115 14.2241 14.5115C14.2241 14.4695 14.2241 14.4274 14.2241 14.3841C14.3151 14.2966 14.3151 14.2966 14.4438 14.1931C14.6633 14.0109 14.8683 13.8206 15.0703 13.62C15.2588 13.4333 15.448 13.2529 15.652 13.0827C15.9037 12.8723 16.1349 12.644 16.3672 12.4136C16.5807 12.203 16.8017 12.0058 17.0327 11.8138C17.2029 11.6666 17.3588 11.5071 17.5148 11.3457C17.6088 11.2638 17.6088 11.2638 17.739 11.2638C17.739 11.2218 17.739 11.1798 17.739 11.1365C17.8278 11.0511 17.8278 11.0511 17.9546 10.9494C18.221 10.7285 18.4656 10.4915 18.7106 10.2484C18.9214 10.0405 19.1394 9.84651 19.3673 9.65716C19.5755 9.47557 19.7669 9.27797 19.9598 9.08106C20.0823 8.97136 20.0823 8.97136 20.2125 8.97136C20.2125 8.92933 20.2125 8.8873 20.2125 8.844C20.3035 8.75644 20.3035 8.75644 20.4322 8.65296C20.6517 8.47081 20.8567 8.28051 21.0587 8.07984C21.2472 7.89318 21.4364 7.71279 21.6404 7.54254C21.8586 7.36015 22.0615 7.16519 22.2629 6.96545C22.5017 6.72866 22.7466 6.50462 23.0053 6.28885C23.2096 6.10989 23.4002 5.91784 23.5927 5.72696C23.8038 5.51863 24.0227 5.32444 24.2507 5.13416C24.4495 4.96134 24.6333 4.77431 24.82 4.58915C24.9496 4.46412 25.0822 4.34689 25.2205 4.2312C25.427 4.05807 25.6192 3.87523 25.8104 3.68594C26.0409 3.45761 26.2774 3.24344 26.5266 3.03497C26.726 2.8613 26.9106 2.67381 27.098 2.48797C27.2689 2.32307 27.4487 2.17111 27.6309 2.01833C27.7785 1.88948 27.9171 1.75412 28.056 1.61635C28.2323 1.44155 28.4102 1.27422 28.6012 1.11488C28.891 0.872294 29.1555 0.606379 29.4219 0.339774C29.7928 -0.0140557 29.7928 -0.0140556 29.9703 0.00786845Z" fill="#1E99D7"/>
<path d="M10.5494 34.0726C10.5906 34.097 10.6318 34.1215 10.6742 34.1467C10.9936 34.3422 11.2729 34.566 11.5446 34.822C11.6839 34.9561 11.6839 34.9561 11.8474 35.0753C12.8518 35.8887 13.3487 37.3748 13.5721 38.5819C13.5967 38.861 13.5982 39.1378 13.5963 39.4178C13.5965 39.4977 13.5968 39.5776 13.597 39.66C13.5977 39.8793 13.5972 40.0986 13.5964 40.3179C13.5959 40.5554 13.5964 40.7929 13.5968 41.0304C13.5974 41.4411 13.5974 41.8518 13.5968 42.2626C13.5961 42.857 13.5967 43.4514 13.5977 44.0458C13.5992 45.0111 13.6001 45.9764 13.6003 46.9417C13.6003 46.9993 13.6004 47.057 13.6004 47.1164C13.6005 47.7603 13.6006 48.4043 13.6005 49.0482C13.6005 49.282 13.6005 49.5158 13.6005 49.7496C13.6005 49.8073 13.6004 49.865 13.6004 49.9244C13.6004 50.8867 13.6014 51.849 13.6031 52.8112C13.6041 53.4042 13.6043 53.9971 13.6033 54.59C13.6027 54.9961 13.603 55.4021 13.604 55.8081C13.6046 56.0423 13.6047 56.2764 13.6037 56.5105C13.6027 56.7645 13.6036 57.0185 13.6047 57.2724C13.6041 57.3462 13.6034 57.42 13.6028 57.496C13.608 58.0675 13.7475 58.4703 14.1579 58.8957C14.8672 59.3943 15.5649 59.6124 16.4361 59.5325C16.6262 59.4922 16.7853 59.4304 16.9569 59.3415C17.0001 59.3198 17.0434 59.2981 17.088 59.2758C17.835 58.863 18.0876 58.2398 18.327 57.4646C18.4133 57.1205 18.4068 56.78 18.4052 56.4274C18.4054 56.353 18.4056 56.2786 18.4058 56.2019C18.4062 55.9964 18.4061 55.7909 18.4057 55.5854C18.4054 55.3633 18.4058 55.1412 18.4062 54.9191C18.4068 54.5344 18.4069 54.1497 18.4067 53.765C18.4065 53.2074 18.4073 52.6497 18.4083 52.0921C18.41 51.1855 18.4113 50.2789 18.4122 49.3723C18.4122 49.3181 18.4123 49.2638 18.4124 49.208C18.4131 48.44 18.4134 47.6719 18.4136 46.9039C18.4136 46.8499 18.4136 46.7959 18.4137 46.7403C18.4137 46.6864 18.4137 46.6324 18.4137 46.5769C18.4139 45.6745 18.4152 44.7721 18.4172 43.8697C18.4185 43.3143 18.4189 42.7589 18.4182 42.2035C18.4177 41.8219 18.4183 41.4404 18.4195 41.0588C18.4202 40.8394 18.4205 40.62 18.4196 40.4006C18.4137 38.4525 18.6989 36.6315 20.0812 35.1432C20.135 35.0828 20.135 35.0828 20.1898 35.0213C21.3 33.8467 23.0315 33.2937 24.6236 33.225C26.2576 33.1792 27.811 33.3277 29.1941 34.2517C29.2585 34.2937 29.3229 34.3357 29.3893 34.379C29.3893 34.4211 29.3893 34.4631 29.3893 34.5064C29.4253 34.5106 29.4613 34.5148 29.4984 34.5191C30.0814 34.7156 30.7647 35.66 31.022 36.176C31.0679 36.2972 31.1075 36.4207 31.1468 36.5441C31.1892 36.6375 31.2326 36.7303 31.277 36.8227C31.7599 37.8866 31.752 39.0244 31.7453 40.1682C31.7451 40.2922 31.7449 40.4163 31.7448 40.5404C31.7443 40.8632 31.743 41.1859 31.7416 41.5087C31.7402 41.8395 31.7396 42.1704 31.739 42.5013C31.7376 43.1477 31.7354 43.794 31.7326 44.4404C31.804 44.4392 31.8753 44.438 31.9489 44.4368C32.0435 44.4358 32.1381 44.4349 32.2328 44.434C32.2797 44.4331 32.3266 44.4322 32.3749 44.4313C32.9553 44.4271 33.31 44.625 33.7365 44.9902C33.8156 45.0772 33.8156 45.0772 33.8156 45.2046C33.8585 45.2046 33.9015 45.2046 33.9457 45.2046C34.2078 45.7173 34.2347 46.337 34.1029 46.8941C33.8991 47.355 33.4363 47.7136 32.972 47.9024C32.7296 47.9761 32.4881 47.9704 32.2361 47.9695C32.1774 47.9701 32.1187 47.9706 32.0582 47.9712C31.8652 47.9727 31.6722 47.9727 31.4791 47.9727C31.3442 47.9731 31.2092 47.9736 31.0742 47.9741C30.7916 47.975 30.509 47.9751 30.2264 47.9747C29.8655 47.9743 29.5046 47.9763 29.1437 47.9788C28.865 47.9805 28.5863 47.9807 28.3076 47.9804C28.1746 47.9806 28.0416 47.9812 27.9086 47.9823C26.5234 47.9929 26.5234 47.9929 25.8991 47.4858C25.4904 47.0156 25.3119 46.645 25.3305 46.0205C25.385 45.5985 25.5609 45.1846 25.8744 44.8862C26.2728 44.597 26.5528 44.4311 27.0582 44.4364C27.129 44.437 27.1997 44.4376 27.2726 44.4382C27.3267 44.4389 27.3808 44.4397 27.4366 44.4404C27.4326 43.7103 27.4276 42.9801 27.4212 42.25C27.4183 41.9109 27.4158 41.5718 27.414 41.2328C27.4123 40.9053 27.4097 40.5779 27.4064 40.2505C27.4054 40.1258 27.4046 40.0011 27.4042 39.8764C27.4036 39.7012 27.4017 39.5261 27.3996 39.351C27.3998 39.2743 27.3998 39.2743 27.3999 39.196C27.3917 38.7071 27.2483 38.2567 26.9159 37.8814C26.3746 37.5543 25.9369 37.4878 25.313 37.4874C25.2513 37.4866 25.1896 37.4858 25.1261 37.485C24.4455 37.4837 23.8578 37.5518 23.3358 38.0088C22.8322 38.57 22.7955 39.1794 22.7983 39.8995C22.7979 40.0093 22.7979 40.0093 22.7975 40.1213C22.7969 40.3656 22.7972 40.6099 22.7974 40.8542C22.7972 41.0297 22.7968 41.2053 22.7964 41.3809C22.7956 41.7586 22.7953 42.1364 22.7952 42.5142C22.7951 43.0617 22.7942 43.6093 22.7929 44.1568C22.7909 45.0472 22.7893 45.9375 22.7882 46.8278C22.7881 46.8811 22.788 46.9343 22.788 46.9892C22.7872 47.5822 22.7865 48.1752 22.786 48.7683C22.7858 48.9829 22.7856 49.1976 22.7854 49.4122C22.7853 49.4652 22.7853 49.5181 22.7852 49.5727C22.7844 50.459 22.7828 51.3452 22.7806 52.2315C22.7793 52.7769 22.7786 53.3223 22.7788 53.8677C22.7788 54.2423 22.7782 54.617 22.777 54.9916C22.7764 55.207 22.7761 55.4224 22.7766 55.6378C22.7786 56.8379 22.7435 58.0227 22.3472 59.1703C22.3178 59.2575 22.3178 59.2575 22.2878 59.3465C21.9948 60.1837 21.56 60.8826 20.9925 61.5703C20.96 61.6119 20.9274 61.6535 20.8939 61.6964C19.8251 63.0093 18.0821 63.6051 16.4361 63.799C14.5102 63.9033 12.5174 63.15 11.0831 61.9001C10.6042 61.463 10.2576 60.9742 9.92697 60.424C9.89214 60.3682 9.85732 60.3124 9.82145 60.2549C9.14409 59.1285 9.24714 57.6896 9.25074 56.4299C9.25119 56.196 9.2505 55.9621 9.24995 55.7282C9.24913 55.3243 9.249 54.9204 9.24932 54.5165C9.24976 53.932 9.24894 53.3474 9.24779 52.7629C9.24593 51.8133 9.24478 50.8637 9.24424 49.9142C9.2442 49.8575 9.24417 49.8009 9.24413 49.7425C9.24387 49.2826 9.24364 48.8228 9.24342 48.3629C9.24322 47.9598 9.24301 47.5568 9.24277 47.1537C9.24274 47.0969 9.24271 47.0402 9.24267 46.9816C9.2421 46.0344 9.24078 45.0872 9.2389 44.1399C9.23779 43.5568 9.23735 42.9737 9.23781 42.3905C9.23809 41.9914 9.23767 41.5924 9.23672 41.1933C9.2362 40.9632 9.23599 40.7332 9.23664 40.5032C9.23735 40.2536 9.23654 40.004 9.2356 39.7544C9.23605 39.6821 9.2365 39.6098 9.23696 39.5353C9.23281 38.9717 9.14344 38.4469 8.75532 38.0088C7.90061 37.3894 6.83033 37.3867 5.80589 37.5187C5.3471 37.6062 4.95402 37.7817 4.65455 38.1361C4.31443 38.6324 4.35803 39.1969 4.362 39.7695C4.36179 39.8777 4.36147 39.9859 4.36105 40.0941C4.36021 40.3906 4.361 40.6871 4.36206 40.9836C4.36292 41.3037 4.36227 41.6238 4.36181 41.9439C4.36116 42.5706 4.36189 43.1974 4.3631 43.8241C4.36445 44.5543 4.36444 45.2844 4.36437 46.0145C4.36431 47.3174 4.3655 48.6203 4.36739 49.9232C4.36923 51.1871 4.37015 52.4509 4.37006 53.7147C4.37006 53.7925 4.37005 53.8703 4.37005 53.9505C4.37004 54.0282 4.37004 54.1059 4.37003 54.1859C4.36994 55.6252 4.37071 57.0645 4.37187 58.5038C4.37227 59.0125 4.37241 59.5212 4.37246 60.0299C4.37255 60.6501 4.37314 61.2703 4.37433 61.8905C4.37493 62.2068 4.37533 62.5231 4.37516 62.8395C4.37502 63.1293 4.37548 63.4191 4.37642 63.7089C4.37665 63.8135 4.37667 63.9181 4.37645 64.0227C4.37433 65.1347 4.51023 66.2469 5.30547 67.1104C5.8183 67.5285 6.45851 67.6914 7.11572 67.6915C7.2276 67.6918 7.2276 67.6918 7.34175 67.692C7.46397 67.6918 7.46397 67.6918 7.58865 67.6916C7.67681 67.6917 7.76497 67.6918 7.85312 67.6919C8.09608 67.6922 8.33904 67.6921 8.582 67.6919C8.84605 67.6918 9.11011 67.6921 9.37417 67.6923C9.83721 67.6926 10.3003 67.6927 10.7633 67.6926C11.4519 67.6925 12.1404 67.6928 12.829 67.6931C13.9163 67.6937 15.0036 67.694 16.091 67.6942C17.817 67.6945 19.543 67.6955 21.269 67.6967C21.6362 67.697 22.0035 67.6972 22.3707 67.6975C22.4439 67.6975 22.5171 67.6976 22.5925 67.6976C22.7409 67.6977 22.8892 67.6978 23.0376 67.6979C23.1865 67.698 23.3354 67.6981 23.4843 67.6982C25.2406 67.6994 26.9969 67.7005 28.7532 67.7015C28.8301 67.7016 28.9069 67.7016 28.9861 67.7017C31.4789 67.7031 33.9717 67.7038 36.4644 67.7043C39.0267 67.7048 41.589 67.7061 44.1513 67.7085C44.5131 67.7088 44.8749 67.7091 45.2366 67.7094C45.3078 67.7095 45.379 67.7096 45.4524 67.7096C46.5989 67.7106 47.7454 67.7106 48.892 67.7103C50.044 67.7101 51.196 67.7107 52.3481 67.7123C53.0327 67.7132 53.7173 67.7134 54.402 67.7125C54.8592 67.712 55.3165 67.7125 55.7737 67.7137C56.0343 67.7143 56.2948 67.7146 56.5554 67.7137C56.7927 67.7129 57.0299 67.7133 57.2672 67.7146C57.3923 67.715 57.5174 67.7142 57.6424 67.7132C58.363 67.7194 58.9386 67.8766 59.4652 68.3696C59.9518 68.9144 60.0265 69.4728 59.9932 70.1701C59.9424 70.7539 59.5738 71.1948 59.1362 71.568C58.5604 71.9143 58.0446 72.0054 57.3783 71.9978C57.2891 71.9981 57.1999 71.9987 57.1107 71.9993C56.867 72.0007 56.6234 71.9997 56.3797 71.9983C56.1141 71.9972 55.8485 71.9984 55.5828 71.9992C55.1177 72.0004 54.6526 72.0002 54.1875 71.999C53.4958 71.9973 52.8042 71.9977 52.1125 71.9986C50.8769 72.0001 49.6414 71.9995 48.4059 71.998C47.3243 71.9966 46.2428 71.996 45.1613 71.9962C45.0895 71.9962 45.0177 71.9962 44.9438 71.9962C44.6525 71.9963 44.3612 71.9963 44.0698 71.9964C41.3369 71.9969 38.604 71.9953 35.8711 71.9926C33.4445 71.9903 31.0178 71.9896 28.5911 71.9902C28.4354 71.9903 28.2796 71.9903 28.1239 71.9904C28.0469 71.9904 27.9699 71.9904 27.8905 71.9904C27.5029 71.9906 27.1152 71.9907 26.7276 71.9908C26.6511 71.9908 26.5746 71.9908 26.4958 71.9908C24.467 71.9913 22.4382 71.9906 20.4094 71.9895C20.191 71.9894 19.9726 71.9893 19.7542 71.9892C19.6093 71.9891 19.4644 71.989 19.3195 71.989C18.3106 71.9884 17.3018 71.9884 16.2929 71.9886C14.9922 71.9889 13.6915 71.9884 12.3909 71.9864C11.7035 71.9854 11.0161 71.9851 10.3287 71.9857C9.86884 71.9861 9.40902 71.9856 8.94919 71.9843C8.68763 71.9835 8.42609 71.9832 8.16453 71.984C5.90724 71.9904 3.90057 71.6558 2.20142 70.0834C1.17153 69.0184 0.612641 67.806 0.273079 66.394C0.256502 66.3254 0.239925 66.2569 0.222846 66.1863C0.199759 66.0857 0.199759 66.0857 0.176205 65.9831C0.155902 65.8947 0.155902 65.8947 0.135189 65.8046C0.0205951 65.1161 0.0233494 64.4226 0.0234745 63.7272C0.0232593 63.618 0.0230169 63.5088 0.0227495 63.3996C0.022102 63.1012 0.0218562 62.8029 0.0216827 62.5046C0.0214273 62.1821 0.0208037 61.8597 0.0202366 61.5372C0.0189544 60.7597 0.0182957 59.9821 0.0177158 59.2046C0.01743 58.8379 0.0170811 58.4713 0.0167405 58.1046C0.0156339 56.8851 0.0146898 55.6656 0.0142177 54.4461C0.0140934 54.1301 0.0139686 53.8141 0.0138413 53.4982C0.0138098 53.4196 0.0137784 53.3411 0.0137459 53.2602C0.0132055 51.9877 0.0115555 50.7152 0.00944232 49.4427C0.00728809 48.1347 0.00611731 46.8268 0.00590944 45.5188C0.00576871 44.7851 0.00520155 44.0513 0.00353565 43.3175C0.00212054 42.6928 0.00159968 42.0681 0.00223156 41.4433C0.0025267 41.1249 0.00240841 40.8065 0.00114101 40.4881C-1.15382e-05 40.196 6.24643e-05 39.9039 0.00106949 39.6118C0.00122341 39.5067 0.000945914 39.4016 0.000168646 39.2966C-0.0105636 37.7487 0.490577 36.2576 1.60542 35.133C2.37346 34.3772 2.37346 34.3772 2.83199 34.2517C2.83199 34.2096 2.83199 34.1676 2.83199 34.1243C5.19249 33.081 8.22028 32.6653 10.5494 34.0726Z" fill="#F49821"/>
<path d="M25.2234 23.8079C26.4048 23.8079 27.5862 23.8079 28.8034 23.8079C28.8034 24.9637 28.8034 26.1195 28.8034 27.3103C27.622 27.3103 26.4406 27.3103 25.2234 27.3103C25.2234 26.1545 25.2234 24.9987 25.2234 23.8079Z" fill="#2198D4"/>
<path d="M31.2117 23.8086C32.0796 23.8066 32.0796 23.8066 32.9651 23.8046C33.148 23.804 33.3309 23.8034 33.5194 23.8028C33.6634 23.8026 33.8074 23.8025 33.9514 23.8023C34.0269 23.802 34.1025 23.8017 34.1803 23.8014C34.2517 23.8013 34.323 23.8013 34.3966 23.8013C34.4589 23.8012 34.5212 23.801 34.5853 23.8009C34.7266 23.8086 34.7266 23.8086 34.7917 23.8722C34.7978 23.9797 34.7993 24.0875 34.7991 24.1951C34.7991 24.2649 34.7991 24.3347 34.7991 24.4067C34.7987 24.4806 34.7984 24.5545 34.7981 24.6307C34.798 24.6982 34.7979 24.7657 34.7979 24.8353C34.7975 25.0887 34.7966 25.3422 34.7958 25.5956C34.7944 26.1616 34.7931 26.7277 34.7917 27.3109C33.6103 27.3109 32.4289 27.3109 31.2117 27.3109C31.2117 26.1552 31.2117 24.9994 31.2117 23.8086Z" fill="#289BD4"/>
<path d="M31.2117 18.2684C32.3931 18.2684 33.5745 18.2684 34.7917 18.2684C34.7917 19.4032 34.7917 20.538 34.7917 21.7071C33.6103 21.7071 32.4289 21.7071 31.2117 21.7071C31.2117 20.5724 31.2117 19.4376 31.2117 18.2684Z" fill="#2394D2"/>
<path d="M25.2891 18.2684C26.449 18.2684 27.6089 18.2684 28.804 18.2684C28.804 19.4032 28.804 20.538 28.804 21.7071C27.6441 21.7071 26.4841 21.7071 25.2891 21.7071C25.2891 20.5724 25.2891 19.4376 25.2891 18.2684Z" fill="#2294D3"/>
<path d="M83.4297 22.4062V48H78.6133V22.4062H83.4297ZM91.375 22.4062V26.2207H70.7559V22.4062H91.375ZM101.131 48.3516C99.6895 48.3516 98.3945 48.1172 97.2461 47.6484C96.0977 47.1797 95.1191 46.5293 94.3105 45.6973C93.5137 44.8535 92.8984 43.875 92.4648 42.7617C92.043 41.6367 91.832 40.4297 91.832 39.1406V38.4375C91.832 36.9727 92.043 35.6426 92.4648 34.4473C92.8867 33.2402 93.4844 32.2031 94.2578 31.3359C95.0312 30.4688 95.957 29.8008 97.0352 29.332C98.1133 28.8633 99.3027 28.6289 100.604 28.6289C101.951 28.6289 103.141 28.8574 104.172 29.3145C105.203 29.7598 106.064 30.3926 106.756 31.2129C107.447 32.0332 107.969 33.0176 108.32 34.166C108.672 35.3027 108.848 36.5625 108.848 37.9453V39.8965H93.9414V36.6973H104.277V36.3457C104.254 35.6074 104.113 34.9336 103.855 34.3242C103.598 33.7031 103.199 33.2109 102.66 32.8477C102.121 32.4727 101.424 32.2852 100.568 32.2852C99.877 32.2852 99.2734 32.4375 98.7578 32.7422C98.2539 33.0352 97.832 33.457 97.4922 34.0078C97.1641 34.5469 96.918 35.1914 96.7539 35.9414C96.5898 36.6914 96.5078 37.5234 96.5078 38.4375V39.1406C96.5078 39.9375 96.6133 40.6758 96.8242 41.3555C97.0469 42.0352 97.3691 42.627 97.791 43.1309C98.2246 43.623 98.7402 44.0098 99.3379 44.291C99.9473 44.5605 100.639 44.6953 101.412 44.6953C102.385 44.6953 103.264 44.5078 104.049 44.1328C104.846 43.7461 105.537 43.1777 106.123 42.4277L108.461 44.8535C108.062 45.4395 107.523 46.002 106.844 46.541C106.176 47.0801 105.367 47.5195 104.418 47.8594C103.469 48.1875 102.373 48.3516 101.131 48.3516ZM124.721 28.9805V32.6543H115.422V28.9805H124.721ZM116.652 28.9805V48H111.994V28.9805H116.652ZM128.236 28.9805V48H123.561V28.9805H128.236ZM145.234 28.9805V32.6543H135.918V28.9805H145.234ZM148.732 28.9805V48H144.092V28.9805H148.732ZM134.758 28.9805H139.346L138.836 38.4727C138.754 39.8672 138.607 41.0918 138.396 42.1465C138.186 43.1895 137.904 44.0859 137.553 44.8359C137.201 45.5742 136.773 46.1777 136.27 46.6465C135.766 47.1152 135.18 47.4609 134.512 47.6836C133.855 47.8945 133.117 48 132.297 48H130.873L130.82 44.2559L131.488 44.2031C131.898 44.168 132.25 44.0566 132.543 43.8691C132.848 43.6816 133.105 43.4121 133.316 43.0605C133.539 42.709 133.721 42.2578 133.861 41.707C134.014 41.1445 134.131 40.4883 134.213 39.7383C134.307 38.9766 134.371 38.0977 134.406 37.1016L134.758 28.9805ZM152.16 38.6836V38.3145C152.16 36.9199 152.359 35.6367 152.758 34.4648C153.156 33.2812 153.736 32.2559 154.498 31.3887C155.26 30.5215 156.191 29.8477 157.293 29.3672C158.395 28.875 159.648 28.6289 161.055 28.6289C162.484 28.6289 163.75 28.875 164.852 29.3672C165.965 29.8477 166.902 30.5215 167.664 31.3887C168.426 32.2559 169.006 33.2812 169.404 34.4648C169.803 35.6367 170.002 36.9199 170.002 38.3145V38.6836C170.002 40.0664 169.803 41.3496 169.404 42.5332C169.006 43.7051 168.426 44.7305 167.664 45.6094C166.902 46.4766 165.971 47.1504 164.869 47.6309C163.768 48.1113 162.508 48.3516 161.09 48.3516C159.684 48.3516 158.424 48.1113 157.311 47.6309C156.197 47.1504 155.26 46.4766 154.498 45.6094C153.736 44.7305 153.156 43.7051 152.758 42.5332C152.359 41.3496 152.16 40.0664 152.16 38.6836ZM156.801 38.3145V38.6836C156.801 39.5156 156.883 40.2949 157.047 41.0215C157.211 41.748 157.463 42.3867 157.803 42.9375C158.143 43.4883 158.582 43.9219 159.121 44.2383C159.672 44.543 160.328 44.6953 161.09 44.6953C161.84 44.6953 162.484 44.543 163.023 44.2383C163.562 43.9219 164.002 43.4883 164.342 42.9375C164.693 42.3867 164.951 41.748 165.115 41.0215C165.279 40.2949 165.361 39.5156 165.361 38.6836V38.3145C165.361 37.4941 165.279 36.7266 165.115 36.0117C164.951 35.2852 164.693 34.6465 164.342 34.0957C164.002 33.5332 163.557 33.0938 163.006 32.7773C162.467 32.4492 161.816 32.2852 161.055 32.2852C160.305 32.2852 159.66 32.4492 159.121 32.7773C158.582 33.0938 158.143 33.5332 157.803 34.0957C157.463 34.6465 157.211 35.2852 157.047 36.0117C156.883 36.7266 156.801 37.4941 156.801 38.3145ZM182.729 39.9492H176.699L176.664 36.8027H181.621C182.359 36.8027 182.963 36.7266 183.432 36.5742C183.9 36.4219 184.246 36.1934 184.469 35.8887C184.703 35.584 184.82 35.2148 184.82 34.7812C184.82 34.4062 184.75 34.084 184.609 33.8145C184.469 33.5332 184.258 33.3047 183.977 33.1289C183.707 32.9531 183.361 32.8242 182.939 32.7422C182.529 32.6484 182.049 32.6016 181.498 32.6016H178.352V48H173.693V28.9805H181.498C182.729 28.9805 183.836 29.0918 184.82 29.3145C185.805 29.5254 186.643 29.8477 187.334 30.2812C188.025 30.7148 188.553 31.2656 188.916 31.9336C189.291 32.5898 189.479 33.3633 189.479 34.2539C189.479 34.8398 189.35 35.3906 189.092 35.9062C188.834 36.4219 188.453 36.8789 187.949 37.2773C187.445 37.6758 186.824 38.0039 186.086 38.2617C185.348 38.5078 184.504 38.6602 183.555 38.7188L182.729 39.9492ZM182.729 48H175.451L177.174 44.3789H182.729C183.408 44.3789 183.971 44.2969 184.416 44.1328C184.861 43.957 185.189 43.7051 185.4 43.377C185.623 43.0488 185.734 42.6504 185.734 42.1816C185.734 41.7246 185.629 41.332 185.418 41.0039C185.219 40.6641 184.896 40.4062 184.451 40.2305C184.018 40.043 183.443 39.9492 182.729 39.9492H177.93L177.965 36.8027H183.537L184.768 38.0508C186.033 38.1328 187.082 38.3906 187.914 38.8242C188.746 39.2461 189.367 39.7852 189.777 40.4414C190.188 41.0859 190.393 41.7949 190.393 42.5684C190.393 43.4707 190.223 44.2617 189.883 44.9414C189.543 45.6211 189.045 46.1895 188.389 46.6465C187.732 47.0918 186.93 47.4316 185.98 47.666C185.031 47.8887 183.947 48 182.729 48ZM198.461 41.373L205.387 28.9805H210.045V48H205.387V35.5898L198.461 48H193.803V28.9805H198.461V41.373ZM219.221 28.9805V48H214.58V28.9805H219.221ZM231.613 28.9805L223.229 40.6523H218.289L217.709 36.3984H221.137L225.76 28.9805H231.613ZM226.041 48L220.838 39.8438L224.705 37.418L232.211 48H226.041Z" fill="#FAFAFA"/>
</svg>
