<svg width="238" height="60" viewBox="0 0 238 60" fill="none" xmlns="http://www.w3.org/2000/svg">
<path d="M24.9742 0.00655701C25.1071 0.0537628 25.172 0.109856 25.2714 0.207854C25.3067 0.242217 25.342 0.276581 25.3783 0.311986C25.4164 0.349916 25.4545 0.387846 25.4937 0.426925C25.5344 0.466707 25.575 0.50649 25.6168 0.547478C25.7513 0.679419 25.8852 0.811909 26.0191 0.944398C26.1125 1.03627 26.206 1.12811 26.2996 1.2199C26.5463 1.46212 26.7925 1.70479 27.0385 1.94758C27.4315 2.33517 27.8252 2.7221 28.2189 3.10899C28.356 3.24391 28.493 3.37904 28.6299 3.51419C28.7147 3.5977 28.7995 3.6812 28.8844 3.7647C28.922 3.80199 28.9597 3.83927 28.9985 3.87769C29.212 4.08755 29.4314 4.28643 29.6623 4.47806C29.78 4.58166 29.8706 4.70192 29.9695 4.82279C30.0342 4.87984 30.1 4.9358 30.1665 4.991C30.3982 5.18735 30.6157 5.39475 30.8318 5.6073C30.8722 5.64678 30.9125 5.68627 30.9541 5.72694C31.0862 5.85618 31.2181 5.9856 31.3499 6.11503C31.4423 6.20549 31.5347 6.29593 31.627 6.38637C31.8693 6.62361 32.1115 6.86101 32.3536 7.09845C32.5999 7.33996 32.8463 7.58132 33.0928 7.82268C33.4907 8.21241 33.8885 8.60222 34.2861 8.99215C34.4355 9.13863 34.5849 9.2851 34.7346 9.43136C34.8092 9.50441 34.8835 9.57772 34.9575 9.65139C34.9907 9.68437 35.0239 9.71734 35.0581 9.75131C35.0909 9.78401 35.1237 9.8167 35.1575 9.85039C35.256 9.94278 35.3551 10.028 35.4592 10.1139C35.8357 10.4356 36.1826 10.7885 36.5352 11.1348C36.6142 11.2121 36.6932 11.2895 36.7722 11.3668C36.9792 11.5695 37.186 11.7724 37.3928 11.9753C37.6031 12.1816 37.8136 12.3877 38.024 12.5939C38.3638 12.9268 38.7036 13.2598 39.0431 13.5929C39.1017 13.6503 39.1603 13.7078 39.2189 13.7652C39.2951 13.8399 39.3709 13.915 39.4467 13.99C39.5734 14.1155 39.5734 14.1155 39.7332 14.242C39.8872 14.3676 40.0266 14.5009 40.1671 14.64C40.2429 14.7143 40.3187 14.7886 40.3945 14.8628C40.486 14.9525 40.5776 15.0422 40.6691 15.1319C41.1805 15.6331 41.6921 16.1342 42.2038 16.6352C42.5132 16.9382 42.8226 17.2412 43.1318 17.5444C43.4024 17.8096 43.673 18.0747 43.9437 18.3397C44.0867 18.4796 44.2297 18.6196 44.3725 18.7598C44.532 18.9162 44.6917 19.0725 44.8515 19.2288C44.8982 19.2747 44.9449 19.3205 44.993 19.3678C45.2276 19.5969 45.4653 19.8176 45.7186 20.0268C45.8543 20.1462 45.963 20.2873 46.0796 20.4242C46.1405 20.4774 46.2023 20.5295 46.2648 20.5808C46.5461 20.8189 46.8067 21.0764 47.0685 21.3346C47.1591 21.4239 47.2499 21.5131 47.3407 21.6022C47.533 21.7909 47.7251 21.9798 47.9171 22.1688C48.1409 22.389 48.3648 22.6091 48.5889 22.829C48.6784 22.9169 48.7677 23.0049 48.857 23.093C48.9115 23.1465 48.9661 23.2 49.0206 23.2535C49.0682 23.3004 49.1158 23.3472 49.1648 23.3954C49.271 23.5041 49.271 23.5041 49.3884 23.5551C49.3912 25.9716 49.3938 28.388 49.3953 30.8044C49.3954 30.8402 49.3954 30.876 49.3954 30.9128C49.3959 31.6908 49.3963 32.4687 49.3968 33.2466C49.397 33.6282 49.3972 34.0097 49.3974 34.3912C49.3974 34.4292 49.3974 34.4671 49.3974 34.5063C49.3981 35.7357 49.3994 36.9652 49.4009 38.1947C49.4024 39.4587 49.4034 40.7227 49.4037 41.9866C49.4038 42.1654 49.4038 42.3441 49.4039 42.5228C49.4039 42.558 49.4039 42.5932 49.4039 42.6294C49.4041 43.2293 49.405 43.8293 49.406 44.4292C49.4069 44.9632 49.4071 45.4971 49.4069 46.0311C49.4068 46.339 49.407 46.6469 49.4078 46.9548C49.4086 47.2371 49.4087 47.5194 49.4081 47.8018C49.4081 47.9035 49.4083 48.0052 49.4088 48.1069C49.4159 49.6051 49.0197 50.9656 47.9239 52.0517C47.751 52.2058 47.5716 52.3432 47.3815 52.4762C47.3452 52.5037 47.3089 52.5312 47.2715 52.5595C46.6648 52.9947 45.8836 53.2235 45.1575 53.3783C45.0743 53.3963 45.0743 53.3963 44.9895 53.4146C43.7887 53.6257 42.4999 53.5384 41.3605 53.113C41.3103 53.0964 41.2601 53.0799 41.2084 53.0628C40.8477 52.9337 40.5443 52.7504 40.2316 52.5359C40.1933 52.5097 40.155 52.4835 40.1156 52.4565C39.0587 51.709 38.3694 50.4846 38.1403 49.2377C38.0541 48.6691 38.0837 48.0847 38.0856 47.5111C38.0861 47.3128 38.0856 47.1144 38.0853 46.916C38.0848 46.5731 38.0849 46.2301 38.0853 45.8872C38.0859 45.3908 38.0854 44.8945 38.0846 44.3981C38.0833 43.592 38.0826 42.7858 38.0824 41.9796C38.0824 41.9315 38.0824 41.8833 38.0823 41.8337C38.0822 41.2961 38.0822 40.7585 38.0822 40.221C38.0823 40.0257 38.0823 39.8305 38.0823 39.6352C38.0823 39.587 38.0823 39.5389 38.0823 39.4892C38.0823 38.6855 38.0815 37.8817 38.0801 37.078C38.0792 36.5829 38.0791 36.0878 38.0799 35.5927C38.0804 35.2537 38.0802 34.9147 38.0793 34.5756C38.0788 34.3802 38.0787 34.1847 38.0795 33.9893C38.0804 33.7772 38.0797 33.5652 38.0787 33.3531C38.0793 33.2916 38.0798 33.2302 38.0803 33.1669C38.076 32.6932 37.9693 32.2836 37.6177 31.9396C37.1367 31.5642 36.5811 31.549 35.9871 31.5482C35.9315 31.5469 35.8759 31.5456 35.8187 31.5443C35.3778 31.5426 35.0773 31.6497 34.7022 31.8666C33.8531 32.7435 34.0218 34.3151 34.023 35.4188C34.0228 35.5649 34.0225 35.7111 34.0221 35.8573C34.0215 36.1705 34.0212 36.4837 34.0212 36.7969C34.0211 37.2507 34.0203 37.7044 34.0192 38.1582C34.0176 38.8958 34.0163 39.6335 34.0153 40.3711C34.0152 40.4151 34.0152 40.4592 34.0151 40.5045C34.0145 40.9957 34.0139 41.4868 34.0135 41.978C34.0133 42.1562 34.0131 42.3344 34.013 42.5127C34.0129 42.5567 34.0129 42.6006 34.0128 42.646C34.0121 43.3812 34.0108 44.1164 34.0089 44.8516C34.0079 45.3038 34.0073 45.7561 34.0074 46.2083C34.0075 46.5184 34.007 46.8285 34.006 47.1386C34.0054 47.317 34.0052 47.4954 34.0056 47.6738C34.0068 48.3897 34.0017 49.0728 33.8207 49.7698C33.8019 49.843 33.8019 49.843 33.7827 49.9177C33.4566 51.1233 32.6389 52.0695 31.5629 52.7216C30.1416 53.5022 28.287 53.7441 26.7126 53.3215C26.4937 53.2591 26.2785 53.1883 26.064 53.113C26.0045 53.0921 25.945 53.0713 25.8837 53.0498C25.2716 52.8175 24.7968 52.442 24.3282 51.9986C24.2908 51.9634 24.2534 51.9281 24.2149 51.8918C23.2169 50.8769 22.9443 49.5111 22.9563 48.1567C22.9566 48.0542 22.9568 47.9518 22.9569 47.8494C22.9576 47.5822 22.9592 47.3151 22.961 47.048C22.9626 46.7744 22.9634 46.5008 22.9642 46.2272C22.9659 45.6923 22.9687 45.1573 22.9721 44.6224C22.9198 44.6231 22.8675 44.6239 22.8137 44.6246C22.7451 44.6252 22.6766 44.6258 22.606 44.6263C22.538 44.6271 22.4701 44.6278 22.4 44.6286C22.0189 44.616 21.7823 44.4547 21.5076 44.1979C21.2201 43.8362 21.0916 43.4784 21.1052 43.0205C21.1634 42.6374 21.3716 42.3237 21.6703 42.0752C21.7083 42.038 21.7464 42.0008 21.7856 41.9625C22.3153 41.6245 22.9719 41.6812 23.5779 41.6845C23.6782 41.6845 23.7785 41.6845 23.8787 41.6844C24.0878 41.6844 24.297 41.685 24.5061 41.6859C24.7733 41.6871 25.0404 41.6872 25.3076 41.6868C25.5143 41.6866 25.721 41.687 25.9276 41.6875C26.0261 41.6877 26.1246 41.6878 26.2231 41.6877C26.3609 41.6877 26.4987 41.6883 26.6365 41.6892C26.6767 41.6891 26.7168 41.6889 26.7581 41.6888C27.2978 41.6941 27.7085 41.855 28.1117 42.2046C28.3885 42.513 28.4891 42.719 28.4812 43.1233C28.4806 43.1656 28.4801 43.2079 28.4795 43.2514C28.4632 43.6943 28.335 44.0185 27.9998 44.3239C27.9343 44.3719 27.8676 44.4184 27.7998 44.4632C27.77 44.4851 27.7402 44.507 27.7095 44.5295C27.4556 44.6871 27.2096 44.6862 26.9164 44.6809C26.8761 44.6805 26.8359 44.6801 26.7944 44.6797C26.6955 44.6787 26.5967 44.6771 26.4979 44.6755C26.5025 45.1792 26.5077 45.683 26.5135 46.1867C26.5162 46.4207 26.5187 46.6546 26.5208 46.8886C26.5228 47.1147 26.5253 47.3407 26.5282 47.5668C26.5292 47.6527 26.53 47.7387 26.5307 47.8246C26.5274 48.5876 26.5274 48.5876 26.759 49.3088C26.775 49.3414 26.791 49.3741 26.8075 49.4077C27.057 49.752 27.4507 49.8513 27.854 49.929C28.5242 49.9957 29.2552 49.9655 29.8241 49.5775C30.1355 49.3281 30.321 49.0172 30.3641 48.626C30.3702 48.4676 30.371 48.31 30.3701 48.1516C30.3704 48.091 30.3706 48.0305 30.3709 47.9682C30.3717 47.7659 30.3713 47.5637 30.3709 47.3614C30.3711 47.2161 30.3716 47.0709 30.3721 46.9256C30.3729 46.6129 30.3732 46.3002 30.3731 45.9876C30.373 45.5343 30.3739 45.0811 30.375 44.6278C30.3768 43.8909 30.378 43.1539 30.3787 42.4169C30.3787 42.3508 30.3787 42.3508 30.3788 42.2834C30.379 42.1048 30.3791 41.9263 30.3793 41.7478C30.3798 41.2577 30.3804 40.7677 30.381 40.2776C30.3811 40.2119 30.3811 40.2119 30.3812 40.1448C30.3822 39.4113 30.3836 38.6778 30.3852 37.9443C30.3862 37.4928 30.3868 37.0414 30.3869 36.59C30.387 36.2798 30.3874 35.9697 30.3881 35.6595C30.3885 35.4812 30.3887 35.3029 30.3885 35.1246C30.3865 33.0711 30.5662 30.9728 32.0951 29.409C32.6057 28.9311 33.1493 28.5591 33.8207 28.3311C33.8755 28.3116 33.9304 28.2921 33.9868 28.272C34.6103 28.0581 35.1868 27.9942 35.8446 27.9959C35.9723 27.9961 36.1 27.9949 36.2277 27.9935C36.9803 27.9903 37.6713 28.1073 38.3805 28.3643C38.4568 28.3918 38.4568 28.3918 38.5346 28.4198C38.9787 28.5866 39.3525 28.7949 39.7332 29.074C39.7865 29.1123 39.8398 29.1505 39.8947 29.1899C40.8341 29.9001 41.4554 30.9653 41.6168 32.1143C41.6721 32.6461 41.6538 33.1853 41.652 33.7193C41.6515 33.9165 41.652 34.1138 41.6523 34.311C41.6528 34.652 41.6528 34.993 41.6523 35.3339C41.6517 35.8277 41.6522 36.3214 41.653 36.8151C41.6543 37.6174 41.655 38.4196 41.6552 39.2219C41.6553 39.2698 41.6553 39.3177 41.6553 39.367C41.6554 39.9017 41.6555 40.4363 41.6554 40.9709C41.6554 41.165 41.6554 41.359 41.6553 41.5531C41.6553 41.601 41.6553 41.6489 41.6553 41.6982C41.6553 42.4979 41.6561 43.2976 41.6576 44.0972C41.6584 44.5895 41.6585 45.0818 41.6577 45.5741C41.6572 45.9114 41.6575 46.2488 41.6583 46.5861C41.6588 46.7804 41.6589 46.9747 41.6581 47.169C41.6572 47.3802 41.658 47.5913 41.6589 47.8025C41.6584 47.8631 41.6578 47.9237 41.6573 47.9861C41.6622 48.5251 41.7661 49.1014 42.1294 49.5267C42.3185 49.6871 42.5336 49.7552 42.7708 49.8229C42.8068 49.8348 42.8428 49.8467 42.8799 49.859C43.6142 50.065 44.558 49.9801 45.2253 49.6224C45.539 49.408 45.664 49.1746 45.7542 48.8146C45.7653 48.6756 45.7719 48.5419 45.773 48.403C45.7737 48.363 45.7744 48.323 45.7751 48.2818C45.7774 48.1479 45.7789 48.0141 45.7804 47.8803C45.7818 47.7833 45.7833 47.6862 45.7848 47.5892C45.7888 47.3227 45.7922 47.0562 45.7954 46.7896C45.7982 46.5609 45.8014 46.3323 45.8046 46.1036C45.8346 43.9305 45.851 41.7573 45.8643 39.584C45.866 39.3008 45.8678 39.0176 45.8696 38.7344C45.8698 38.6992 45.8701 38.664 45.8703 38.6277C45.8778 37.4551 45.8926 36.2828 45.9107 35.1103C45.9286 33.9407 45.9389 32.7712 45.9423 31.6015C45.9444 30.9456 45.9499 30.2902 45.964 29.6344C46.2051 26.6304 46.2051 26.6304 45.0499 23.9996C44.6994 23.6745 44.3205 23.401 43.8938 23.1797C43.8058 23.133 43.722 23.0788 43.6387 23.0245C43.6387 22.9895 43.6387 22.9544 43.6387 22.9183C43.5934 22.9003 43.5934 22.9003 43.5472 22.8819C43.3886 22.7938 43.2768 22.6733 43.1505 22.5469C43.0895 22.4871 43.0285 22.4274 42.9673 22.3677C41.7515 21.1782 40.5356 19.9887 39.3197 18.7992C39.2881 18.7683 39.2564 18.7373 39.2238 18.7055C39.1468 18.63 39.0701 18.5542 38.9935 18.4784C38.8623 18.3518 38.727 18.2315 38.5897 18.1114C38.143 17.7146 37.7205 17.2936 37.2949 16.8754C37.1427 16.7258 36.9903 16.5763 36.8378 16.4269C36.5145 16.11 36.1914 15.7929 35.8684 15.4758C35.5187 15.1325 35.1689 14.7892 34.8189 14.4462C34.6435 14.2744 34.4683 14.1023 34.2932 13.9302C34.201 13.8398 34.1089 13.7494 34.0167 13.6591C33.9756 13.6187 33.9346 13.5782 33.8923 13.5366C33.6732 13.3222 33.4496 13.1174 33.2126 12.9219C33.1077 12.8288 33.0171 12.7293 32.9257 12.6235C32.81 12.4904 32.6954 12.3731 32.5579 12.2618C32.2227 11.9785 31.9151 11.6671 31.603 11.36C31.4859 11.2447 31.3686 11.1297 31.2513 11.0146C31.0024 10.7706 30.7537 10.5263 30.5051 10.282C30.2165 9.9983 29.9277 9.71472 29.6387 9.43136C29.5235 9.31833 29.4085 9.20514 29.2935 9.09194C29.2225 9.02234 29.1516 8.95274 29.0806 8.88315C29.049 8.85194 29.0173 8.82073 28.9848 8.78857C28.7968 8.60468 28.6022 8.43668 28.3964 8.27209C28.2609 8.14582 28.1376 8.02254 28.0235 7.87741C27.8969 7.72806 27.7586 7.61419 27.604 7.49372C27.5791 7.47039 27.5542 7.44706 27.5285 7.42303C27.5285 7.38801 27.5285 7.35298 27.5285 7.3169C27.4978 7.30406 27.467 7.29121 27.4353 7.27798C27.2873 7.19758 27.1873 7.10186 27.0679 6.98438C27.0201 6.93764 26.9723 6.8909 26.9231 6.84275C26.8715 6.79172 26.8199 6.74068 26.7683 6.68964C26.7151 6.63742 26.6619 6.58522 26.6087 6.53305C26.469 6.39596 26.3296 6.25857 26.1903 6.1211C26.048 5.98076 25.9053 5.84072 25.7627 5.70066C25.4831 5.42602 25.2039 5.15104 24.9249 4.87585C24.7381 4.96187 24.6208 5.05762 24.4774 5.2042C24.3261 5.3558 24.1745 5.5015 24.0095 5.63868C23.7896 5.82219 23.5886 6.0221 23.3887 6.22611C23.3242 6.29093 23.2568 6.3531 23.1891 6.41477C23.1533 6.41477 23.1175 6.41477 23.0806 6.41477C23.0806 6.4498 23.0806 6.48482 23.0806 6.52091C23.0048 6.59387 23.0048 6.59387 22.8976 6.6801C22.7146 6.8319 22.5438 6.99047 22.3755 7.1577C22.1833 7.34797 21.9862 7.52645 21.7786 7.70018C21.6561 7.80684 21.5414 7.91911 21.4262 8.03329C21.2793 8.17896 21.131 8.3184 20.9719 8.45119C20.7891 8.6044 20.6188 8.76786 20.4498 8.93542C20.2509 9.13274 20.0467 9.31944 19.8311 9.49924C19.6883 9.6244 19.5538 9.75712 19.4192 9.89061C19.2202 10.0879 19.0161 10.2746 18.8005 10.4544C18.6303 10.6036 18.4715 10.7636 18.3111 10.9227C18.1351 11.0963 17.9527 11.2581 17.7627 11.4167C17.597 11.5607 17.4439 11.7165 17.2883 11.8708C17.1803 11.975 17.0698 12.0727 16.9546 12.1691C16.7825 12.3134 16.6223 12.4658 16.463 12.6235C16.3059 12.7791 16.1483 12.9294 15.9782 13.0713C15.7685 13.2466 15.5758 13.4369 15.3822 13.6288C15.2038 13.8048 15.019 13.9693 14.8264 14.1301C14.7256 14.2169 14.6314 14.3076 14.5374 14.4012C14.411 14.5271 14.2813 14.6449 14.1441 14.7594C13.9592 14.9151 13.7864 15.0805 13.6152 15.2503C13.4128 15.4511 13.205 15.6416 12.9857 15.8247C12.8744 15.921 12.7703 16.0223 12.666 16.1259C12.5293 16.2617 12.3904 16.3902 12.2422 16.5139C12.0584 16.6683 11.8868 16.8328 11.7167 17.0015C11.517 17.1995 11.3125 17.3873 11.0957 17.5674C10.9065 17.7331 10.7321 17.9135 10.556 18.0924C10.442 18.1955 10.442 18.1955 10.3335 18.1955C10.3335 18.2305 10.3335 18.2655 10.3335 18.3016C10.2596 18.3727 10.2596 18.3727 10.1539 18.4575C9.93188 18.6416 9.72802 18.8392 9.52376 19.0418C9.3489 19.2142 9.16772 19.3748 8.97895 19.5323C8.84651 19.6479 8.7225 19.7701 8.59777 19.8936C8.44068 20.0491 8.28303 20.1995 8.11297 20.3413C7.90317 20.5167 7.7104 20.7071 7.51676 20.8991C7.34077 21.0727 7.15837 21.2345 6.96836 21.3931C6.84646 21.4991 6.73241 21.6108 6.6179 21.7244C6.47211 21.8689 6.32509 22.0073 6.16701 22.1389C5.94245 22.3271 5.73701 22.5316 5.52944 22.7372C5.34398 22.92 5.15278 23.0923 4.95226 23.2593C4.85206 23.3454 4.75858 23.4356 4.66515 23.5286C4.53984 23.6534 4.41142 23.7701 4.27528 23.8835C4.08229 24.0457 3.90411 24.22 3.72607 24.3976C2.89581 25.2173 2.89581 25.2173 2.30559 25.3594C2.26979 25.3769 2.23399 25.3944 2.1971 25.4125C1.72724 25.4546 1.24963 25.4221 0.855226 25.1513C0.457843 24.8172 0.116284 24.4181 0.061499 23.8928C0.0425487 23.2878 0.159723 22.9143 0.569815 22.4474C0.826575 22.1807 1.10206 21.9345 1.37922 21.6885C1.51688 21.5659 1.64962 21.4397 1.78011 21.3098C1.91109 21.1795 2.04496 21.057 2.18693 20.9383C2.37079 20.7839 2.54233 20.6194 2.71241 20.4508C2.87803 20.2865 3.04455 20.126 3.22433 19.9765C3.44701 19.7909 3.64996 19.5881 3.85538 19.3846C4.03842 19.2042 4.22714 19.0346 4.42509 18.8698C4.59027 18.7265 4.74264 18.5711 4.89759 18.4175C5.00562 18.3133 5.11608 18.2156 5.23132 18.1192C5.40342 17.9749 5.5636 17.8225 5.72289 17.6648C5.91388 17.4757 6.10975 17.2985 6.31617 17.1258C6.44916 17.0095 6.5739 16.8868 6.69926 16.7627C6.89026 16.5735 7.08612 16.3964 7.29255 16.2237C7.42554 16.1074 7.55027 15.9847 7.67564 15.8605C7.86663 15.6714 8.06249 15.4942 8.26892 15.3216C8.40191 15.2053 8.52665 15.0826 8.65201 14.9584C8.80909 14.8029 8.96675 14.6525 9.13681 14.5107C9.34657 14.3353 9.5393 14.145 9.7329 13.953C9.91009 13.7782 10.0937 13.6151 10.285 13.4554C10.4349 13.3257 10.5731 13.1856 10.7135 13.0462C10.8508 12.9139 10.996 12.7924 11.1423 12.6699C11.3173 12.5163 11.4791 12.3503 11.6417 12.1843C11.7439 12.0929 11.7439 12.0929 11.8523 12.0929C11.8523 12.0578 11.8523 12.0228 11.8523 11.9867C11.9282 11.9138 11.9282 11.9138 12.0354 11.8275C12.2184 11.6757 12.3892 11.5172 12.5575 11.3499C12.7146 11.1944 12.8722 11.0441 13.0423 10.9022C13.252 10.7269 13.4447 10.5366 13.6383 10.3446C13.8162 10.1691 14.0004 10.0048 14.1928 9.8448C14.3347 9.72215 14.4646 9.58921 14.5946 9.45468C14.673 9.38648 14.673 9.38648 14.7815 9.38648C14.7815 9.35145 14.7815 9.31643 14.7815 9.28035C14.8554 9.20925 14.8554 9.20925 14.9611 9.12446C15.1831 8.94039 15.3869 8.74285 15.5911 8.54026C15.7667 8.36708 15.9484 8.20539 16.1384 8.04759C16.3118 7.89627 16.4713 7.73161 16.6321 7.56751C16.7342 7.4761 16.7342 7.4761 16.8427 7.4761C16.8427 7.44107 16.8427 7.40605 16.8427 7.36996C16.9185 7.297 16.9185 7.297 17.0258 7.21077C17.2087 7.05897 17.3795 6.9004 17.5479 6.73317C17.7049 6.57762 17.8626 6.42729 18.0326 6.28542C18.2145 6.13343 18.3835 5.97096 18.5513 5.80451C18.7503 5.60719 18.9544 5.42049 19.1701 5.24068C19.3403 5.09155 19.4991 4.93151 19.6595 4.77244C19.8355 4.59884 20.0179 4.43702 20.2079 4.27845C20.3736 4.13443 20.5267 3.97858 20.6823 3.82427C20.7903 3.72009 20.9008 3.62239 21.016 3.52598C21.1881 3.38171 21.3483 3.22934 21.5076 3.0716C21.6997 2.88133 21.8968 2.70285 22.1045 2.52913C22.2706 2.38441 22.4244 2.22817 22.5806 2.0733C22.723 1.93588 22.8729 1.80925 23.0247 1.68193C23.1477 1.57456 23.2632 1.46176 23.379 1.34695C23.5259 1.20129 23.6741 1.06185 23.8332 0.929058C24.0748 0.726908 24.2952 0.505314 24.5172 0.283143C24.8263 -0.011713 24.8263 -0.011713 24.9742 0.00655701Z" fill="#1E99D7"/>
<path d="M8.79117 28.3939C8.82549 28.4143 8.85982 28.4347 8.89518 28.4557C9.16137 28.6186 9.39408 28.8051 9.62049 29.0185C9.73654 29.1301 9.73654 29.1301 9.87285 29.2295C10.7098 29.9074 11.1239 31.1458 11.3101 32.1517C11.3306 32.3842 11.3318 32.6149 11.3302 32.8482C11.3305 32.9148 11.3307 32.9814 11.3309 33.05C11.3314 33.2328 11.331 33.4156 11.3304 33.5983C11.3299 33.7962 11.3303 33.9941 11.3307 34.192C11.3312 34.5343 11.3311 34.8766 11.3307 35.2189C11.3301 35.7142 11.3306 36.2095 11.3314 36.7049C11.3327 37.5093 11.3334 38.3137 11.3336 39.1181C11.3336 39.1662 11.3336 39.2142 11.3336 39.2637C11.3338 39.8003 11.3338 40.3369 11.3338 40.8735C11.3337 41.0684 11.3337 41.2632 11.3337 41.458C11.3337 41.5061 11.3337 41.5542 11.3337 41.6037C11.3337 42.4056 11.3345 43.2075 11.3359 44.0094C11.3368 44.5035 11.3369 44.9976 11.3361 45.4917C11.3356 45.8301 11.3358 46.1684 11.3367 46.5068C11.3372 46.7019 11.3373 46.897 11.3364 47.0921C11.3356 47.3038 11.3363 47.5154 11.3373 47.727C11.3367 47.7885 11.3362 47.85 11.3357 47.9133C11.34 48.3896 11.4562 48.7252 11.7983 49.0798C12.3893 49.4952 12.9707 49.677 13.6968 49.6104C13.8552 49.5768 13.9878 49.5253 14.1307 49.4512C14.1668 49.4332 14.2029 49.4151 14.24 49.3965C14.8625 49.0525 15.073 48.5331 15.2725 47.8872C15.3444 47.6004 15.339 47.3167 15.3377 47.0229C15.3379 46.9608 15.338 46.8988 15.3382 46.8349C15.3385 46.6637 15.3384 46.4924 15.338 46.3212C15.3378 46.1361 15.3382 45.951 15.3385 45.766C15.339 45.4454 15.3391 45.1248 15.3389 44.8042C15.3388 44.3395 15.3394 43.8748 15.3403 43.4101C15.3417 42.6546 15.3428 41.8991 15.3435 41.1436C15.3435 41.0984 15.3436 41.0532 15.3436 41.0067C15.3442 40.3667 15.3445 39.7267 15.3447 39.0866C15.3447 39.0416 15.3447 38.9966 15.3447 38.9503C15.3447 38.9053 15.3447 38.8604 15.3447 38.8141C15.3449 38.0621 15.346 37.3101 15.3477 36.5582C15.3487 36.0953 15.3491 35.6325 15.3485 35.1696C15.3481 34.8517 15.3486 34.5337 15.3496 34.2158C15.3502 34.0329 15.3504 33.8501 15.3497 33.6673C15.3447 32.0438 15.5824 30.5264 16.7344 29.2861C16.7792 29.2358 16.7792 29.2358 16.8248 29.1845C17.75 28.2057 19.1929 27.7448 20.5196 27.6876C21.8813 27.6494 23.1758 27.7732 24.3284 28.5432C24.3821 28.5782 24.4358 28.6132 24.4911 28.6493C24.4911 28.6843 24.4911 28.7193 24.4911 28.7554C24.5211 28.7589 24.5511 28.7624 24.582 28.766C25.0678 28.9297 25.6373 29.7168 25.8516 30.1467C25.8899 30.2478 25.9229 30.3507 25.9557 30.4535C25.991 30.5313 26.0272 30.6087 26.0642 30.6857C26.4666 31.5723 26.46 32.5204 26.4544 33.4735C26.4542 33.5769 26.4541 33.6804 26.454 33.7838C26.4536 34.0527 26.4525 34.3217 26.4513 34.5906C26.4502 34.8663 26.4497 35.1421 26.4492 35.4178C26.448 35.9565 26.4462 36.4951 26.4439 37.0337C26.5033 37.0327 26.5628 37.0317 26.6241 37.0307C26.7029 37.0299 26.7818 37.0291 26.8606 37.0284C26.8997 37.0276 26.9388 37.0269 26.9791 37.0262C27.4627 37.0226 27.7584 37.1876 28.1137 37.4918C28.1796 37.5644 28.1796 37.5644 28.1796 37.6705C28.2154 37.6705 28.2512 37.6705 28.2881 37.6705C28.5065 38.0978 28.5289 38.6142 28.4191 39.0784C28.2492 39.4626 27.8636 39.7614 27.4766 39.9187C27.2747 39.9801 27.0734 39.9754 26.8634 39.9747C26.8145 39.9751 26.7656 39.9756 26.7152 39.976C26.5543 39.9773 26.3935 39.9773 26.2326 39.9773C26.1201 39.9776 26.0077 39.978 25.8952 39.9785C25.6597 39.9792 25.4242 39.9793 25.1887 39.979C24.8879 39.9787 24.5872 39.9803 24.2864 39.9824C24.0542 39.9838 23.8219 39.9839 23.5897 39.9838C23.4788 39.9838 23.368 39.9844 23.2572 39.9853C22.1028 39.9941 22.1028 39.9941 21.5825 39.5716C21.242 39.1797 21.0933 38.8708 21.1088 38.3504C21.1542 37.9988 21.3007 37.6539 21.562 37.4052C21.894 37.1642 22.1274 37.026 22.5485 37.0304C22.6075 37.0309 22.6664 37.0314 22.7272 37.0319C22.7723 37.0325 22.8174 37.0331 22.8638 37.0337C22.8605 36.4253 22.8563 35.8168 22.851 35.2084C22.8486 34.9258 22.8465 34.6433 22.845 34.3607C22.8436 34.0879 22.8414 33.815 22.8387 33.5422C22.8378 33.4382 22.8372 33.3343 22.8368 33.2304C22.8363 33.0844 22.8348 32.9385 22.833 32.7926C22.8331 32.7286 22.8331 32.7286 22.8333 32.6634C22.8264 32.256 22.7069 31.8807 22.4299 31.5679C21.9788 31.2954 21.6141 31.2399 21.0941 31.2396C21.0428 31.2389 20.9914 31.2383 20.9384 31.2376C20.3713 31.2365 19.8815 31.2933 19.4465 31.6741C19.0269 32.1417 18.9963 32.6496 18.9986 33.2497C18.9983 33.3411 18.9983 33.3411 18.998 33.4345C18.9974 33.6381 18.9976 33.8416 18.9979 34.0452C18.9977 34.1915 18.9973 34.3378 18.997 34.4841C18.9963 34.7989 18.9961 35.1137 18.996 35.4285C18.996 35.8848 18.9951 36.3411 18.9941 36.7974C18.9924 37.5394 18.9911 38.2813 18.9902 39.0232C18.9901 39.0676 18.99 39.112 18.99 39.1577C18.9893 39.6519 18.9888 40.1461 18.9883 40.6403C18.9882 40.8192 18.988 40.998 18.9878 41.1769C18.9878 41.221 18.9877 41.2651 18.9877 41.3106C18.987 42.0492 18.9856 42.7877 18.9838 43.5263C18.9827 43.9808 18.9822 44.4353 18.9823 44.8898C18.9824 45.202 18.9818 45.5142 18.9809 45.8264C18.9803 46.0059 18.9801 46.1854 18.9805 46.3649C18.9822 47.365 18.9529 48.3522 18.6227 49.3086C18.5982 49.3813 18.5982 49.3813 18.5732 49.4554C18.329 50.1531 17.9667 50.7355 17.4938 51.3085C17.4666 51.3432 17.4395 51.3779 17.4116 51.4136C16.5209 52.5078 15.0684 53.0042 13.6968 53.1659C12.0918 53.2527 10.4312 52.6249 9.23592 51.5834C8.83682 51.2192 8.54803 50.8118 8.27247 50.3533C8.24345 50.3068 8.21444 50.2603 8.18454 50.2124C7.62008 49.2738 7.70595 48.0747 7.70895 47.025C7.70933 46.83 7.70875 46.6351 7.70829 46.4402C7.70761 46.1036 7.7075 45.767 7.70777 45.4305C7.70814 44.9433 7.70745 44.4562 7.70649 43.9691C7.70494 43.1778 7.70399 42.3865 7.70353 41.5952C7.7035 41.548 7.70347 41.5008 7.70345 41.4521C7.70323 41.0689 7.70304 40.6857 7.70285 40.3024C7.70268 39.9666 7.70251 39.6307 7.70231 39.2948C7.70228 39.2475 7.70226 39.2002 7.70223 39.1514C7.70175 38.3621 7.70065 37.5727 7.69909 36.7833C7.69815 36.2974 7.6978 35.8115 7.69818 35.3255C7.69841 34.9929 7.69806 34.6604 7.69727 34.3278C7.69683 34.1361 7.69666 33.9444 7.6972 33.7527C7.69779 33.5447 7.69712 33.3367 7.69633 33.1287C7.69671 33.0685 7.69708 33.0083 7.69747 32.9462C7.69401 32.4765 7.61953 32.0392 7.2961 31.6741C6.58384 31.158 5.69194 31.1556 4.83824 31.2657C4.45592 31.3386 4.12835 31.4848 3.87879 31.7802C3.59536 32.1937 3.6317 32.6642 3.635 33.1413C3.63483 33.2315 3.63456 33.3217 3.63421 33.4118C3.63351 33.6589 3.63417 33.906 3.63505 34.153C3.63576 34.4198 3.63523 34.6865 3.63484 34.9533C3.6343 35.4756 3.63491 35.9979 3.63591 36.5202C3.63704 37.1286 3.63703 37.737 3.63698 38.3454C3.63692 39.4312 3.63792 40.517 3.63949 41.6027C3.64102 42.6559 3.64179 43.7091 3.64172 44.7623C3.64171 44.8271 3.64171 44.892 3.64171 44.9588C3.6417 45.0235 3.6417 45.0882 3.64169 45.1549C3.64162 46.3544 3.64226 47.5538 3.64323 48.7532C3.64355 49.1771 3.64367 49.601 3.64372 50.0249C3.64379 50.5418 3.64428 51.0586 3.64527 51.5754C3.64577 51.839 3.64611 52.1026 3.64597 52.3662C3.64585 52.6077 3.64624 52.8492 3.64702 53.0907C3.64721 53.1779 3.64723 53.2651 3.64704 53.3522C3.64528 54.2789 3.75853 55.2057 4.42122 55.9253C4.84858 56.2737 5.38209 56.4095 5.92977 56.4096C6.023 56.4098 6.023 56.4098 6.11813 56.41C6.21997 56.4098 6.21997 56.4098 6.32388 56.4097C6.39734 56.4097 6.47081 56.4098 6.54427 56.4099C6.74673 56.4102 6.9492 56.4101 7.15166 56.4099C7.37171 56.4098 7.59176 56.41 7.81181 56.4102C8.19768 56.4105 8.58354 56.4105 8.96941 56.4105C9.54322 56.4104 10.117 56.4106 10.6908 56.4109C11.5969 56.4114 12.503 56.4116 13.4091 56.4118C14.8475 56.4121 16.2858 56.4129 17.7242 56.4139C18.0302 56.4141 18.3362 56.4143 18.6423 56.4145C18.7033 56.4146 18.7643 56.4146 18.8271 56.4147C18.9507 56.4147 19.0744 56.4148 19.198 56.4149C19.3221 56.415 19.4462 56.4151 19.5702 56.4152C21.0338 56.4162 22.4974 56.4171 23.961 56.4179C24.0251 56.4179 24.0891 56.418 24.1551 56.418C26.2324 56.4192 28.3097 56.4198 30.387 56.4202C32.5223 56.4206 34.6575 56.4217 36.7928 56.4237C37.0942 56.424 37.3957 56.4242 37.6972 56.4245C37.7565 56.4245 37.8159 56.4246 37.877 56.4247C38.8324 56.4255 39.7879 56.4255 40.7433 56.4253C41.7033 56.425 42.6634 56.4256 43.6234 56.4269C44.1939 56.4276 44.7644 56.4278 45.335 56.4271C45.716 56.4267 46.0971 56.427 46.4781 56.428C46.6952 56.4286 46.9124 56.4288 47.1295 56.428C47.3272 56.4274 47.5249 56.4277 47.7227 56.4288C47.8269 56.4291 47.9311 56.4284 48.0354 56.4277C48.6359 56.4328 49.1155 56.5638 49.5543 56.9746C49.9598 57.4286 50.0221 57.894 49.9943 58.475C49.952 58.9616 49.6449 59.329 49.2801 59.6399C48.8004 59.9286 48.3705 60.0045 47.8152 59.9981C47.7409 59.9984 47.6666 59.9988 47.5923 59.9994C47.3892 60.0005 47.1862 59.9997 46.9831 59.9986C46.7617 59.9977 46.5404 59.9986 46.319 59.9993C45.9314 60.0003 45.5438 60.0001 45.1563 59.9991C44.5799 59.9977 44.0035 59.9981 43.4271 59.9988C42.3975 60.0001 41.3678 59.9995 40.3382 59.9982C39.437 59.9971 38.5357 59.9967 37.6344 59.9968C37.5746 59.9968 37.5148 59.9968 37.4532 59.9968C37.2104 59.9969 36.9676 59.9969 36.7249 59.9969C34.4474 59.9974 32.17 59.996 29.8926 59.9938C27.8704 59.9919 25.8482 59.9912 23.8259 59.9918C23.6961 59.9919 23.5663 59.9919 23.4366 59.9919C23.3724 59.992 23.3082 59.992 23.2421 59.992C22.9191 59.9921 22.596 59.9922 22.273 59.9922C22.2093 59.9923 22.1455 59.9923 22.0799 59.9923C20.3892 59.9927 18.6985 59.9921 17.0078 59.9912C16.8258 59.9911 16.6438 59.991 16.4618 59.991C16.3411 59.9909 16.2203 59.9908 16.0996 59.9908C15.2589 59.9903 14.4181 59.9902 13.5774 59.9905C12.4935 59.9907 11.4096 59.9903 10.3257 59.9886C9.75289 59.9878 9.18006 59.9875 8.60723 59.9881C8.22404 59.9884 7.84085 59.9879 7.45766 59.9868C7.23969 59.9862 7.02174 59.986 6.80378 59.9866C4.9227 59.9919 3.25047 59.7131 1.83451 58.4028C0.976276 57.5153 0.510534 56.505 0.227566 55.3283C0.213752 55.2712 0.199938 55.214 0.185705 55.1552C0.166465 55.0714 0.166465 55.0714 0.146837 54.9859C0.129918 54.9123 0.129918 54.9123 0.112657 54.8372C0.0171626 54.2634 0.0194578 53.6855 0.0195621 53.106C0.0193828 53.015 0.0191808 52.924 0.0189579 52.833C0.0184183 52.5844 0.0182135 52.3357 0.0180689 52.0871C0.0178561 51.8184 0.0173364 51.5497 0.0168638 51.281C0.0157954 50.6331 0.0152464 49.9851 0.0147632 49.3372C0.014525 49.0316 0.0142343 48.7261 0.0139504 48.4205C0.0130282 47.4042 0.0122415 46.388 0.0118481 45.3717C0.0117445 45.1084 0.0116405 44.8451 0.0115344 44.5818C0.0115082 44.5164 0.011482 44.451 0.0114549 44.3835C0.0110045 43.3231 0.00962955 42.2627 0.0078686 41.2023C0.00607341 40.1123 0.00509776 39.0224 0.00492454 37.9324C0.00480726 37.3209 0.00433462 36.7095 0.00294638 36.098C0.00176712 35.5774 0.00133307 35.0568 0.00185963 34.5362C0.00210558 34.2708 0.00200701 34.0055 0.000950839 33.7401C-9.61513e-06 33.4967 5.20536e-05 33.2533 0.000891245 33.0099C0.00101951 32.9223 0.000788261 32.8348 0.000140538 32.7472C-0.00880297 31.4573 0.408814 30.2148 1.33785 29.2776C1.97788 28.6478 1.97788 28.6478 2.35999 28.5432C2.35999 28.5081 2.35999 28.4731 2.35999 28.437C4.32707 27.5676 6.85024 27.2212 8.79117 28.3939Z" fill="#F49821"/>
<path d="M21.0195 19.8401C22.004 19.8401 22.9885 19.8401 24.0029 19.8401C24.0029 20.8032 24.0029 21.7664 24.0029 22.7587C23.0184 22.7587 22.0339 22.7587 21.0195 22.7587C21.0195 21.7956 21.0195 20.8324 21.0195 19.8401Z" fill="#2198D4"/>
<path d="M26.0098 19.8409C26.733 19.8392 26.733 19.8392 27.4709 19.8375C27.6234 19.8371 27.7758 19.8366 27.9328 19.8361C28.0528 19.8359 28.1728 19.8358 28.2928 19.8357C28.3558 19.8354 28.4188 19.8351 28.4837 19.8348C28.5431 19.8348 28.6026 19.8348 28.6638 19.8348C28.7158 19.8347 28.7677 19.8346 28.8212 19.8345C28.9389 19.8409 28.9389 19.8409 28.9931 19.8939C28.9982 19.9835 28.9995 20.0733 28.9993 20.163C28.9993 20.2212 28.9993 20.2793 28.9993 20.3393C28.999 20.4009 28.9987 20.4625 28.9984 20.5259C28.9984 20.5822 28.9983 20.6385 28.9983 20.6965C28.998 20.9077 28.9972 21.1188 28.9965 21.33C28.9954 21.8017 28.9943 22.2735 28.9931 22.7595C28.0086 22.7595 27.0241 22.7595 26.0098 22.7595C26.0098 21.7963 26.0098 20.8332 26.0098 19.8409Z" fill="#289BD4"/>
<path d="M26.0098 15.2236C26.9943 15.2236 27.9788 15.2236 28.9931 15.2236C28.9931 16.1693 28.9931 17.1149 28.9931 18.0892C28.0086 18.0892 27.0241 18.0892 26.0098 18.0892C26.0098 17.1436 26.0098 16.1979 26.0098 15.2236Z" fill="#2394D2"/>
<path d="M21.0737 15.2236C22.0403 15.2236 23.0069 15.2236 24.0028 15.2236C24.0028 16.1693 24.0028 17.1149 24.0028 18.0892C23.0362 18.0892 22.0696 18.0892 21.0737 18.0892C21.0737 17.1436 21.0737 16.1979 21.0737 15.2236Z" fill="#2294D3"/>
<path d="M71.9375 18.25V41H67.6562V18.25H71.9375ZM79 18.25V21.6406H60.6719V18.25H79ZM87.6719 41.3125C86.3906 41.3125 85.2396 41.1042 84.2188 40.6875C83.1979 40.2708 82.3281 39.6927 81.6094 38.9531C80.901 38.2031 80.3542 37.3333 79.9688 36.3438C79.5938 35.3438 79.4062 34.2708 79.4062 33.125V32.5C79.4062 31.1979 79.5938 30.0156 79.9688 28.9531C80.3438 27.8802 80.875 26.9583 81.5625 26.1875C82.25 25.4167 83.0729 24.8229 84.0312 24.4062C84.9896 23.9896 86.0469 23.7812 87.2031 23.7812C88.401 23.7812 89.4583 23.9844 90.375 24.3906C91.2917 24.7865 92.0573 25.349 92.6719 26.0781C93.2865 26.8073 93.75 27.6823 94.0625 28.7031C94.375 29.7135 94.5312 30.8333 94.5312 32.0625V33.7969H81.2812V30.9531H90.4688V30.6406C90.4479 29.9844 90.3229 29.3854 90.0938 28.8438C89.8646 28.2917 89.5104 27.8542 89.0312 27.5312C88.5521 27.1979 87.9323 27.0312 87.1719 27.0312C86.5573 27.0312 86.0208 27.1667 85.5625 27.4375C85.1146 27.6979 84.7396 28.0729 84.4375 28.5625C84.1458 29.0417 83.9271 29.6146 83.7812 30.2812C83.6354 30.9479 83.5625 31.6875 83.5625 32.5V33.125C83.5625 33.8333 83.6562 34.4896 83.8438 35.0938C84.0417 35.6979 84.3281 36.224 84.7031 36.6719C85.0885 37.1094 85.5469 37.4531 86.0781 37.7031C86.6198 37.9427 87.2344 38.0625 87.9219 38.0625C88.7865 38.0625 89.5677 37.8958 90.2656 37.5625C90.974 37.2188 91.5885 36.7135 92.1094 36.0469L94.1875 38.2031C93.8333 38.724 93.3542 39.224 92.75 39.7031C92.1562 40.1823 91.4375 40.5729 90.5938 40.875C89.75 41.1667 88.776 41.3125 87.6719 41.3125ZM108.641 24.0938V27.3594H100.375V24.0938H108.641ZM101.469 24.0938V41H97.3281V24.0938H101.469ZM111.766 24.0938V41H107.609V24.0938H111.766ZM126.875 24.0938V27.3594H118.594V24.0938H126.875ZM129.984 24.0938V41H125.859V24.0938H129.984ZM117.562 24.0938H121.641L121.188 32.5312C121.115 33.7708 120.984 34.8594 120.797 35.7969C120.609 36.724 120.359 37.5208 120.047 38.1875C119.734 38.8438 119.354 39.3802 118.906 39.7969C118.458 40.2135 117.938 40.5208 117.344 40.7188C116.76 40.9062 116.104 41 115.375 41H114.109L114.062 37.6719L114.656 37.625C115.021 37.5938 115.333 37.4948 115.594 37.3281C115.865 37.1615 116.094 36.9219 116.281 36.6094C116.479 36.2969 116.641 35.8958 116.766 35.4062C116.901 34.9062 117.005 34.3229 117.078 33.6562C117.161 32.9792 117.219 32.1979 117.25 31.3125L117.562 24.0938ZM133.031 32.7188V32.3906C133.031 31.151 133.208 30.0104 133.562 28.9688C133.917 27.9167 134.432 27.0052 135.109 26.2344C135.786 25.4635 136.615 24.8646 137.594 24.4375C138.573 24 139.688 23.7812 140.938 23.7812C142.208 23.7812 143.333 24 144.312 24.4375C145.302 24.8646 146.135 25.4635 146.812 26.2344C147.49 27.0052 148.005 27.9167 148.359 28.9688C148.714 30.0104 148.891 31.151 148.891 32.3906V32.7188C148.891 33.9479 148.714 35.0885 148.359 36.1406C148.005 37.1823 147.49 38.0938 146.812 38.875C146.135 39.6458 145.307 40.2448 144.328 40.6719C143.349 41.099 142.229 41.3125 140.969 41.3125C139.719 41.3125 138.599 41.099 137.609 40.6719C136.62 40.2448 135.786 39.6458 135.109 38.875C134.432 38.0938 133.917 37.1823 133.562 36.1406C133.208 35.0885 133.031 33.9479 133.031 32.7188ZM137.156 32.3906V32.7188C137.156 33.4583 137.229 34.151 137.375 34.7969C137.521 35.4427 137.745 36.0104 138.047 36.5C138.349 36.9896 138.74 37.375 139.219 37.6562C139.708 37.9271 140.292 38.0625 140.969 38.0625C141.635 38.0625 142.208 37.9271 142.688 37.6562C143.167 37.375 143.557 36.9896 143.859 36.5C144.172 36.0104 144.401 35.4427 144.547 34.7969C144.693 34.151 144.766 33.4583 144.766 32.7188V32.3906C144.766 31.6615 144.693 30.9792 144.547 30.3438C144.401 29.6979 144.172 29.1302 143.859 28.6406C143.557 28.1406 143.161 27.75 142.672 27.4688C142.193 27.1771 141.615 27.0312 140.938 27.0312C140.271 27.0312 139.698 27.1771 139.219 27.4688C138.74 27.75 138.349 28.1406 138.047 28.6406C137.745 29.1302 137.521 29.6979 137.375 30.3438C137.229 30.9792 137.156 31.6615 137.156 32.3906ZM160.203 33.8438H154.844L154.812 31.0469H159.219C159.875 31.0469 160.411 30.9792 160.828 30.8438C161.245 30.7083 161.552 30.5052 161.75 30.2344C161.958 29.9635 162.062 29.6354 162.062 29.25C162.062 28.9167 162 28.6302 161.875 28.3906C161.75 28.1406 161.562 27.9375 161.312 27.7812C161.073 27.625 160.766 27.5104 160.391 27.4375C160.026 27.3542 159.599 27.3125 159.109 27.3125H156.312V41H152.172V24.0938H159.109C160.203 24.0938 161.188 24.1927 162.062 24.3906C162.938 24.5781 163.682 24.8646 164.297 25.25C164.911 25.6354 165.38 26.125 165.703 26.7188C166.036 27.3021 166.203 27.9896 166.203 28.7812C166.203 29.3021 166.089 29.7917 165.859 30.25C165.63 30.7083 165.292 31.1146 164.844 31.4688C164.396 31.8229 163.844 32.1146 163.188 32.3438C162.531 32.5625 161.781 32.6979 160.938 32.75L160.203 33.8438ZM160.203 41H153.734L155.266 37.7812H160.203C160.807 37.7812 161.307 37.7083 161.703 37.5625C162.099 37.4062 162.391 37.1823 162.578 36.8906C162.776 36.599 162.875 36.2448 162.875 35.8281C162.875 35.4219 162.781 35.0729 162.594 34.7812C162.417 34.4792 162.13 34.25 161.734 34.0938C161.349 33.9271 160.839 33.8438 160.203 33.8438H155.938L155.969 31.0469H160.922L162.016 32.1562C163.141 32.2292 164.073 32.4583 164.812 32.8438C165.552 33.2188 166.104 33.6979 166.469 34.2812C166.833 34.8542 167.016 35.4844 167.016 36.1719C167.016 36.974 166.865 37.6771 166.562 38.2812C166.26 38.8854 165.818 39.3906 165.234 39.7969C164.651 40.1927 163.938 40.4948 163.094 40.7031C162.25 40.901 161.286 41 160.203 41ZM174.188 35.1094L180.344 24.0938H184.484V41H180.344V29.9688L174.188 41H170.047V24.0938H174.188V35.1094ZM192.641 24.0938V41H188.516V24.0938H192.641ZM203.656 24.0938L196.203 34.4688H191.812L191.297 30.6875H194.344L198.453 24.0938H203.656ZM198.703 41L194.078 33.75L197.516 31.5938L204.188 41H198.703Z" fill="#444444"/>
</svg>
