<svg width="199" height="43" viewBox="0 0 199 43" fill="none" xmlns="http://www.w3.org/2000/svg">
<rect x="0.5" y="0.5" width="198" height="42" rx="9.5" stroke="#FF0505"/>
<path d="M11.416 13.7812H13.8672V18.1855C13.8672 18.8561 13.9681 19.3835 14.1699 19.7676C14.3717 20.1452 14.6777 20.4121 15.0879 20.5684C15.5046 20.7246 16.0221 20.8027 16.6406 20.8027C16.9401 20.8027 17.2559 20.7897 17.5879 20.7637C17.9199 20.7376 18.252 20.7018 18.584 20.6562C18.9225 20.6042 19.248 20.5456 19.5605 20.4805C19.873 20.4089 20.1595 20.3307 20.4199 20.2461V22.1895C20.166 22.2676 19.8861 22.3424 19.5801 22.4141C19.2806 22.4857 18.9681 22.5475 18.6426 22.5996C18.3171 22.6452 17.985 22.681 17.6465 22.707C17.3079 22.7331 16.9727 22.7461 16.6406 22.7461C15.5664 22.7461 14.6387 22.5931 13.8574 22.2871C13.0762 21.9746 12.474 21.4831 12.0508 20.8125C11.6276 20.1419 11.416 19.2663 11.416 18.1855V13.7812ZM19.8633 13.7812H22.3145V28H19.8633V13.7812ZM25.5859 27.082L32.5098 16.623L34.2285 17.541L27.3145 28L25.5859 27.082ZM32.5098 16.623H34.873V28H32.5098V16.623ZM24.9609 16.623H27.3145V28H24.9609V16.623ZM42.4707 16.623V28H40.1172V16.623H42.4707ZM46.2598 16.623V18.498H36.377V16.623H46.2598ZM52.5195 18.957L49.1016 28H46.7188L51.2988 16.623H52.8809L52.5195 18.957ZM55.6738 28L52.2363 18.9375L51.875 16.623H53.4863L58.0566 28H55.6738ZM55.5273 23.7812V25.5488H49.0234V23.7812H55.5273ZM63.9746 16.623V28H61.6211V16.623H63.9746ZM67.7637 16.623V18.498H57.8809V16.623H67.7637ZM74.0234 20.5781C74.9609 20.5781 75.765 20.7344 76.4355 21.0469C77.1126 21.3529 77.6335 21.7826 77.998 22.3359C78.3626 22.8828 78.5449 23.5241 78.5449 24.2598C78.5449 24.9889 78.3626 25.6367 77.998 26.2031C77.6335 26.763 77.1126 27.2025 76.4355 27.5215C75.765 27.8405 74.9609 28 74.0234 28H69.2969V16.623H71.6504V26.125H74.0234C74.7591 26.125 75.3027 25.9362 75.6543 25.5586C76.0124 25.1745 76.1914 24.735 76.1914 24.2402C76.1914 23.9147 76.1133 23.6185 75.957 23.3516C75.8008 23.0846 75.5632 22.8698 75.2441 22.707C74.9251 22.5378 74.5182 22.4531 74.0234 22.4531H70.8594V20.5781H74.0234ZM87.2852 16.623H89.6191L89.5215 20.666C89.4954 21.623 89.4108 22.4661 89.2676 23.1953C89.1309 23.9245 88.9421 24.5592 88.7012 25.0996C88.4603 25.6335 88.1836 26.0892 87.8711 26.4668C87.5586 26.8379 87.2233 27.1471 86.8652 27.3945C86.5072 27.6419 86.1393 27.8438 85.7617 28H85.0684V26.1348H85.4102C85.6836 25.8353 85.9245 25.5293 86.1328 25.2168C86.3477 24.9043 86.5299 24.5495 86.6797 24.1523C86.8294 23.7552 86.9434 23.2734 87.0215 22.707C87.1061 22.1406 87.1582 21.4473 87.1777 20.627L87.2852 16.623ZM87.8906 16.623H95.3711V28H93.0176V18.498H87.8906V16.623ZM84.5312 26.125H96.8359V31.291H94.4824V28H86.8848V31.2812H84.5215L84.5312 26.125ZM103.438 18.957L100.02 28H97.6367L102.217 16.623H103.799L103.438 18.957ZM106.592 28L103.154 18.9375L102.793 16.623H104.404L108.975 28H106.592ZM106.445 23.7812V25.5488H99.9414V23.7812H106.445ZM118.047 16.623V18.498H112.451V16.623H118.047ZM119.902 16.623V28H117.539V16.623H119.902ZM111.826 16.623H114.189L113.984 21.7109C113.945 22.5898 113.874 23.3711 113.77 24.0547C113.672 24.7318 113.525 25.321 113.33 25.8223C113.135 26.3236 112.884 26.7337 112.578 27.0527C112.272 27.3717 111.898 27.6094 111.455 27.7656C111.012 27.9219 110.495 28 109.902 28H109.414V26.0469L109.785 26.0078C110.059 25.9753 110.293 25.9069 110.488 25.8027C110.684 25.6986 110.85 25.5423 110.986 25.334C111.123 25.1257 111.234 24.8522 111.318 24.5137C111.403 24.1751 111.471 23.7617 111.523 23.2734C111.576 22.7786 111.615 22.1927 111.641 21.5156L111.826 16.623ZM126.934 20.5781C127.871 20.5781 128.675 20.7344 129.346 21.0469C130.023 21.3529 130.544 21.7826 130.908 22.3359C131.273 22.8828 131.455 23.5241 131.455 24.2598C131.455 24.9889 131.273 25.6367 130.908 26.2031C130.544 26.763 130.023 27.2025 129.346 27.5215C128.675 27.8405 127.871 28 126.934 28H122.207V16.623H124.561V26.125H126.934C127.669 26.125 128.213 25.9362 128.564 25.5586C128.923 25.1745 129.102 24.735 129.102 24.2402C129.102 23.9147 129.023 23.6185 128.867 23.3516C128.711 23.0846 128.473 22.8698 128.154 22.707C127.835 22.5378 127.428 22.4531 126.934 22.4531H123.77V20.5781H126.934ZM145.508 26.125V28H134.619V26.125H145.508ZM141.396 16.623V28H139.033V16.623H141.396ZM147.217 16.623V28H144.854V16.623H147.217ZM135.576 16.623V28H133.223V16.623H135.576ZM157.637 26.1348V28H151.123V26.1348H157.637ZM151.865 16.623V28H149.512V16.623H151.865ZM156.797 21.1836V23.0488H151.123V21.1836H156.797ZM157.617 16.623V18.498H151.123V16.623H157.617Z" fill="#FF0505"/>
<path d="M182 27.5L180.575 26.3L185.175 22.3571H169V20.6429H185.175L180.6 16.7L182 15.5L189 21.5L182 27.5Z" fill="#FF0505"/>
</svg>
