<svg width="259" height="48" viewBox="0 0 259 48" fill="none" xmlns="http://www.w3.org/2000/svg">
<rect width="259" height="48" rx="10" fill="#FF0505"/>
<path d="M25.2344 14.9375V32H22.3047V17.2812H14.7227V32H11.793V14.9375H25.2344ZM40.3281 24.8516V25.5078C40.3281 26.5469 40.1797 27.4766 39.8828 28.2969C39.5859 29.1172 39.1641 29.8203 38.6172 30.4062C38.0781 30.9844 37.4297 31.4258 36.6719 31.7305C35.9141 32.0352 35.0781 32.1875 34.1641 32.1875C33.25 32.1875 32.4141 32.0352 31.6562 31.7305C30.8984 31.4258 30.2422 30.9844 29.6875 30.4062C29.1328 29.8203 28.7031 29.1172 28.3984 28.2969C28.1016 27.4766 27.9531 26.5469 27.9531 25.5078V24.8516C27.9531 23.8125 28.1016 22.8828 28.3984 22.0625C28.7031 21.2422 29.1289 20.5391 29.6758 19.9531C30.2227 19.3672 30.875 18.9219 31.6328 18.6172C32.3906 18.3125 33.2266 18.1602 34.1406 18.1602C35.0625 18.1602 35.8984 18.3125 36.6484 18.6172C37.4062 18.9219 38.0586 19.3672 38.6055 19.9531C39.1602 20.5391 39.5859 21.2422 39.8828 22.0625C40.1797 22.8828 40.3281 23.8125 40.3281 24.8516ZM37.5039 25.5078V24.8281C37.5039 24.1172 37.4297 23.4883 37.2812 22.9414C37.1328 22.3945 36.9102 21.9336 36.6133 21.5586C36.3242 21.1836 35.9727 20.8984 35.5586 20.7031C35.1445 20.5078 34.6719 20.4102 34.1406 20.4102C33.6172 20.4102 33.1445 20.5078 32.7227 20.7031C32.3086 20.8984 31.957 21.1836 31.668 21.5586C31.3867 21.9336 31.168 22.3945 31.0117 22.9414C30.8633 23.4883 30.7891 24.1172 30.7891 24.8281V25.5078C30.7891 26.2109 30.8633 26.8398 31.0117 27.3945C31.168 27.9414 31.3906 28.4062 31.6797 28.7891C31.9766 29.1641 32.332 29.4531 32.7461 29.6562C33.168 29.8516 33.6406 29.9492 34.1641 29.9492C34.6953 29.9492 35.1641 29.8516 35.5703 29.6562C35.9844 29.4531 36.3359 29.1641 36.625 28.7891C36.9141 28.4062 37.1328 27.9414 37.2812 27.3945C37.4297 26.8398 37.5039 26.2109 37.5039 25.5078ZM51.2031 27.4531H54.0391C53.9688 28.3828 53.6953 29.2031 53.2188 29.9141C52.75 30.625 52.0938 31.1836 51.25 31.5898C50.4062 31.9883 49.3867 32.1875 48.1914 32.1875C47.2617 32.1875 46.4258 32.0352 45.6836 31.7305C44.9492 31.4258 44.3203 30.9922 43.7969 30.4297C43.2812 29.8594 42.8828 29.1719 42.6016 28.3672C42.3281 27.5547 42.1914 26.6445 42.1914 25.6367V24.7227C42.1914 23.7148 42.332 22.8086 42.6133 22.0039C42.8945 21.1914 43.3008 20.5 43.832 19.9297C44.3633 19.3516 44.9961 18.9141 45.7305 18.6172C46.4727 18.3125 47.3047 18.1602 48.2266 18.1602C49.4375 18.1602 50.457 18.3672 51.2852 18.7812C52.1133 19.1875 52.7578 19.7539 53.2188 20.4805C53.6797 21.207 53.957 22.0391 54.0508 22.9766H51.2266C51.1797 22.4688 51.0508 22.0234 50.8398 21.6406C50.6289 21.25 50.3125 20.9453 49.8906 20.7266C49.4688 20.5078 48.9141 20.3984 48.2266 20.3984C47.6953 20.3984 47.2305 20.4922 46.832 20.6797C46.4336 20.8594 46.0977 21.1328 45.8242 21.5C45.5586 21.8672 45.3555 22.3203 45.2148 22.8594C45.082 23.3906 45.0156 24.0078 45.0156 24.7109V25.6367C45.0156 26.3242 45.0742 26.9375 45.1914 27.4766C45.3164 28.0078 45.5078 28.457 45.7656 28.8242C46.0234 29.1914 46.3516 29.4727 46.75 29.668C47.1562 29.8555 47.6367 29.9492 48.1914 29.9492C48.8555 29.9492 49.3984 29.8594 49.8203 29.6797C50.2422 29.4922 50.5664 29.2109 50.793 28.8359C51.0195 28.4609 51.1562 28 51.2031 27.4531ZM57.4023 18.3477H59.8398L63.7891 28.2969L67.7266 18.3477H70.1641L64.75 32H62.8164L57.4023 18.3477ZM56.1484 18.3477H58.5391L58.9727 28.25V32H56.1484V18.3477ZM69.0391 18.3477H71.4414V32H68.6172V28.25L69.0391 18.3477ZM86.125 24.8516V25.5078C86.125 26.5469 85.9766 27.4766 85.6797 28.2969C85.3828 29.1172 84.9609 29.8203 84.4141 30.4062C83.875 30.9844 83.2266 31.4258 82.4688 31.7305C81.7109 32.0352 80.875 32.1875 79.9609 32.1875C79.0469 32.1875 78.2109 32.0352 77.4531 31.7305C76.6953 31.4258 76.0391 30.9844 75.4844 30.4062C74.9297 29.8203 74.5 29.1172 74.1953 28.2969C73.8984 27.4766 73.75 26.5469 73.75 25.5078V24.8516C73.75 23.8125 73.8984 22.8828 74.1953 22.0625C74.5 21.2422 74.9258 20.5391 75.4727 19.9531C76.0195 19.3672 76.6719 18.9219 77.4297 18.6172C78.1875 18.3125 79.0234 18.1602 79.9375 18.1602C80.8594 18.1602 81.6953 18.3125 82.4453 18.6172C83.2031 18.9219 83.8555 19.3672 84.4023 19.9531C84.957 20.5391 85.3828 21.2422 85.6797 22.0625C85.9766 22.8828 86.125 23.8125 86.125 24.8516ZM83.3008 25.5078V24.8281C83.3008 24.1172 83.2266 23.4883 83.0781 22.9414C82.9297 22.3945 82.707 21.9336 82.4102 21.5586C82.1211 21.1836 81.7695 20.8984 81.3555 20.7031C80.9414 20.5078 80.4688 20.4102 79.9375 20.4102C79.4141 20.4102 78.9414 20.5078 78.5195 20.7031C78.1055 20.8984 77.7539 21.1836 77.4648 21.5586C77.1836 21.9336 76.9648 22.3945 76.8086 22.9414C76.6602 23.4883 76.5859 24.1172 76.5859 24.8281V25.5078C76.5859 26.2109 76.6602 26.8398 76.8086 27.3945C76.9648 27.9414 77.1875 28.4062 77.4766 28.7891C77.7734 29.1641 78.1289 29.4531 78.543 29.6562C78.9648 29.8516 79.4375 29.9492 79.9609 29.9492C80.4922 29.9492 80.9609 29.8516 81.3672 29.6562C81.7812 29.4531 82.1328 29.1641 82.4219 28.7891C82.7109 28.4062 82.9297 27.9414 83.0781 27.3945C83.2266 26.8398 83.3008 26.2109 83.3008 25.5078ZM94.5977 18.3477V32H91.7734V18.3477H94.5977ZM99.1445 18.3477V20.5977H87.2852V18.3477H99.1445ZM106.633 27.1836H102.859V24.9336H106.633C107.242 24.9336 107.738 24.8438 108.121 24.6641C108.512 24.4844 108.797 24.2422 108.977 23.9375C109.164 23.625 109.258 23.2734 109.258 22.8828C109.258 22.4766 109.164 22.1016 108.977 21.7578C108.797 21.4141 108.512 21.1367 108.121 20.9258C107.738 20.707 107.242 20.5977 106.633 20.5977H103.809V32H100.984V18.3477H106.633C107.781 18.3477 108.762 18.543 109.574 18.9336C110.387 19.3242 111.004 19.8594 111.426 20.5391C111.855 21.2109 112.07 21.9844 112.07 22.8594C112.07 23.5156 111.949 24.1094 111.707 24.6406C111.465 25.1719 111.109 25.6289 110.641 26.0117C110.172 26.3867 109.602 26.6758 108.93 26.8789C108.258 27.082 107.492 27.1836 106.633 27.1836ZM124 29.7617V32H116.184V29.7617H124ZM117.074 18.3477V32H114.25V18.3477H117.074ZM122.992 23.8203V26.0586H116.184V23.8203H122.992ZM123.977 18.3477V20.5977H116.184V18.3477H123.977ZM132.238 18.3477V32H129.414V18.3477H132.238ZM136.785 18.3477V20.5977H124.926V18.3477H136.785ZM144.297 23.0938C145.422 23.0938 146.387 23.2812 147.191 23.6562C148.004 24.0234 148.629 24.5391 149.066 25.2031C149.504 25.8594 149.723 26.6289 149.723 27.5117C149.723 28.3867 149.504 29.1641 149.066 29.8438C148.629 30.5156 148.004 31.043 147.191 31.4258C146.387 31.8086 145.422 32 144.297 32H138.625V18.3477H141.449V29.75H144.297C145.18 29.75 145.832 29.5234 146.254 29.0703C146.684 28.6094 146.898 28.082 146.898 27.4883C146.898 27.0977 146.805 26.7422 146.617 26.4219C146.43 26.1016 146.145 25.8438 145.762 25.6484C145.379 25.4453 144.891 25.3438 144.297 25.3438H140.5V23.0938H144.297ZM160.656 18.3477V32H157.82V18.3477H160.656ZM168.801 18.3477L163.223 26.4688H160L159.625 23.9727H161.898L165.496 18.3477H168.801ZM165.684 32L161.641 25.9883L163.633 24.1953L169.199 32H165.684ZM176.594 21.1484L172.492 32H169.633L175.129 18.3477H177.027L176.594 21.1484ZM180.379 32L176.254 21.125L175.82 18.3477H177.754L183.238 32H180.379ZM180.203 26.9375V29.0586H172.398V26.9375H180.203ZM190.34 18.3477V32H187.516V18.3477H190.34ZM194.887 18.3477V20.5977H183.027V18.3477H194.887ZM202.398 21.1484L198.297 32H195.438L200.934 18.3477H202.832L202.398 21.1484ZM206.184 32L202.059 21.125L201.625 18.3477H203.559L209.043 32H206.184ZM206.008 26.9375V29.0586H198.203V26.9375H206.008ZM219.93 18.3477V20.5977H213.215V18.3477H219.93ZM222.156 18.3477V32H219.32V18.3477H222.156ZM212.465 18.3477H215.301L215.055 24.4531C215.008 25.5078 214.922 26.4453 214.797 27.2656C214.68 28.0781 214.504 28.7852 214.27 29.3867C214.035 29.9883 213.734 30.4805 213.367 30.8633C213 31.2461 212.551 31.5312 212.02 31.7188C211.488 31.9062 210.867 32 210.156 32H209.57V29.6562L210.016 29.6094C210.344 29.5703 210.625 29.4883 210.859 29.3633C211.094 29.2383 211.293 29.0508 211.457 28.8008C211.621 28.5508 211.754 28.2227 211.855 27.8164C211.957 27.4102 212.039 26.9141 212.102 26.3281C212.164 25.7344 212.211 25.0312 212.242 24.2188L212.465 18.3477ZM236.828 24.8516V25.5078C236.828 26.5469 236.68 27.4766 236.383 28.2969C236.086 29.1172 235.664 29.8203 235.117 30.4062C234.578 30.9844 233.93 31.4258 233.172 31.7305C232.414 32.0352 231.578 32.1875 230.664 32.1875C229.75 32.1875 228.914 32.0352 228.156 31.7305C227.398 31.4258 226.742 30.9844 226.188 30.4062C225.633 29.8203 225.203 29.1172 224.898 28.2969C224.602 27.4766 224.453 26.5469 224.453 25.5078V24.8516C224.453 23.8125 224.602 22.8828 224.898 22.0625C225.203 21.2422 225.629 20.5391 226.176 19.9531C226.723 19.3672 227.375 18.9219 228.133 18.6172C228.891 18.3125 229.727 18.1602 230.641 18.1602C231.562 18.1602 232.398 18.3125 233.148 18.6172C233.906 18.9219 234.559 19.3672 235.105 19.9531C235.66 20.5391 236.086 21.2422 236.383 22.0625C236.68 22.8828 236.828 23.8125 236.828 24.8516ZM234.004 25.5078V24.8281C234.004 24.1172 233.93 23.4883 233.781 22.9414C233.633 22.3945 233.41 21.9336 233.113 21.5586C232.824 21.1836 232.473 20.8984 232.059 20.7031C231.645 20.5078 231.172 20.4102 230.641 20.4102C230.117 20.4102 229.645 20.5078 229.223 20.7031C228.809 20.8984 228.457 21.1836 228.168 21.5586C227.887 21.9336 227.668 22.3945 227.512 22.9414C227.363 23.4883 227.289 24.1172 227.289 24.8281V25.5078C227.289 26.2109 227.363 26.8398 227.512 27.3945C227.668 27.9414 227.891 28.4062 228.18 28.7891C228.477 29.1641 228.832 29.4531 229.246 29.6562C229.668 29.8516 230.141 29.9492 230.664 29.9492C231.195 29.9492 231.664 29.8516 232.07 29.6562C232.484 29.4531 232.836 29.1641 233.125 28.7891C233.414 28.4062 233.633 27.9414 233.781 27.3945C233.93 26.8398 234.004 26.2109 234.004 25.5078ZM241.973 18.3477V32H239.148V18.3477H241.973ZM248.559 18.3477V20.5977H241.176V18.3477H248.559Z" fill="#FAFAFA"/>
</svg>
