<svg width="342" height="55" viewBox="0 0 342 55" fill="none" xmlns="http://www.w3.org/2000/svg">
<path d="M330 0C336.627 0 342 5.37258 342 12V43C342 49.6274 336.627 55 330 55H12C5.37258 55 0 49.6274 0 43V12C0 5.37258 5.37258 0 12 0H330Z" fill="#FF0505"/>
<path d="M330 0C336.627 0 342 5.37258 342 12V43C342 49.6274 336.627 55 330 55H12C5.37258 55 0 49.6274 0 43V12C0 5.37258 5.37258 0 12 0H330Z" stroke="#E5E7EB"/>
<path d="M76 21.75C76 21.3344 76.3372 21 76.7564 21H78.1905C78.8838 21 79.4984 21.4 79.7852 22H92.7388C93.5677 22 94.1729 22.7812 93.9554 23.575L92.6632 28.3344C92.3953 29.3156 91.497 30 90.4727 30H81.38L81.5502 30.8906C81.6195 31.2437 81.9315 31.5 82.294 31.5H91.3804C91.7996 31.5 92.1368 31.8344 92.1368 32.25C92.1368 32.6656 91.7996 33 91.3804 33H82.294C81.2035 33 80.2674 32.2312 80.0657 31.1719L78.4394 22.7031C78.4174 22.5844 78.3134 22.5 78.1905 22.5H76.7564C76.3372 22.5 76 22.1656 76 21.75ZM80.0342 35.5C80.0342 35.303 80.0733 35.108 80.1494 34.926C80.2254 34.744 80.3368 34.5786 80.4773 34.4393C80.6178 34.3001 80.7846 34.1896 80.9681 34.1142C81.1516 34.0388 81.3484 34 81.547 34C81.7457 34 81.9424 34.0388 82.126 34.1142C82.3095 34.1896 82.4763 34.3001 82.6168 34.4393C82.7572 34.5786 82.8687 34.744 82.9447 34.926C83.0207 35.108 83.0599 35.303 83.0599 35.5C83.0599 35.697 83.0207 35.892 82.9447 36.074C82.8687 36.256 82.7572 36.4214 82.6168 36.5607C82.4763 36.6999 82.3095 36.8104 82.126 36.8858C81.9424 36.9612 81.7457 37 81.547 37C81.3484 37 81.1516 36.9612 80.9681 36.8858C80.7846 36.8104 80.6178 36.6999 80.4773 36.5607C80.3368 36.4214 80.2254 36.256 80.1494 36.074C80.0733 35.892 80.0342 35.697 80.0342 35.5ZM90.624 34C91.0252 34 91.41 34.158 91.6937 34.4393C91.9775 34.7206 92.1368 35.1022 92.1368 35.5C92.1368 35.8978 91.9775 36.2794 91.6937 36.5607C91.41 36.842 91.0252 37 90.624 37C90.2228 37 89.838 36.842 89.5543 36.5607C89.2706 36.2794 89.1112 35.8978 89.1112 35.5C89.1112 35.1022 89.2706 34.7206 89.5543 34.4393C89.838 34.158 90.2228 34 90.624 34Z" fill="white"/>
<path d="M103.767 35.8068V31.2784H104.545C104.807 31.0701 105.051 30.7765 105.278 30.3977C105.506 30.0189 105.699 29.5 105.858 28.8409C106.017 28.1818 106.127 27.3295 106.188 26.2841L106.494 21.3636H113.932V31.2784H115.227V35.7955H113.205V33H105.79V35.8068H103.767ZM107 31.2784H111.909V23.1307H108.392L108.21 26.2841C108.161 27.0758 108.081 27.7841 107.972 28.4091C107.862 29.0341 107.723 29.5852 107.557 30.0625C107.39 30.536 107.205 30.9413 107 31.2784ZM120.661 33.1705C119.808 33.1705 119.07 32.983 118.445 32.608C117.82 32.233 117.335 31.7083 116.99 31.0341C116.649 30.3598 116.479 29.572 116.479 28.6705C116.479 27.7689 116.649 26.9792 116.99 26.3011C117.335 25.6231 117.82 25.0966 118.445 24.7216C119.07 24.3466 119.808 24.1591 120.661 24.1591C121.513 24.1591 122.251 24.3466 122.876 24.7216C123.501 25.0966 123.984 25.6231 124.325 26.3011C124.67 26.9792 124.842 27.7689 124.842 28.6705C124.842 29.572 124.67 30.3598 124.325 31.0341C123.984 31.7083 123.501 32.233 122.876 32.608C122.251 32.983 121.513 33.1705 120.661 33.1705ZM120.672 31.5227C121.134 31.5227 121.52 31.3958 121.831 31.142C122.142 30.8845 122.373 30.5398 122.524 30.108C122.679 29.6761 122.757 29.1951 122.757 28.6648C122.757 28.1307 122.679 27.6477 122.524 27.2159C122.373 26.7803 122.142 26.4337 121.831 26.1761C121.52 25.9186 121.134 25.7898 120.672 25.7898C120.198 25.7898 119.804 25.9186 119.49 26.1761C119.179 26.4337 118.946 26.7803 118.791 27.2159C118.64 27.6477 118.564 28.1307 118.564 28.6648C118.564 29.1951 118.64 29.6761 118.791 30.108C118.946 30.5398 119.179 30.8845 119.49 31.142C119.804 31.3958 120.198 31.5227 120.672 31.5227ZM133.582 21.0455L134.298 22.375C134.045 22.5947 133.76 22.7538 133.446 22.8523C133.132 22.9508 132.762 23.0152 132.338 23.0455C131.918 23.072 131.418 23.0909 130.838 23.1023C130.187 23.1174 129.654 23.2405 129.241 23.4716C128.829 23.7027 128.512 24.053 128.293 24.5227C128.073 24.9886 127.929 25.5833 127.861 26.3068H127.957C128.23 25.7727 128.613 25.3655 129.105 25.0852C129.598 24.8049 130.175 24.6648 130.838 24.6648C131.562 24.6648 132.2 24.8277 132.753 25.1534C133.31 25.4754 133.743 25.9432 134.054 26.5568C134.368 27.1705 134.526 27.9129 134.526 28.7841C134.526 29.6818 134.357 30.4602 134.02 31.1193C133.683 31.7746 133.204 32.2803 132.582 32.6364C131.965 32.9924 131.232 33.1705 130.384 33.1705C129.539 33.1705 128.804 32.9867 128.179 32.6193C127.558 32.2481 127.077 31.7008 126.736 30.9773C126.399 30.25 126.23 29.3542 126.23 28.2898V27.5057C126.23 25.4527 126.613 23.9205 127.378 22.9091C128.143 21.8977 129.277 21.3826 130.781 21.3636C131.228 21.3561 131.628 21.3542 131.98 21.358C132.336 21.3617 132.647 21.3447 132.912 21.3068C133.177 21.2689 133.401 21.1818 133.582 21.0455ZM130.395 31.5227C130.815 31.5227 131.179 31.4148 131.486 31.1989C131.793 30.9792 132.027 30.6686 132.19 30.267C132.357 29.8655 132.44 29.3902 132.44 28.8409C132.44 28.2992 132.357 27.839 132.19 27.4602C132.024 27.0777 131.787 26.786 131.48 26.5852C131.173 26.3845 130.808 26.2841 130.384 26.2841C130.065 26.2841 129.779 26.3409 129.526 26.4545C129.272 26.5682 129.056 26.7348 128.878 26.9545C128.7 27.1742 128.563 27.4413 128.469 27.7557C128.374 28.0701 128.323 28.4318 128.315 28.8409C128.315 29.6629 128.501 30.3163 128.872 30.8011C129.243 31.2822 129.751 31.5227 130.395 31.5227ZM138.787 33.1761C138.234 33.1761 137.736 33.0777 137.293 32.8807C136.853 32.6799 136.505 32.3845 136.247 31.9943C135.993 31.6042 135.866 31.1231 135.866 30.5511C135.866 30.0587 135.957 29.6515 136.139 29.3295C136.321 29.0076 136.569 28.75 136.884 28.5568C137.198 28.3636 137.552 28.2178 137.946 28.1193C138.344 28.017 138.755 27.9432 139.179 27.8977C139.69 27.8447 140.105 27.7973 140.423 27.7557C140.741 27.7102 140.973 27.642 141.116 27.5511C141.264 27.4564 141.338 27.3106 141.338 27.1136V27.0795C141.338 26.6515 141.211 26.3201 140.957 26.0852C140.704 25.8504 140.338 25.733 139.861 25.733C139.357 25.733 138.957 25.8428 138.662 26.0625C138.37 26.2822 138.173 26.5417 138.071 26.8409L136.151 26.5682C136.302 26.0379 136.552 25.5947 136.901 25.2386C137.249 24.8788 137.675 24.6098 138.179 24.4318C138.683 24.25 139.24 24.1591 139.849 24.1591C140.27 24.1591 140.688 24.2083 141.105 24.3068C141.522 24.4053 141.902 24.5682 142.247 24.7955C142.592 25.0189 142.868 25.3239 143.077 25.7102C143.289 26.0966 143.395 26.5795 143.395 27.1591V33H141.418V31.8011H141.349C141.224 32.0436 141.048 32.2708 140.821 32.483C140.598 32.6913 140.315 32.8598 139.974 32.9886C139.637 33.1136 139.241 33.1761 138.787 33.1761ZM139.321 31.6648C139.734 31.6648 140.092 31.5833 140.395 31.4205C140.698 31.2538 140.931 31.0341 141.094 30.7614C141.26 30.4886 141.344 30.1913 141.344 29.8693V28.8409C141.279 28.8939 141.17 28.9432 141.014 28.9886C140.863 29.0341 140.692 29.0739 140.503 29.108C140.313 29.142 140.126 29.1723 139.94 29.1989C139.755 29.2254 139.594 29.2481 139.457 29.267C139.151 29.3087 138.876 29.3769 138.634 29.4716C138.391 29.5663 138.2 29.6989 138.06 29.8693C137.92 30.036 137.849 30.2519 137.849 30.517C137.849 30.8958 137.988 31.1818 138.264 31.375C138.541 31.5682 138.893 31.6648 139.321 31.6648ZM145.463 33V24.2727H149.128C150.162 24.2727 150.978 24.4792 151.577 24.892C152.179 25.3049 152.48 25.8807 152.48 26.6193C152.48 27.108 152.31 27.5076 151.969 27.8182C151.632 28.125 151.171 28.3314 150.588 28.4375C151.046 28.4754 151.448 28.5909 151.793 28.7841C152.141 28.9773 152.414 29.2311 152.611 29.5455C152.808 29.8598 152.906 30.2216 152.906 30.6307C152.906 31.1117 152.779 31.5303 152.526 31.8864C152.276 32.2386 151.91 32.5133 151.429 32.7102C150.952 32.9034 150.372 33 149.69 33H145.463ZM147.389 31.3807H149.69C150.069 31.3807 150.366 31.2917 150.582 31.1136C150.798 30.9318 150.906 30.6856 150.906 30.375C150.906 30.0152 150.798 29.733 150.582 29.5284C150.366 29.3201 150.069 29.2159 149.69 29.2159H147.389V31.3807ZM147.389 27.8864H149.168C149.448 27.8864 149.688 27.8466 149.889 27.767C150.09 27.6837 150.243 27.5682 150.349 27.4205C150.455 27.2689 150.509 27.089 150.509 26.8807C150.509 26.5814 150.385 26.3466 150.139 26.1761C149.897 26.0057 149.56 25.9205 149.128 25.9205H147.389V27.8864ZM156.587 30.2159L160.081 24.2727H162.195V33H160.206V27.0511L156.723 33H154.604V24.2727H156.587V30.2159ZM163.33 25.9602V24.2727H170.966V25.9602H168.142V33H166.153V25.9602H163.33ZM173.996 27.1136H176.57C177.683 27.1136 178.545 27.3845 179.155 27.9261C179.765 28.4678 180.071 29.178 180.075 30.0568C180.071 30.6288 179.931 31.1364 179.655 31.5795C179.382 32.0227 178.984 32.3712 178.462 32.625C177.943 32.875 177.312 33 176.57 33H172.604V24.2727H174.587V31.3125H176.57C177.017 31.3125 177.384 31.1989 177.672 30.9716C177.96 30.7405 178.104 30.4451 178.104 30.0852C178.104 29.7064 177.96 29.3977 177.672 29.1591C177.384 28.9205 177.017 28.8011 176.57 28.8011H173.996V27.1136ZM185.807 33V24.2727H189.472C190.506 24.2727 191.322 24.4792 191.92 24.892C192.523 25.3049 192.824 25.8807 192.824 26.6193C192.824 27.108 192.653 27.5076 192.312 27.8182C191.975 28.125 191.515 28.3314 190.932 28.4375C191.39 28.4754 191.792 28.5909 192.136 28.7841C192.485 28.9773 192.758 29.2311 192.955 29.5455C193.152 29.8598 193.25 30.2216 193.25 30.6307C193.25 31.1117 193.123 31.5303 192.869 31.8864C192.619 32.2386 192.254 32.5133 191.773 32.7102C191.295 32.9034 190.716 33 190.034 33H185.807ZM187.733 31.3807H190.034C190.413 31.3807 190.71 31.2917 190.926 31.1136C191.142 30.9318 191.25 30.6856 191.25 30.375C191.25 30.0152 191.142 29.733 190.926 29.5284C190.71 29.3201 190.413 29.2159 190.034 29.2159H187.733V31.3807ZM187.733 27.8864H189.511C189.792 27.8864 190.032 27.8466 190.233 27.767C190.434 27.6837 190.587 27.5682 190.693 27.4205C190.799 27.2689 190.852 27.089 190.852 26.8807C190.852 26.5814 190.729 26.3466 190.483 26.1761C190.241 26.0057 189.903 25.9205 189.472 25.9205H187.733V27.8864ZM198.916 33V24.2727H200.973V27.7955H201.723L204.348 24.2727H206.825L203.592 28.5568L206.859 33H204.371L201.979 29.7102H200.973V33H198.916ZM211.473 33.1705C210.621 33.1705 209.882 32.983 209.257 32.608C208.632 32.233 208.147 31.7083 207.803 31.0341C207.462 30.3598 207.291 29.572 207.291 28.6705C207.291 27.7689 207.462 26.9792 207.803 26.3011C208.147 25.6231 208.632 25.0966 209.257 24.7216C209.882 24.3466 210.621 24.1591 211.473 24.1591C212.325 24.1591 213.064 24.3466 213.689 24.7216C214.314 25.0966 214.797 25.6231 215.138 26.3011C215.482 26.9792 215.655 27.7689 215.655 28.6705C215.655 29.572 215.482 30.3598 215.138 31.0341C214.797 31.7083 214.314 32.233 213.689 32.608C213.064 32.983 212.325 33.1705 211.473 33.1705ZM211.484 31.5227C211.946 31.5227 212.333 31.3958 212.643 31.142C212.954 30.8845 213.185 30.5398 213.337 30.108C213.492 29.6761 213.57 29.1951 213.57 28.6648C213.57 28.1307 213.492 27.6477 213.337 27.2159C213.185 26.7803 212.954 26.4337 212.643 26.1761C212.333 25.9186 211.946 25.7898 211.484 25.7898C211.011 25.7898 210.617 25.9186 210.303 26.1761C209.992 26.4337 209.759 26.7803 209.604 27.2159C209.452 27.6477 209.376 28.1307 209.376 28.6648C209.376 29.1951 209.452 29.6761 209.604 30.108C209.759 30.5398 209.992 30.8845 210.303 31.142C210.617 31.3958 211.011 31.5227 211.484 31.5227ZM217.401 36.2727V24.2727H219.423V25.7159H219.543C219.649 25.5038 219.798 25.2784 219.991 25.0398C220.185 24.7973 220.446 24.5909 220.776 24.4205C221.105 24.2462 221.526 24.1591 222.037 24.1591C222.711 24.1591 223.319 24.3314 223.861 24.6761C224.406 25.017 224.838 25.5227 225.156 26.1932C225.478 26.8598 225.639 27.678 225.639 28.6477C225.639 29.6061 225.482 30.4205 225.168 31.0909C224.853 31.7614 224.425 32.2727 223.884 32.625C223.342 32.9773 222.728 33.1534 222.043 33.1534C221.543 33.1534 221.128 33.0701 220.798 32.9034C220.469 32.7367 220.204 32.536 220.003 32.3011C219.806 32.0625 219.652 31.8371 219.543 31.625H219.457V36.2727H217.401ZM219.418 28.6364C219.418 29.2008 219.497 29.6951 219.656 30.1193C219.819 30.5436 220.052 30.875 220.355 31.1136C220.662 31.3485 221.033 31.4659 221.469 31.4659C221.923 31.4659 222.304 31.3447 222.611 31.1023C222.918 30.8561 223.149 30.5208 223.304 30.0966C223.463 29.6686 223.543 29.1818 223.543 28.6364C223.543 28.0947 223.465 27.6136 223.31 27.1932C223.154 26.7727 222.923 26.4432 222.616 26.2045C222.31 25.9659 221.927 25.8466 221.469 25.8466C221.029 25.8466 220.656 25.9621 220.349 26.1932C220.043 26.4242 219.81 26.7481 219.651 27.1648C219.495 27.5814 219.418 28.072 219.418 28.6364ZM226.918 30.608H228.957C228.976 30.9337 229.122 31.1856 229.395 31.3636C229.668 31.5417 230.022 31.6307 230.457 31.6307C230.901 31.6307 231.274 31.5341 231.577 31.3409C231.884 31.1439 232.037 30.8466 232.037 30.4489C232.037 30.214 231.978 30.0076 231.861 29.8295C231.743 29.6477 231.579 29.5076 231.366 29.4091C231.154 29.3106 230.904 29.2614 230.616 29.2614H229.281V27.8011H230.616C231.045 27.8011 231.368 27.7027 231.588 27.5057C231.812 27.3087 231.923 27.0606 231.923 26.7614C231.923 26.4394 231.806 26.178 231.571 25.9773C231.34 25.7765 231.02 25.6761 230.611 25.6761C230.202 25.6761 229.861 25.7689 229.588 25.9545C229.319 26.1402 229.179 26.3788 229.168 26.6705H227.139C227.147 26.1629 227.298 25.7216 227.594 25.3466C227.893 24.9716 228.295 24.6799 228.798 24.4716C229.306 24.2633 229.878 24.1591 230.514 24.1591C231.196 24.1591 231.785 24.2614 232.281 24.4659C232.777 24.6705 233.16 24.9564 233.429 25.3239C233.698 25.6875 233.832 26.1155 233.832 26.608C233.832 27.0814 233.685 27.4735 233.389 27.7841C233.094 28.0909 232.696 28.3106 232.196 28.4432V28.5341C232.541 28.553 232.851 28.6515 233.128 28.8295C233.404 29.0038 233.624 29.2405 233.787 29.5398C233.95 29.839 234.031 30.1856 234.031 30.5795C234.031 31.1136 233.878 31.5758 233.571 31.9659C233.264 32.3523 232.842 32.6496 232.304 32.858C231.77 33.0663 231.158 33.1705 230.469 33.1705C229.798 33.1705 229.198 33.0701 228.668 32.8693C228.141 32.6648 227.723 32.3712 227.412 31.9886C227.101 31.6061 226.937 31.1458 226.918 30.608ZM237.634 30.2159L241.128 24.2727H243.241V33H241.253V27.0511L237.77 33H235.651V24.2727H237.634V30.2159ZM251.348 27.7841V29.4716H246.7V27.7841H251.348ZM247.337 24.2727V33H245.354V24.2727H247.337ZM252.695 24.2727V33H250.717V24.2727H252.695ZM255.741 36.2727C255.461 36.2727 255.202 36.25 254.963 36.2045C254.728 36.1629 254.541 36.1136 254.401 36.0568L254.878 34.4545C255.177 34.5417 255.444 34.5833 255.679 34.5795C255.914 34.5758 256.12 34.5019 256.298 34.358C256.48 34.2178 256.634 33.983 256.759 33.6534L256.935 33.1818L253.77 24.2727H255.952L257.963 30.8636H258.054L260.071 24.2727H262.259L258.764 34.0568C258.601 34.5189 258.385 34.9148 258.116 35.2443C257.848 35.5777 257.518 35.8314 257.128 36.0057C256.741 36.1837 256.279 36.2727 255.741 36.2727Z" fill="white"/>
</svg>
