<svg width="50" height="50" viewBox="0 0 50 50" fill="none" xmlns="http://www.w3.org/2000/svg">
<path d="M25 0C38.8071 0 50 11.1929 50 25C50 38.8071 38.8071 50 25 50C11.1929 50 0 38.8071 0 25C0 11.1929 11.1929 0 25 0Z" fill="#E53935"/>
<path d="M25 0C38.8071 0 50 11.1929 50 25C50 38.8071 38.8071 50 25 50C11.1929 50 0 38.8071 0 25C0 11.1929 11.1929 0 25 0Z" stroke="#E5E7EB"/>
<path d="M16 17.75C16 17.3344 16.3372 17 16.7564 17H18.1905C18.8838 17 19.4984 17.4 19.7852 18H32.7388C33.5677 18 34.1729 18.7812 33.9554 19.575L32.6632 24.3344C32.3953 25.3156 31.497 26 30.4727 26H21.38L21.5502 26.8906C21.6195 27.2437 21.9315 27.5 22.294 27.5H31.3804C31.7996 27.5 32.1368 27.8344 32.1368 28.25C32.1368 28.6656 31.7996 29 31.3804 29H22.294C21.2035 29 20.2674 28.2312 20.0657 27.1719L18.4394 18.7031C18.4174 18.5844 18.3134 18.5 18.1905 18.5H16.7564C16.3372 18.5 16 18.1656 16 17.75ZM20.0342 31.5C20.0342 31.303 20.0733 31.108 20.1494 30.926C20.2254 30.744 20.3368 30.5786 20.4773 30.4393C20.6178 30.3001 20.7846 30.1896 20.9681 30.1142C21.1516 30.0388 21.3484 30 21.547 30C21.7457 30 21.9424 30.0388 22.126 30.1142C22.3095 30.1896 22.4763 30.3001 22.6168 30.4393C22.7572 30.5786 22.8687 30.744 22.9447 30.926C23.0207 31.108 23.0599 31.303 23.0599 31.5C23.0599 31.697 23.0207 31.892 22.9447 32.074C22.8687 32.256 22.7572 32.4214 22.6168 32.5607C22.4763 32.6999 22.3095 32.8104 22.126 32.8858C21.9424 32.9612 21.7457 33 21.547 33C21.3484 33 21.1516 32.9612 20.9681 32.8858C20.7846 32.8104 20.6178 32.6999 20.4773 32.5607C20.3368 32.4214 20.2254 32.256 20.1494 32.074C20.0733 31.892 20.0342 31.697 20.0342 31.5ZM30.624 30C31.0252 30 31.41 30.158 31.6937 30.4393C31.9775 30.7206 32.1368 31.1022 32.1368 31.5C32.1368 31.8978 31.9775 32.2794 31.6937 32.5607C31.41 32.842 31.0252 33 30.624 33C30.2228 33 29.838 32.842 29.5543 32.5607C29.2706 32.2794 29.1112 31.8978 29.1112 31.5C29.1112 31.1022 29.2706 30.7206 29.5543 30.4393C29.838 30.158 30.2228 30 30.624 30Z" fill="white"/>
</svg>
