<svg width="150" height="34" viewBox="0 0 150 34" fill="none" xmlns="http://www.w3.org/2000/svg">
<path d="M74.8538 15.5938C74.7168 16.3108 74.5078 16.8659 74.2269 17.2545C73.6998 18.0247 72.9312 18.3878 71.9583 18.3878C70.9854 18.3878 70.2563 17.983 69.6897 17.2545C69.1232 16.4866 68.8817 15.27 68.8817 13.5677C68.8817 11.826 69.1626 10.6094 69.6897 9.83923C70.2563 9.10835 70.9854 8.70127 71.9165 8.70127C72.8894 8.70127 73.6185 9.10835 74.1851 9.83923C74.4939 10.2347 74.7145 10.7667 74.8561 11.419H79.4769C79.2191 9.61257 78.5922 8.15774 77.6286 7.04059C76.2911 5.50018 74.3871 4.72998 71.9165 4.72998C69.5295 4.72998 67.665 5.50018 66.3298 7.07991C64.9924 8.62032 64.3027 10.7667 64.3027 13.5237C64.3027 15.5105 64.6255 17.1712 65.3151 18.4688C66.0048 19.8079 66.8941 20.7794 67.9877 21.3877C69.0814 21.996 70.4583 22.2805 72.1162 22.2805C73.7369 22.2805 75.1139 21.9566 76.2075 21.2258C77.3012 20.5365 78.1534 19.5235 78.7199 18.2675C79.0845 17.5135 79.3167 16.6115 79.4583 15.5938H74.8538Z" fill="#0051C6"/>
<path d="M37.9267 11.5692H40.3578C42.624 11.5692 44.2425 12.0133 45.3384 12.9408C46.4321 13.829 46.9592 15.2422 46.9592 17.1388C46.9592 18.7139 46.4716 19.8842 45.5033 20.7307C44.4909 21.5379 43.0722 21.9427 41.2123 21.9427H33.3965V5.07223H45.826V8.46298H37.9313V11.5692H37.9267ZM37.9267 18.3091H40.2742C41.6929 18.3091 42.4197 17.7447 42.4197 16.5328C42.4197 15.5243 41.6929 14.9993 40.2742 14.9993H37.9267V18.3091ZM58.4971 19.1556H53.275L52.5853 21.9404H47.9298L53.477 5.07223H58.4181L64.0071 21.9404H59.2262L58.4971 19.1556ZM57.5265 15.5243L55.9058 9.42978L54.285 15.5243H57.5265ZM81.1294 5.07223H95.0195V9.22856H90.3639V21.9404H85.785V9.22856H81.1294V5.07223ZM111.218 5.07223V21.9404H106.924V12.6586L101.377 21.9404H97.0837V5.07223H101.377V14.3956L106.964 5.07223H111.218ZM113.686 13.5075C113.686 10.762 114.376 8.62488 115.713 7.09141C117.048 5.51631 118.913 4.75073 121.3 4.75073C123.77 4.75073 125.672 5.51631 127.009 7.04978C128.305 8.54393 128.992 10.6418 128.992 13.3849C128.992 15.3624 128.709 16.9769 128.103 18.2281C127.537 19.4794 126.684 20.4902 125.591 21.1748C124.497 21.9034 123.12 22.2249 121.502 22.2249C119.844 22.2249 118.465 21.9427 117.371 21.3367C116.277 20.7307 115.388 19.7639 114.698 18.4294C114.011 17.1388 113.686 15.485 113.686 13.5075ZM118.265 13.5468C118.265 15.2422 118.506 16.4541 119.075 17.2197C119.642 17.946 120.371 18.3484 121.344 18.3484C122.314 18.3484 123.088 17.9853 123.612 17.2197C124.137 16.4935 124.42 15.2005 124.42 13.3039C124.42 11.7288 124.137 10.5585 123.571 9.83454C123.004 9.10828 122.275 8.70352 121.302 8.70352C120.371 8.70352 119.642 9.10828 119.075 9.83454C118.546 10.6024 118.265 11.8121 118.265 13.5468ZM131.463 5.07223H136.04V10.9633H141.023V5.07223H145.597V21.9404H141.023V15.1196H136.04V21.9404H131.463V5.07223Z" fill="#0051C6"/>
<path fill-rule="evenodd" clip-rule="evenodd" d="M8.8506 22.2642C11.4443 21.9821 15.6145 19.077 15.0874 19.1973C15.7724 19.8033 16.6664 19.4008 17.0309 19.4008C17.6788 19.4402 18.0038 20.3283 18.3266 20.1271C18.7701 20.0855 18.8119 18.9174 19.0952 19.0377C19.6199 20.5712 20.8785 21.538 22.7384 21.9034C25.0859 21.9034 28.2856 21.8618 29.623 21.8618C30.8769 21.8618 30.7562 18.9568 30.5936 16.3339C30.4311 13.9932 30.9187 11.53 30.7538 9.51308C30.7144 8.82614 30.5518 8.09988 30.6749 7.53553C31.1207 5.79852 31.5665 5.63893 31.2809 5.43539C31 5.23417 30.106 5.71988 28.9752 5.7592C27.6377 5.80083 26.6672 5.03294 25.209 4.63049C24.1153 4.30668 22.6989 4.63049 21.6865 4.22573C19.0162 3.21498 18.0038 1.8041 15.6563 2.1256C14.5627 2.28519 14.2376 7.37131 13.75 9.75131C13.4249 13.1027 14.7647 13.304 14.7647 14.4327C14.7229 15.1196 13.671 14.8768 13.75 15.4018C14.1958 15.8459 14.8042 16.3709 14.5998 17.0139C14.3165 17.0555 14.1563 17.6615 14.2376 17.7818C13.7105 18.9521 11.969 20.9713 8.1215 21.4131C7.22986 21.5334 3.14317 20.5249 2.20974 19.9212C1.80571 19.6807 6.178 22.5464 8.8506 22.2642ZM28.4922 10.3596C28.4922 10.318 28.0859 9.79294 28.0464 9.79294H27.8444C27.7608 9.79294 27.6006 9.87389 27.6006 9.91553C27.3986 10.1168 27.0735 10.2393 27.0735 10.5215C27.0735 10.6025 27.1966 10.9263 27.3173 11.0465C27.3963 11.1275 27.6377 11.1668 27.6795 11.0049C27.7213 10.9656 27.8026 10.8037 27.8839 10.8037C28.0046 10.8037 28.2484 10.6811 28.3297 10.6811C28.4504 10.6811 28.5317 10.318 28.4922 10.3596ZM26.6695 7.37131C26.6277 7.37131 26.1819 6.84628 26.1401 6.84628H25.9381C25.8591 6.84628 25.736 6.92723 25.6966 6.96886C25.4946 7.17009 25.1695 7.29036 25.1695 7.57485C25.1695 7.6558 25.3715 7.97961 25.4946 8.09988C25.5735 8.18083 25.7755 8.22247 25.8568 8.05825C25.8986 8.01893 25.9775 7.8177 26.0588 7.8177C26.1377 7.8177 26.4233 7.73675 26.5046 7.73675C26.63 7.73444 26.709 7.37131 26.6695 7.37131Z" fill="#0051C6"/>
<path d="M22.7422 30.9423H23.6942V25.3103H25.1176V30.9423H26.0673V24.4244H22.7422V30.9423Z" fill="#0051C6"/>
<path d="M30.2643 24.4244H28.7109V30.9423H29.6629V28.3865H30.2667C31.3859 28.3865 31.978 27.7435 31.978 26.5338V26.2817C31.9756 25.0651 31.3835 24.4244 30.2643 24.4244ZM31.026 26.328V26.4783C31.026 26.8669 30.9633 27.1421 30.8402 27.2925C30.7241 27.4359 30.5081 27.5053 30.1947 27.5053H29.6629V25.301H30.1947C30.5105 25.301 30.7287 25.3727 30.8425 25.5138C30.9633 25.6665 31.026 25.9394 31.026 26.328Z" fill="#0051C6"/>
<path d="M35.7868 24.3737C35.0298 24.3737 34.1289 24.7113 34.1289 26.3211V29.0458C34.1289 30.6579 35.0298 30.9956 35.7868 30.9956C36.5414 30.9956 37.4377 30.6579 37.4377 29.0458V26.3211C37.4377 24.7113 36.5414 24.3737 35.7868 24.3737ZM35.0786 26.3905C35.0786 25.8077 35.1784 25.5671 35.2667 25.4677C35.3851 25.3266 35.5569 25.2572 35.7868 25.2572C36.0167 25.2572 36.1862 25.3266 36.3069 25.4677C36.3928 25.5671 36.495 25.8077 36.495 26.3905V28.9671C36.495 29.5569 36.3928 29.7998 36.3069 29.9015C36.1885 30.0426 36.0167 30.1097 35.7868 30.1097C35.5569 30.1097 35.3874 30.0403 35.2667 29.9015C35.1808 29.7998 35.0786 29.5569 35.0786 28.9671V26.3905Z" fill="#0051C6"/>
<path d="M40.8553 28.553V24.4244H39.9219V30.9423H40.7833L42.3762 26.8137V30.9423H43.3096V24.4244H42.4598L40.8553 28.553Z" fill="#0051C6"/>
<path d="M48.8143 26.409V26.0852C48.8143 24.9635 48.271 24.3737 47.2423 24.3737C46.7849 24.3737 46.4157 24.5032 46.1417 24.7599C45.8677 25.019 45.7261 25.4145 45.7261 25.9303V26.2656H46.6595V25.958C46.6595 25.3266 46.9776 25.2456 47.2539 25.2456C47.4768 25.2456 47.6301 25.3035 47.7276 25.4237C47.8298 25.5509 47.8832 25.7776 47.8832 26.0991V26.3697C47.8832 27.096 47.5465 27.1885 47.2562 27.1885H46.7175V28.0396H47.2562C47.507 28.0396 47.6788 28.0998 47.7764 28.227C47.8832 28.3611 47.9366 28.5924 47.9366 28.9093V29.1383C47.9366 29.5014 47.8809 29.7628 47.7671 29.9108C47.6626 30.0496 47.4861 30.1143 47.2284 30.1143C46.9196 30.1143 46.5666 30.0241 46.5666 29.3303V29.0411H45.6309V29.3765C45.6309 29.8692 45.7748 30.267 46.0558 30.5561C46.3367 30.8522 46.7292 31.0002 47.2191 31.0002C47.7508 31.0002 48.1641 30.8522 48.4474 30.5607C48.7353 30.2716 48.8793 29.7975 48.8793 29.1545V28.8584C48.8793 28.2339 48.6889 27.8037 48.3151 27.5794C48.6471 27.3435 48.8143 26.9526 48.8143 26.409Z" fill="#0051C6"/>
<path d="M53.9485 27.5908C54.0785 27.496 54.1877 27.3711 54.2759 27.2185C54.4152 26.9687 54.4872 26.668 54.4872 26.3234V26.1591C54.4872 25.5902 54.3386 25.153 54.0484 24.8639C53.7558 24.5748 53.31 24.4268 52.7248 24.4268H51.248V30.9446H52.7643C53.3425 30.9446 53.7906 30.7873 54.0948 30.482C54.4013 30.1721 54.5569 29.7257 54.5569 29.1544V28.9786C54.5569 28.5946 54.4733 28.2616 54.3107 27.991C54.2086 27.8175 54.0878 27.6834 53.9485 27.5908ZM52.1977 27.1768V25.3034H52.6691C53.0011 25.3034 53.231 25.3704 53.3494 25.5C53.4725 25.6387 53.5329 25.8885 53.5329 26.2447C53.5329 26.5824 53.4748 26.8276 53.3587 26.9733C53.2542 27.1074 53.0244 27.1768 52.6923 27.1768H52.1977ZM53.6165 29.0526C53.6165 29.3995 53.5491 29.6609 53.4214 29.8297C53.2984 29.9847 53.0615 30.0634 52.7155 30.0634H52.2001V28.0419H52.7155C53.0662 28.0419 53.3053 28.1205 53.4237 28.2731C53.5515 28.4443 53.6165 28.708 53.6165 29.0526Z" fill="#0051C6"/>
<path d="M58.4297 24.3737C57.6728 24.3737 56.7695 24.7113 56.7695 26.3211V29.0435C56.7695 30.6556 57.6728 30.9933 58.4297 30.9933C59.1821 30.9933 60.0807 30.6556 60.0807 29.0435V26.3211C60.0807 24.7113 59.1821 24.3737 58.4297 24.3737ZM59.138 28.9671C59.138 29.5569 59.0335 29.7998 58.9499 29.9016C58.8291 30.0426 58.6596 30.1097 58.4297 30.1097C58.1999 30.1097 58.0304 30.0403 57.9096 29.9016C57.826 29.8021 57.7215 29.5569 57.7215 28.9671V26.3905C57.7215 25.8077 57.8214 25.5671 57.9096 25.4677C58.0304 25.3266 58.1999 25.2572 58.4274 25.2572C58.6573 25.2572 58.8268 25.3243 58.9475 25.4677C59.0335 25.5671 59.1356 25.8077 59.1356 26.3905V28.9671H59.138Z" fill="#0051C6"/>
<path d="M65.972 24.4244H63.1276V25.3797C63.1276 26.6217 63.0835 27.577 62.9906 28.2176C62.9093 28.8213 62.7375 29.4389 62.4844 30.0564H62.0293V32.3485H62.9372V30.9423H65.633V32.3485H66.5316V30.0564H65.972V24.4244ZM65.027 25.3103V30.0541H63.4759C63.6988 29.4551 63.8428 28.9346 63.9194 28.4605C64.0053 27.9331 64.0494 27.1074 64.0494 26.0042V25.308H65.027V25.3103Z" fill="#0051C6"/>
<path d="M69.671 25.4677C69.7917 25.3266 69.9612 25.2572 70.1841 25.2572C70.4279 25.2572 70.5882 25.322 70.6741 25.4584C70.7739 25.6157 70.8296 25.8724 70.8389 26.2309L70.8436 26.3766H71.8026L71.7979 26.224C71.7654 24.6952 70.9016 24.3737 70.1841 24.3737C69.7058 24.3737 69.3087 24.524 68.9999 24.8201C68.6865 25.1254 68.5332 25.6157 68.5332 26.3211V29.0458C68.5332 30.6579 69.4295 30.9956 70.1841 30.9956C70.9086 30.9956 71.777 30.6648 71.7979 29.0828L71.8002 28.9301H70.8505L70.8482 29.0805C70.8436 29.4783 70.7855 29.7581 70.6741 29.9085C70.5765 30.0449 70.4163 30.112 70.1841 30.112C69.9612 30.112 69.7917 30.0449 69.6733 29.9039C69.5874 29.8021 69.4852 29.5569 69.4852 28.9694V26.3905C69.4852 25.81 69.5874 25.5694 69.671 25.4677Z" fill="#0051C6"/>
<path d="M73.6816 25.3103H74.838V30.9423H75.7807V25.3103H76.9371V24.4244H73.6816V25.3103Z" fill="#0051C6"/>
<path d="M81.8141 27.5908C81.9441 27.496 82.051 27.3711 82.1415 27.2185C82.2832 26.9687 82.3528 26.6657 82.3528 26.3234V26.1591C82.3528 25.5902 82.2042 25.153 81.914 24.8639C81.6191 24.5748 81.1733 24.4268 80.5881 24.4268H79.1113V30.9446H80.6299C81.2081 30.9446 81.6562 30.7873 81.9604 30.482C82.2669 30.1721 82.4225 29.7257 82.4225 29.1544V28.9786C82.4225 28.5923 82.3389 28.2593 82.1763 27.991C82.0765 27.8175 81.9558 27.6834 81.8141 27.5908ZM80.0657 27.1768V25.3034H80.537C80.8691 25.3034 81.0989 25.3704 81.2174 25.5C81.3404 25.6387 81.4008 25.8885 81.4008 26.2447C81.4008 26.5801 81.3428 26.8276 81.229 26.9733C81.1222 27.1051 80.8923 27.1768 80.5626 27.1768H80.0657ZM81.4821 29.0526C81.4821 29.3995 81.4171 29.6609 81.287 29.8321C81.164 29.987 80.9271 30.0634 80.5811 30.0634H80.068V28.0419H80.5811C80.9318 28.0419 81.1733 28.1205 81.2917 28.2731C81.4194 28.4443 81.4821 28.708 81.4821 29.0526Z" fill="#0051C6"/>
<path d="M86.2969 24.3737C85.54 24.3737 84.6367 24.7113 84.6367 26.3211V29.0435C84.6367 30.6556 85.54 30.9933 86.2969 30.9933C87.0493 30.9933 87.9479 30.6556 87.9479 29.0435V26.3211C87.9479 24.7113 87.0516 24.3737 86.2969 24.3737ZM87.0051 28.9671C87.0051 29.5569 86.903 29.7998 86.8171 29.9016C86.6986 30.0426 86.5268 30.1097 86.2969 30.1097C86.0671 30.1097 85.8976 30.0403 85.7768 29.9016C85.6932 29.8021 85.591 29.5569 85.591 28.9671V26.3905C85.591 25.8077 85.6909 25.5671 85.7791 25.4677C85.8999 25.3266 86.0694 25.2572 86.2993 25.2572C86.5291 25.2572 86.6986 25.3243 86.8194 25.4677C86.9053 25.5671 87.0075 25.8077 87.0075 26.3905V28.9671H87.0051Z" fill="#0051C6"/>
<path d="M94.6827 25.4677C94.8034 25.3266 94.9706 25.2572 95.1935 25.2572C95.4373 25.2572 95.5975 25.322 95.6835 25.4584C95.7833 25.6157 95.839 25.8724 95.8483 26.2309L95.853 26.3766H96.8119L96.8073 26.224C96.7748 24.6952 95.911 24.3737 95.1935 24.3737C94.7175 24.3737 94.3181 24.524 94.0093 24.8201C93.7005 25.1207 93.5449 25.6273 93.5449 26.3211V29.0458C93.5449 30.6579 94.4412 30.9956 95.1959 30.9956C95.9203 30.9956 96.7887 30.6648 96.8096 29.0828L96.8119 28.9301H95.8623L95.8599 29.0805C95.8553 29.4783 95.7972 29.7581 95.6858 29.9085C95.5883 30.0449 95.4281 30.112 95.1959 30.112C94.9706 30.112 94.8034 30.0449 94.6827 29.9039C94.5968 29.8044 94.4946 29.5592 94.4946 28.9694V26.3905C94.4946 25.8077 94.5945 25.5694 94.6827 25.4677Z" fill="#0051C6"/>
<path d="M102.529 25.4444V26.668L103.347 25.7428V30.9423H104.252V24.4244H103.428L102.529 25.4444Z" fill="#0051C6"/>
<path d="M108.51 24.3737C107.995 24.3737 107.609 24.5356 107.363 24.8617C107.124 25.1762 107.008 25.6712 107.008 26.3743C107.008 27.0428 107.122 27.5146 107.354 27.8153C107.595 28.1252 107.944 28.2802 108.385 28.2802C108.45 28.2802 108.51 28.2756 108.571 28.2663L107.47 30.9447H108.44L109.467 28.4259C109.481 28.382 109.518 28.2894 109.576 28.1484C109.634 28.0073 109.673 27.9124 109.694 27.8616C109.715 27.8107 109.745 27.7228 109.79 27.6002C109.834 27.4753 109.864 27.3758 109.88 27.3041C109.899 27.2324 109.92 27.1399 109.94 27.0266C109.961 26.9086 109.978 26.793 109.985 26.6773C109.994 26.564 109.999 26.4437 109.999 26.3165C109.999 25.655 109.875 25.167 109.634 24.8571C109.388 24.5356 109.007 24.3737 108.51 24.3737ZM109.095 26.3396C109.095 26.867 109.019 27.1168 108.954 27.2347C108.905 27.325 108.803 27.4452 108.512 27.4452C108.162 27.4452 108.083 27.3018 108.057 27.2556C107.997 27.1469 107.927 26.8971 107.927 26.342C107.927 25.7892 107.999 25.5394 108.06 25.426C108.085 25.3775 108.166 25.2271 108.515 25.2271C108.742 25.2271 108.891 25.2919 108.965 25.426C109.023 25.5371 109.095 25.7892 109.095 26.3396Z" fill="#0051C6"/>
<path d="M113.438 24.3737C112.922 24.3737 112.535 24.5356 112.291 24.8617C112.052 25.1762 111.936 25.6712 111.936 26.3743C111.936 27.0428 112.049 27.5146 112.282 27.8153C112.523 28.1252 112.869 28.2802 113.312 28.2802C113.377 28.2802 113.438 28.2756 113.496 28.2663L112.398 30.9447H113.368L114.392 28.4259C114.406 28.382 114.446 28.2894 114.501 28.1484C114.559 28.0073 114.599 27.9124 114.62 27.8616C114.641 27.8107 114.673 27.7228 114.715 27.6002C114.759 27.4753 114.789 27.3758 114.806 27.3041C114.824 27.2324 114.845 27.1399 114.864 27.0266C114.887 26.9086 114.901 26.793 114.91 26.6773C114.919 26.564 114.924 26.4437 114.924 26.3165C114.924 25.655 114.801 25.167 114.559 24.8571C114.313 24.5356 113.935 24.3737 113.438 24.3737ZM114.023 26.3396C114.023 26.867 113.946 27.1168 113.881 27.2347C113.833 27.325 113.73 27.4452 113.44 27.4452C113.09 27.4452 113.011 27.3018 112.983 27.2556C112.925 27.1469 112.853 26.8971 112.853 26.342C112.853 25.7892 112.925 25.5394 112.985 25.426C113.011 25.3775 113.092 25.2271 113.44 25.2271C113.668 25.2271 113.816 25.2919 113.891 25.426C113.949 25.5371 114.023 25.7892 114.023 26.3396Z" fill="#0051C6"/>
<path d="M117.309 25.4444V26.668L118.124 25.7428V30.9423H119.032V24.4244H118.207L117.309 25.4444Z" fill="#0051C6"/>
<path d="M125.34 30.9423H126.29V25.3103H128.254V24.4244H125.34V30.9423Z" fill="#0051C6"/>
<path d="M132.012 24.3737C131.255 24.3737 130.352 24.7113 130.352 26.3211V29.0458C130.352 30.6579 131.255 30.9956 132.012 30.9956C132.764 30.9956 133.663 30.6579 133.663 29.0458V26.3211C133.665 24.7113 132.766 24.3737 132.012 24.3737ZM131.306 26.3905C131.306 25.8077 131.406 25.5671 131.494 25.4677C131.615 25.3266 131.784 25.2572 132.012 25.2572C132.242 25.2572 132.411 25.3266 132.532 25.4677C132.618 25.5671 132.72 25.8077 132.72 26.3905V28.9671C132.72 29.5569 132.615 29.7998 132.532 29.9015C132.411 30.0426 132.242 30.1097 132.012 30.1097C131.782 30.1097 131.612 30.0403 131.492 29.9015C131.408 29.7998 131.304 29.5569 131.304 28.9671V26.3905H131.306Z" fill="#0051C6"/>
<path d="M139.556 24.4244H136.712V25.3797C136.712 26.6194 136.667 27.5723 136.577 28.2176C136.491 28.819 136.321 29.4389 136.068 30.0564H135.613V32.3485H136.521V30.9423H139.217V32.3485H140.116V30.0564H139.556V24.4244ZM138.611 25.3103V30.0541H137.062C137.278 29.4643 137.427 28.93 137.503 28.4605C137.589 27.9447 137.633 27.1167 137.633 26.0042V25.308H138.611V25.3103Z" fill="#0051C6"/>
<path d="M144.083 24.5401L144.056 24.4244H143.255L141.738 30.9423H142.679L142.971 29.6331H144.351L144.648 30.9423H145.597L144.083 24.5401ZM144.151 28.7797H143.157L143.645 26.557L143.751 27.0473C143.842 27.422 143.928 27.7944 144.014 28.1714L144.151 28.7797Z" fill="#0051C6"/>
</svg>
