<svg width="514" height="55" viewBox="0 0 514 55" fill="none" xmlns="http://www.w3.org/2000/svg">
<path d="M506 0C510.418 0 514 3.58172 514 8V47C514 51.4183 510.418 55 506 55H8C3.58172 55 0 51.4183 0 47V8C0 3.58172 3.58172 0 8 0H506Z" fill="#FF0505"/>
<path d="M506 0C510.418 0 514 3.58172 514 8V47C514 51.4183 510.418 55 506 55H8C3.58172 55 0 51.4183 0 47V8C0 3.58172 3.58172 0 8 0H506Z" stroke="#E5E7EB"/>
<path d="M190 19.3438C190 18.8762 190.375 18.5 190.84 18.5H192.434C193.204 18.5 193.887 18.95 194.206 19.625H208.599C209.52 19.625 210.192 20.5039 209.95 21.3969L208.515 26.7512C208.217 27.8551 207.219 28.625 206.081 28.625H195.978L196.167 29.627C196.244 30.0242 196.591 30.3125 196.993 30.3125H207.089C207.555 30.3125 207.93 30.6887 207.93 31.1562C207.93 31.6238 207.555 32 207.089 32H196.993C195.782 32 194.742 31.1352 194.517 29.9434L192.71 20.416C192.686 20.2824 192.57 20.1875 192.434 20.1875H190.84C190.375 20.1875 190 19.8113 190 19.3438ZM194.482 34.8125C194.482 34.5909 194.526 34.3715 194.61 34.1667C194.695 33.962 194.819 33.776 194.975 33.6193C195.131 33.4626 195.316 33.3383 195.52 33.2535C195.724 33.1686 195.943 33.125 196.163 33.125C196.384 33.125 196.603 33.1686 196.807 33.2535C197.011 33.3383 197.196 33.4626 197.352 33.6193C197.508 33.776 197.632 33.962 197.716 34.1667C197.801 34.3715 197.844 34.5909 197.844 34.8125C197.844 35.0341 197.801 35.2535 197.716 35.4583C197.632 35.663 197.508 35.849 197.352 36.0057C197.196 36.1624 197.011 36.2867 196.807 36.3715C196.603 36.4564 196.384 36.5 196.163 36.5C195.943 36.5 195.724 36.4564 195.52 36.3715C195.316 36.2867 195.131 36.1624 194.975 36.0057C194.819 35.849 194.695 35.663 194.61 35.4583C194.526 35.2535 194.482 35.0341 194.482 34.8125ZM206.249 33.125C206.695 33.125 207.122 33.3028 207.437 33.6193C207.753 33.9357 207.93 34.3649 207.93 34.8125C207.93 35.2601 207.753 35.6893 207.437 36.0057C207.122 36.3222 206.695 36.5 206.249 36.5C205.803 36.5 205.376 36.3222 205.06 36.0057C204.745 35.6893 204.568 35.2601 204.568 34.8125C204.568 34.3649 204.745 33.9357 205.06 33.6193C205.376 33.3028 205.803 33.125 206.249 33.125Z" fill="white"/>
<path d="M220.918 31.5V18.4091H225.93C226.876 18.4091 227.662 18.5582 228.288 18.8565C228.919 19.1506 229.39 19.5533 229.701 20.0646C230.016 20.576 230.174 21.1555 230.174 21.8033C230.174 22.3359 230.072 22.7919 229.867 23.1712C229.662 23.5462 229.388 23.8509 229.042 24.0852C228.697 24.3196 228.312 24.4879 227.885 24.5902V24.718C228.35 24.7436 228.795 24.8864 229.221 25.1463C229.652 25.402 230.003 25.7642 230.276 26.233C230.549 26.7017 230.685 27.2685 230.685 27.9332C230.685 28.6108 230.521 29.2202 230.193 29.7614C229.865 30.2983 229.371 30.7223 228.71 31.0334C228.05 31.3445 227.219 31.5 226.217 31.5H220.918ZM223.29 29.5185H225.84C226.701 29.5185 227.321 29.3544 227.7 29.0263C228.084 28.6939 228.275 28.2678 228.275 27.7479C228.275 27.3601 228.18 27.0107 227.988 26.6996C227.796 26.3842 227.523 26.1371 227.17 25.9581C226.816 25.7749 226.394 25.6832 225.904 25.6832H223.29V29.5185ZM223.29 23.9766H225.635C226.045 23.9766 226.413 23.902 226.741 23.7528C227.069 23.5994 227.327 23.3842 227.515 23.1072C227.706 22.826 227.802 22.4936 227.802 22.1101C227.802 21.603 227.623 21.1854 227.265 20.8572C226.912 20.5291 226.385 20.3651 225.687 20.3651H223.29V23.9766ZM245.056 31.5L240.748 25.7791H239.585V31.5H237.213V18.4091H239.585V23.7912H240.179L244.832 18.4091H247.754L242.582 24.3793L247.977 31.5H245.056ZM260.582 24.9545C260.582 26.3651 260.318 27.5732 259.79 28.5788C259.266 29.5803 258.55 30.3473 257.642 30.88C256.739 31.4126 255.714 31.679 254.567 31.679C253.421 31.679 252.394 31.4126 251.487 30.88C250.583 30.343 249.867 29.5739 249.339 28.5724C248.815 27.5668 248.553 26.3608 248.553 24.9545C248.553 23.544 248.815 22.3381 249.339 21.3366C249.867 20.331 250.583 19.5618 251.487 19.0291C252.394 18.4964 253.421 18.2301 254.567 18.2301C255.714 18.2301 256.739 18.4964 257.642 19.0291C258.55 19.5618 259.266 20.331 259.79 21.3366C260.318 22.3381 260.582 23.544 260.582 24.9545ZM258.198 24.9545C258.198 23.9616 258.043 23.1243 257.732 22.4425C257.425 21.7564 256.999 21.2386 256.453 20.8892C255.908 20.5355 255.279 20.3587 254.567 20.3587C253.856 20.3587 253.227 20.5355 252.682 20.8892C252.136 21.2386 251.708 21.7564 251.397 22.4425C251.09 23.1243 250.937 23.9616 250.937 24.9545C250.937 25.9474 251.09 26.7869 251.397 27.473C251.708 28.1548 252.136 28.6726 252.682 29.0263C253.227 29.3757 253.856 29.5504 254.567 29.5504C255.279 29.5504 255.908 29.3757 256.453 29.0263C256.999 28.6726 257.425 28.1548 257.732 27.473C258.043 26.7869 258.198 25.9474 258.198 24.9545ZM262.824 31.5V18.4091H267.733C268.739 18.4091 269.583 18.5966 270.265 18.9716C270.951 19.3466 271.469 19.8622 271.818 20.5185C272.172 21.1705 272.349 21.9119 272.349 22.7429C272.349 23.5824 272.172 24.3281 271.818 24.9801C271.464 25.6321 270.942 26.1456 270.252 26.5206C269.562 26.8913 268.711 27.0767 267.702 27.0767H264.448V25.1271H267.382C267.97 25.1271 268.452 25.0249 268.827 24.8203C269.202 24.6158 269.479 24.3345 269.657 23.9766C269.841 23.6186 269.932 23.2074 269.932 22.7429C269.932 22.2784 269.841 21.8693 269.657 21.5156C269.479 21.1619 269.199 20.8871 268.82 20.6911C268.445 20.4908 267.961 20.3906 267.369 20.3906H265.196V31.5H262.824ZM278.979 31.679C278.058 31.679 277.24 31.5213 276.524 31.206C275.813 30.8906 275.25 30.4517 274.837 29.8892C274.423 29.3267 274.204 28.6768 274.178 27.9396H276.582C276.603 28.2933 276.72 28.6023 276.933 28.8665C277.146 29.1264 277.43 29.3288 277.783 29.4737C278.137 29.6186 278.533 29.6911 278.972 29.6911C279.441 29.6911 279.857 29.6101 280.219 29.4482C280.581 29.282 280.864 29.0518 281.069 28.7578C281.273 28.4638 281.374 28.125 281.369 27.7415C281.374 27.3452 281.271 26.9957 281.062 26.6932C280.854 26.3906 280.551 26.1541 280.155 25.9837C279.763 25.8132 279.29 25.728 278.736 25.728H277.579V23.8999H278.736C279.192 23.8999 279.59 23.821 279.931 23.6634C280.276 23.5057 280.547 23.2841 280.743 22.9986C280.939 22.7088 281.035 22.3743 281.031 21.995C281.035 21.6243 280.952 21.3026 280.781 21.0298C280.615 20.7528 280.379 20.5376 280.072 20.3842C279.769 20.2308 279.413 20.1541 279.004 20.1541C278.604 20.1541 278.233 20.2266 277.892 20.3714C277.551 20.5163 277.276 20.723 277.067 20.9915C276.859 21.2557 276.748 21.571 276.735 21.9375H274.453C274.47 21.2045 274.681 20.5611 275.086 20.0071C275.495 19.4489 276.04 19.0142 276.722 18.7031C277.404 18.3878 278.169 18.2301 279.017 18.2301C279.891 18.2301 280.649 18.3942 281.293 18.7223C281.94 19.0462 282.441 19.483 282.795 20.0327C283.148 20.5824 283.325 21.1896 283.325 21.8544C283.33 22.5916 283.112 23.2095 282.673 23.7081C282.239 24.2067 281.668 24.5327 280.96 24.6861V24.7884C281.881 24.9162 282.586 25.2571 283.076 25.8111C283.57 26.3608 283.815 27.0447 283.811 27.8629C283.811 28.5959 283.602 29.2521 283.185 29.8317C282.771 30.407 282.2 30.8587 281.472 31.1868C280.747 31.5149 279.916 31.679 278.979 31.679ZM286.133 18.4091H288.485V27.3324H288.607L294.762 18.4091H296.891V31.5H294.519V22.5831H294.411L288.236 31.5H286.133V18.4091ZM299.475 31.5V18.4091H301.846V23.951H307.912V18.4091H310.29V31.5H307.912V25.9389H301.846V31.5H299.475ZM314.039 31.679V29.6847H314.787C315.124 29.6847 315.401 29.6357 315.618 29.5376C315.835 29.4396 316.01 29.299 316.142 29.1158C316.278 28.9325 316.391 28.7195 316.481 28.4766L316.653 28.0355L311.974 18.4091H314.455L317.714 25.4148L320.533 18.4091H322.975L318.462 29.0838C318.254 29.544 318.013 29.9723 317.74 30.3686C317.467 30.7607 317.112 31.0781 316.673 31.321C316.238 31.5597 315.671 31.679 314.972 31.679H314.039Z" fill="white"/>
</svg>
